<svg width="744" height="11420" viewBox="0 0 744 11420" fill="none" xmlns="http://www.w3.org/2000/svg">
<g clip-path="url(#clip0_2895_78218)">
<rect width="744" height="13382" transform="translate(0 -110)" fill="white"/>
<rect x="-148" y="2266" width="889" height="1772" rx="64" fill="#0094FF"/>
<path fill-rule="evenodd" clip-rule="evenodd" d="M431.611 2746.45C431.611 2747.89 430.131 2749.05 428.306 2749.05C426.48 2749.05 425 2747.89 425 2746.45C425 2745.02 426.48 2743.85 428.306 2743.85C430.131 2743.85 431.611 2745.02 431.611 2746.45" fill="white"/>
<path fill-rule="evenodd" clip-rule="evenodd" d="M464.667 2746.45C464.667 2747.89 463.187 2749.05 461.361 2749.05C459.536 2749.05 458.056 2747.89 458.056 2746.45C458.056 2745.02 459.536 2743.85 461.361 2743.85C463.187 2743.85 464.667 2745.02 464.667 2746.45" fill="white"/>
<path fill-rule="evenodd" clip-rule="evenodd" d="M497.722 2746.45C497.722 2747.89 496.242 2749.05 494.417 2749.05C492.591 2749.05 491.111 2747.89 491.111 2746.45C491.111 2745.02 492.591 2743.85 494.417 2743.85C496.242 2743.85 497.722 2745.02 497.722 2746.45" fill="white"/>
<path fill-rule="evenodd" clip-rule="evenodd" d="M530.778 2746.45C530.778 2747.89 529.298 2749.05 527.473 2749.05C525.647 2749.05 524.167 2747.89 524.167 2746.45C524.167 2745.02 525.647 2743.85 527.473 2743.85C529.298 2743.85 530.778 2745.02 530.778 2746.45" fill="white"/>
<path fill-rule="evenodd" clip-rule="evenodd" d="M563.834 2746.45C563.834 2747.89 562.354 2749.05 560.528 2749.05C558.703 2749.05 557.223 2747.89 557.223 2746.45C557.223 2745.02 558.703 2743.85 560.528 2743.85C562.354 2743.85 563.834 2745.02 563.834 2746.45" fill="white"/>
<path fill-rule="evenodd" clip-rule="evenodd" d="M596.888 2746.45C596.888 2747.89 595.408 2749.05 593.583 2749.05C591.757 2749.05 590.277 2747.89 590.277 2746.45C590.277 2745.02 591.757 2743.85 593.583 2743.85C595.408 2743.85 596.888 2745.02 596.888 2746.45" fill="white"/>
<path fill-rule="evenodd" clip-rule="evenodd" d="M629.944 2746.45C629.944 2747.89 628.464 2749.05 626.639 2749.05C624.813 2749.05 623.333 2747.89 623.333 2746.45C623.333 2745.02 624.813 2743.85 626.639 2743.85C628.464 2743.85 629.944 2745.02 629.944 2746.45" fill="white"/>
<path fill-rule="evenodd" clip-rule="evenodd" d="M663 2746.45C663 2747.89 661.52 2749.05 659.694 2749.05C657.869 2749.05 656.389 2747.89 656.389 2746.45C656.389 2745.02 657.869 2743.85 659.694 2743.85C661.52 2743.85 663 2745.02 663 2746.45" fill="white"/>
<path fill-rule="evenodd" clip-rule="evenodd" d="M431.611 2772.45C431.611 2773.88 430.131 2775.05 428.306 2775.05C426.48 2775.05 425 2773.88 425 2772.45C425 2771.01 426.48 2769.85 428.306 2769.85C430.131 2769.85 431.611 2771.01 431.611 2772.45" fill="white"/>
<path fill-rule="evenodd" clip-rule="evenodd" d="M464.667 2772.45C464.667 2773.88 463.187 2775.05 461.361 2775.05C459.536 2775.05 458.056 2773.88 458.056 2772.45C458.056 2771.01 459.536 2769.85 461.361 2769.85C463.187 2769.85 464.667 2771.01 464.667 2772.45" fill="white"/>
<path fill-rule="evenodd" clip-rule="evenodd" d="M497.722 2772.45C497.722 2773.88 496.242 2775.05 494.417 2775.05C492.591 2775.05 491.111 2773.88 491.111 2772.45C491.111 2771.01 492.591 2769.85 494.417 2769.85C496.242 2769.85 497.722 2771.01 497.722 2772.45" fill="white"/>
<path fill-rule="evenodd" clip-rule="evenodd" d="M530.778 2772.45C530.778 2773.88 529.298 2775.05 527.473 2775.05C525.647 2775.05 524.167 2773.88 524.167 2772.45C524.167 2771.01 525.647 2769.85 527.473 2769.85C529.298 2769.85 530.778 2771.01 530.778 2772.45" fill="white"/>
<path fill-rule="evenodd" clip-rule="evenodd" d="M563.834 2772.45C563.834 2773.88 562.354 2775.05 560.528 2775.05C558.703 2775.05 557.223 2773.88 557.223 2772.45C557.223 2771.01 558.703 2769.85 560.528 2769.85C562.354 2769.85 563.834 2771.01 563.834 2772.45" fill="white"/>
<path fill-rule="evenodd" clip-rule="evenodd" d="M596.888 2772.45C596.888 2773.88 595.408 2775.05 593.583 2775.05C591.757 2775.05 590.277 2773.88 590.277 2772.45C590.277 2771.01 591.757 2769.85 593.583 2769.85C595.408 2769.85 596.888 2771.01 596.888 2772.45" fill="white"/>
<path fill-rule="evenodd" clip-rule="evenodd" d="M629.944 2772.45C629.944 2773.88 628.464 2775.05 626.639 2775.05C624.813 2775.05 623.333 2773.88 623.333 2772.45C623.333 2771.01 624.813 2769.85 626.639 2769.85C628.464 2769.85 629.944 2771.01 629.944 2772.45" fill="white"/>
<path fill-rule="evenodd" clip-rule="evenodd" d="M663 2772.45C663 2773.88 661.52 2775.05 659.694 2775.05C657.869 2775.05 656.389 2773.88 656.389 2772.45C656.389 2771.01 657.869 2769.85 659.694 2769.85C661.52 2769.85 663 2771.01 663 2772.45" fill="white"/>
<path fill-rule="evenodd" clip-rule="evenodd" d="M431.611 2798.44C431.611 2799.87 430.131 2801.04 428.306 2801.04C426.48 2801.04 425 2799.87 425 2798.44C425 2797 426.48 2795.84 428.306 2795.84C430.131 2795.84 431.611 2797 431.611 2798.44" fill="white"/>
<path fill-rule="evenodd" clip-rule="evenodd" d="M464.667 2798.44C464.667 2799.87 463.187 2801.04 461.361 2801.04C459.536 2801.04 458.056 2799.87 458.056 2798.44C458.056 2797 459.536 2795.84 461.361 2795.84C463.187 2795.84 464.667 2797 464.667 2798.44" fill="white"/>
<path fill-rule="evenodd" clip-rule="evenodd" d="M497.722 2798.44C497.722 2799.87 496.242 2801.04 494.417 2801.04C492.591 2801.04 491.111 2799.87 491.111 2798.44C491.111 2797 492.591 2795.84 494.417 2795.84C496.242 2795.84 497.722 2797 497.722 2798.44" fill="white"/>
<path fill-rule="evenodd" clip-rule="evenodd" d="M530.778 2798.44C530.778 2799.87 529.298 2801.04 527.473 2801.04C525.647 2801.04 524.167 2799.87 524.167 2798.44C524.167 2797 525.647 2795.84 527.473 2795.84C529.298 2795.84 530.778 2797 530.778 2798.44" fill="white"/>
<path fill-rule="evenodd" clip-rule="evenodd" d="M563.834 2798.44C563.834 2799.87 562.354 2801.04 560.528 2801.04C558.703 2801.04 557.223 2799.87 557.223 2798.44C557.223 2797 558.703 2795.84 560.528 2795.84C562.354 2795.84 563.834 2797 563.834 2798.44" fill="white"/>
<path fill-rule="evenodd" clip-rule="evenodd" d="M596.888 2798.44C596.888 2799.87 595.408 2801.04 593.583 2801.04C591.757 2801.04 590.277 2799.87 590.277 2798.44C590.277 2797 591.757 2795.84 593.583 2795.84C595.408 2795.84 596.888 2797 596.888 2798.44" fill="white"/>
<path fill-rule="evenodd" clip-rule="evenodd" d="M629.944 2798.44C629.944 2799.87 628.464 2801.04 626.639 2801.04C624.813 2801.04 623.333 2799.87 623.333 2798.44C623.333 2797 624.813 2795.84 626.639 2795.84C628.464 2795.84 629.944 2797 629.944 2798.44" fill="white"/>
<path fill-rule="evenodd" clip-rule="evenodd" d="M663 2798.44C663 2799.87 661.52 2801.04 659.694 2801.04C657.869 2801.04 656.389 2799.87 656.389 2798.44C656.389 2797 657.869 2795.84 659.694 2795.84C661.52 2795.84 663 2797 663 2798.44" fill="white"/>
<path fill-rule="evenodd" clip-rule="evenodd" d="M431.611 2824.43C431.611 2825.87 430.131 2827.03 428.306 2827.03C426.48 2827.03 425 2825.87 425 2824.43C425 2823 426.48 2821.83 428.306 2821.83C430.131 2821.83 431.611 2823 431.611 2824.43" fill="white"/>
<path fill-rule="evenodd" clip-rule="evenodd" d="M464.667 2824.43C464.667 2825.87 463.187 2827.03 461.361 2827.03C459.536 2827.03 458.056 2825.87 458.056 2824.43C458.056 2823 459.536 2821.83 461.361 2821.83C463.187 2821.83 464.667 2823 464.667 2824.43" fill="white"/>
<path fill-rule="evenodd" clip-rule="evenodd" d="M497.722 2824.43C497.722 2825.87 496.242 2827.03 494.417 2827.03C492.591 2827.03 491.111 2825.87 491.111 2824.43C491.111 2823 492.591 2821.83 494.417 2821.83C496.242 2821.83 497.722 2823 497.722 2824.43" fill="white"/>
<path fill-rule="evenodd" clip-rule="evenodd" d="M530.778 2824.43C530.778 2825.87 529.298 2827.03 527.473 2827.03C525.647 2827.03 524.167 2825.87 524.167 2824.43C524.167 2823 525.647 2821.83 527.473 2821.83C529.298 2821.83 530.778 2823 530.778 2824.43" fill="white"/>
<path fill-rule="evenodd" clip-rule="evenodd" d="M563.834 2824.43C563.834 2825.87 562.354 2827.03 560.528 2827.03C558.703 2827.03 557.223 2825.87 557.223 2824.43C557.223 2823 558.703 2821.83 560.528 2821.83C562.354 2821.83 563.834 2823 563.834 2824.43" fill="white"/>
<path fill-rule="evenodd" clip-rule="evenodd" d="M596.888 2824.43C596.888 2825.87 595.408 2827.03 593.583 2827.03C591.757 2827.03 590.277 2825.87 590.277 2824.43C590.277 2823 591.757 2821.83 593.583 2821.83C595.408 2821.83 596.888 2823 596.888 2824.43" fill="white"/>
<path fill-rule="evenodd" clip-rule="evenodd" d="M629.944 2824.43C629.944 2825.87 628.464 2827.03 626.639 2827.03C624.813 2827.03 623.333 2825.87 623.333 2824.43C623.333 2823 624.813 2821.83 626.639 2821.83C628.464 2821.83 629.944 2823 629.944 2824.43" fill="white"/>
<path fill-rule="evenodd" clip-rule="evenodd" d="M663 2824.43C663 2825.87 661.52 2827.03 659.694 2827.03C657.869 2827.03 656.389 2825.87 656.389 2824.43C656.389 2823 657.869 2821.83 659.694 2821.83C661.52 2821.83 663 2823 663 2824.43" fill="white"/>
<path fill-rule="evenodd" clip-rule="evenodd" d="M431.611 2850.42C431.611 2851.86 430.131 2853.02 428.306 2853.02C426.48 2853.02 425 2851.86 425 2850.42C425 2848.99 426.48 2847.82 428.306 2847.82C430.131 2847.82 431.611 2848.99 431.611 2850.42" fill="white"/>
<path fill-rule="evenodd" clip-rule="evenodd" d="M464.667 2850.42C464.667 2851.86 463.187 2853.02 461.361 2853.02C459.536 2853.02 458.056 2851.86 458.056 2850.42C458.056 2848.99 459.536 2847.82 461.361 2847.82C463.187 2847.82 464.667 2848.99 464.667 2850.42" fill="white"/>
<path fill-rule="evenodd" clip-rule="evenodd" d="M497.722 2850.42C497.722 2851.86 496.242 2853.02 494.417 2853.02C492.591 2853.02 491.111 2851.86 491.111 2850.42C491.111 2848.99 492.591 2847.82 494.417 2847.82C496.242 2847.82 497.722 2848.99 497.722 2850.42" fill="white"/>
<path fill-rule="evenodd" clip-rule="evenodd" d="M530.778 2850.42C530.778 2851.86 529.298 2853.02 527.473 2853.02C525.647 2853.02 524.167 2851.86 524.167 2850.42C524.167 2848.99 525.647 2847.82 527.473 2847.82C529.298 2847.82 530.778 2848.99 530.778 2850.42" fill="white"/>
<path fill-rule="evenodd" clip-rule="evenodd" d="M563.834 2850.42C563.834 2851.86 562.354 2853.02 560.528 2853.02C558.703 2853.02 557.223 2851.86 557.223 2850.42C557.223 2848.99 558.703 2847.82 560.528 2847.82C562.354 2847.82 563.834 2848.99 563.834 2850.42" fill="white"/>
<path fill-rule="evenodd" clip-rule="evenodd" d="M596.888 2850.42C596.888 2851.86 595.408 2853.02 593.583 2853.02C591.757 2853.02 590.277 2851.86 590.277 2850.42C590.277 2848.99 591.757 2847.82 593.583 2847.82C595.408 2847.82 596.888 2848.99 596.888 2850.42" fill="white"/>
<path fill-rule="evenodd" clip-rule="evenodd" d="M629.944 2850.42C629.944 2851.86 628.464 2853.02 626.639 2853.02C624.813 2853.02 623.333 2851.86 623.333 2850.42C623.333 2848.99 624.813 2847.82 626.639 2847.82C628.464 2847.82 629.944 2848.99 629.944 2850.42" fill="white"/>
<path fill-rule="evenodd" clip-rule="evenodd" d="M663 2850.42C663 2851.86 661.52 2853.02 659.694 2853.02C657.869 2853.02 656.389 2851.86 656.389 2850.42C656.389 2848.99 657.869 2847.82 659.694 2847.82C661.52 2847.82 663 2848.99 663 2850.42" fill="white"/>
<path fill-rule="evenodd" clip-rule="evenodd" d="M431.611 2876.42C431.611 2877.85 430.131 2879.02 428.306 2879.02C426.48 2879.02 425 2877.85 425 2876.42C425 2874.98 426.48 2873.82 428.306 2873.82C430.131 2873.82 431.611 2874.98 431.611 2876.42" fill="white"/>
<path fill-rule="evenodd" clip-rule="evenodd" d="M464.667 2876.42C464.667 2877.85 463.187 2879.02 461.361 2879.02C459.536 2879.02 458.056 2877.85 458.056 2876.42C458.056 2874.98 459.536 2873.82 461.361 2873.82C463.187 2873.82 464.667 2874.98 464.667 2876.42" fill="white"/>
<path fill-rule="evenodd" clip-rule="evenodd" d="M497.722 2876.42C497.722 2877.85 496.242 2879.02 494.417 2879.02C492.591 2879.02 491.111 2877.85 491.111 2876.42C491.111 2874.98 492.591 2873.82 494.417 2873.82C496.242 2873.82 497.722 2874.98 497.722 2876.42" fill="white"/>
<path fill-rule="evenodd" clip-rule="evenodd" d="M530.778 2876.42C530.778 2877.85 529.298 2879.02 527.473 2879.02C525.647 2879.02 524.167 2877.85 524.167 2876.42C524.167 2874.98 525.647 2873.82 527.473 2873.82C529.298 2873.82 530.778 2874.98 530.778 2876.42" fill="white"/>
<path fill-rule="evenodd" clip-rule="evenodd" d="M563.834 2876.42C563.834 2877.85 562.354 2879.02 560.528 2879.02C558.703 2879.02 557.223 2877.85 557.223 2876.42C557.223 2874.98 558.703 2873.82 560.528 2873.82C562.354 2873.82 563.834 2874.98 563.834 2876.42" fill="white"/>
<path fill-rule="evenodd" clip-rule="evenodd" d="M596.888 2876.42C596.888 2877.85 595.408 2879.02 593.583 2879.02C591.757 2879.02 590.277 2877.85 590.277 2876.42C590.277 2874.98 591.757 2873.82 593.583 2873.82C595.408 2873.82 596.888 2874.98 596.888 2876.42" fill="white"/>
<path fill-rule="evenodd" clip-rule="evenodd" d="M629.944 2876.42C629.944 2877.85 628.464 2879.02 626.639 2879.02C624.813 2879.02 623.333 2877.85 623.333 2876.42C623.333 2874.98 624.813 2873.82 626.639 2873.82C628.464 2873.82 629.944 2874.98 629.944 2876.42" fill="white"/>
<path fill-rule="evenodd" clip-rule="evenodd" d="M663 2876.42C663 2877.85 661.52 2879.02 659.694 2879.02C657.869 2879.02 656.389 2877.85 656.389 2876.42C656.389 2874.98 657.869 2873.82 659.694 2873.82C661.52 2873.82 663 2874.98 663 2876.42" fill="white"/>
<path fill-rule="evenodd" clip-rule="evenodd" d="M431.611 2902.41C431.611 2903.84 430.131 2905.01 428.306 2905.01C426.48 2905.01 425 2903.84 425 2902.41C425 2900.97 426.48 2899.81 428.306 2899.81C430.131 2899.81 431.611 2900.97 431.611 2902.41" fill="white"/>
<path fill-rule="evenodd" clip-rule="evenodd" d="M464.667 2902.41C464.667 2903.84 463.187 2905.01 461.361 2905.01C459.536 2905.01 458.056 2903.84 458.056 2902.41C458.056 2900.97 459.536 2899.81 461.361 2899.81C463.187 2899.81 464.667 2900.97 464.667 2902.41" fill="white"/>
<path fill-rule="evenodd" clip-rule="evenodd" d="M497.722 2902.41C497.722 2903.84 496.242 2905.01 494.417 2905.01C492.591 2905.01 491.111 2903.84 491.111 2902.41C491.111 2900.97 492.591 2899.81 494.417 2899.81C496.242 2899.81 497.722 2900.97 497.722 2902.41" fill="white"/>
<path fill-rule="evenodd" clip-rule="evenodd" d="M530.778 2902.41C530.778 2903.84 529.298 2905.01 527.473 2905.01C525.647 2905.01 524.167 2903.84 524.167 2902.41C524.167 2900.97 525.647 2899.81 527.473 2899.81C529.298 2899.81 530.778 2900.97 530.778 2902.41" fill="white"/>
<path fill-rule="evenodd" clip-rule="evenodd" d="M563.834 2902.41C563.834 2903.84 562.354 2905.01 560.528 2905.01C558.703 2905.01 557.223 2903.84 557.223 2902.41C557.223 2900.97 558.703 2899.81 560.528 2899.81C562.354 2899.81 563.834 2900.97 563.834 2902.41" fill="white"/>
<path fill-rule="evenodd" clip-rule="evenodd" d="M596.888 2902.41C596.888 2903.84 595.408 2905.01 593.583 2905.01C591.757 2905.01 590.277 2903.84 590.277 2902.41C590.277 2900.97 591.757 2899.81 593.583 2899.81C595.408 2899.81 596.888 2900.97 596.888 2902.41" fill="white"/>
<path fill-rule="evenodd" clip-rule="evenodd" d="M629.944 2902.41C629.944 2903.84 628.464 2905.01 626.639 2905.01C624.813 2905.01 623.333 2903.84 623.333 2902.41C623.333 2900.97 624.813 2899.81 626.639 2899.81C628.464 2899.81 629.944 2900.97 629.944 2902.41" fill="white"/>
<path fill-rule="evenodd" clip-rule="evenodd" d="M663 2902.41C663 2903.84 661.52 2905.01 659.694 2905.01C657.869 2905.01 656.389 2903.84 656.389 2902.41C656.389 2900.97 657.869 2899.81 659.694 2899.81C661.52 2899.81 663 2900.97 663 2902.41" fill="white"/>
<path fill-rule="evenodd" clip-rule="evenodd" d="M431.611 2928.4C431.611 2929.84 430.131 2931 428.306 2931C426.48 2931 425 2929.84 425 2928.4C425 2926.97 426.48 2925.8 428.306 2925.8C430.131 2925.8 431.611 2926.97 431.611 2928.4" fill="white"/>
<path fill-rule="evenodd" clip-rule="evenodd" d="M464.667 2928.4C464.667 2929.84 463.187 2931 461.361 2931C459.536 2931 458.056 2929.84 458.056 2928.4C458.056 2926.97 459.536 2925.8 461.361 2925.8C463.187 2925.8 464.667 2926.97 464.667 2928.4" fill="white"/>
<path fill-rule="evenodd" clip-rule="evenodd" d="M497.722 2928.4C497.722 2929.84 496.242 2931 494.417 2931C492.591 2931 491.111 2929.84 491.111 2928.4C491.111 2926.97 492.591 2925.8 494.417 2925.8C496.242 2925.8 497.722 2926.97 497.722 2928.4" fill="white"/>
<path fill-rule="evenodd" clip-rule="evenodd" d="M530.778 2928.4C530.778 2929.84 529.298 2931 527.473 2931C525.647 2931 524.167 2929.84 524.167 2928.4C524.167 2926.97 525.647 2925.8 527.473 2925.8C529.298 2925.8 530.778 2926.97 530.778 2928.4" fill="white"/>
<path fill-rule="evenodd" clip-rule="evenodd" d="M563.834 2928.4C563.834 2929.84 562.354 2931 560.528 2931C558.703 2931 557.223 2929.84 557.223 2928.4C557.223 2926.97 558.703 2925.8 560.528 2925.8C562.354 2925.8 563.834 2926.97 563.834 2928.4" fill="white"/>
<path fill-rule="evenodd" clip-rule="evenodd" d="M596.888 2928.4C596.888 2929.84 595.408 2931 593.583 2931C591.757 2931 590.277 2929.84 590.277 2928.4C590.277 2926.97 591.757 2925.8 593.583 2925.8C595.408 2925.8 596.888 2926.97 596.888 2928.4" fill="white"/>
<path fill-rule="evenodd" clip-rule="evenodd" d="M629.944 2928.4C629.944 2929.84 628.464 2931 626.639 2931C624.813 2931 623.333 2929.84 623.333 2928.4C623.333 2926.97 624.813 2925.8 626.639 2925.8C628.464 2925.8 629.944 2926.97 629.944 2928.4" fill="white"/>
<path fill-rule="evenodd" clip-rule="evenodd" d="M663 2928.4C663 2929.84 661.52 2931 659.694 2931C657.869 2931 656.389 2929.84 656.389 2928.4C656.389 2926.97 657.869 2925.8 659.694 2925.8C661.52 2925.8 663 2926.97 663 2928.4" fill="white"/>
<rect width="499.876" height="499.876" rx="68" transform="matrix(0.707133 -0.707081 0.707133 0.707081 409 71.4531)" fill="#0094FF"/>
<path d="M0 7218C0 7219.1 0.895431 7220 2 7220H742C743.105 7220 744 7219.1 744 7218V6049.05C744 6048.08 743.308 6047.25 742.355 6047.08L75.3751 5926.61C36.1109 5919.52 0 5949.7 0 5989.59V7218Z" fill="#0094FF"/>
<rect width="349.55" height="349.55" rx="48" transform="matrix(-0.360839 0.932628 -0.360839 -0.932628 7.87915 7234)" fill="#0094FF"/>
<g clip-path="url(#clip1_2895_78218)">
<path d="M498.941 88.0003H490.844V70.7286H507.455C508.086 70.7429 508.706 70.5556 509.227 70.1932C509.747 69.833 510.179 69.3574 510.491 68.8025C510.794 68.2846 510.955 67.693 510.955 67.0902C510.955 66.4874 510.794 65.8958 510.491 65.3779C510.192 64.8126 509.757 64.3331 509.227 63.9835C508.704 63.6269 508.085 63.4413 507.455 63.4518H490.844V56.0151H507.455C509.901 56.0151 512.01 56.5729 513.739 57.707C515.384 58.7579 516.735 60.22 517.664 61.9533C518.525 63.5258 518.989 65.2898 519.016 67.0883C519.018 68.5149 518.738 69.9274 518.192 71.2417C517.629 72.6155 516.781 73.8496 515.705 74.8597C514.617 75.9403 513.327 76.7901 511.912 77.3596C510.497 77.929 508.984 78.2067 507.462 78.1764H498.941V88.0003V88.0003Z" fill="white"/>
<path d="M571.608 64.2294L567.221 56.0044L550.922 88.0007H559.374L571.608 64.2294Z" fill="white"/>
<path d="M574.844 70.543L568.278 82.9399H572.885L575.466 88.0006H583.995L574.844 70.543Z" fill="white"/>
<path d="M550.43 65.873C549.594 64.066 548.465 62.4144 547.09 60.9871C545.591 59.4661 543.825 58.2439 541.883 57.3841C539.768 56.4652 537.489 56.0018 535.189 56.0232H523.683V63.4598V70.8147H530.926V63.4449H535.189C536.277 63.425 537.357 63.6299 538.364 64.0474C539.371 64.4648 540.285 65.0859 541.048 65.873C541.881 66.6836 542.545 67.656 543 68.7324C543.444 69.7684 543.673 70.886 543.674 72.0157C543.668 73.1449 543.438 74.2614 543 75.299C542.541 76.3736 541.887 77.3502 541.07 78.177C540.313 78.934 539.414 79.5283 538.426 79.9246C537.396 80.3654 536.288 80.5844 535.171 80.5679H523.661V88.0046L535.189 87.9822C537.424 87.9751 539.635 87.5189 541.696 86.6399C543.655 85.8254 545.444 84.6391 546.966 83.1447C548.487 81.6601 549.694 79.8762 550.514 77.9018C551.302 76.0214 551.713 74 551.722 71.9562C551.738 69.8565 551.297 67.7792 550.43 65.873V65.873Z" fill="white"/>
</g>
<rect width="643.761" height="638.698" rx="64" transform="matrix(-0.706077 0.708135 -0.706077 -0.708135 188.515 11220.3)" fill="#0094FF"/>
<path fill-rule="evenodd" clip-rule="evenodd" d="M30.2044 11298.6C30.2044 11297.3 31.266 11296.2 32.5753 11296.2C33.8847 11296.2 34.9463 11297.3 34.9463 11298.6C34.9463 11299.9 33.8847 11300.9 32.5753 11300.9C31.266 11300.9 30.2044 11299.9 30.2044 11298.6" fill="white"/>
<path fill-rule="evenodd" clip-rule="evenodd" d="M6.49439 11298.6C6.49439 11297.3 7.55599 11296.2 8.86536 11296.2C10.1747 11296.2 11.2363 11297.3 11.2363 11298.6C11.2363 11299.9 10.1747 11300.9 8.86536 11300.9C7.55599 11300.9 6.49439 11299.9 6.49439 11298.6" fill="white"/>
<path fill-rule="evenodd" clip-rule="evenodd" d="M30.2044 11274.8C30.2044 11273.5 31.266 11272.5 32.5753 11272.5C33.8847 11272.5 34.9463 11273.5 34.9463 11274.8C34.9463 11276.1 33.8847 11277.2 32.5753 11277.2C31.266 11277.2 30.2044 11276.1 30.2044 11274.8" fill="white"/>
<path fill-rule="evenodd" clip-rule="evenodd" d="M6.49439 11274.8C6.49439 11273.5 7.55599 11272.5 8.86536 11272.5C10.1747 11272.5 11.2363 11273.5 11.2363 11274.8C11.2363 11276.1 10.1747 11277.2 8.86536 11277.2C7.55599 11277.2 6.49439 11276.1 6.49439 11274.8" fill="white"/>
<path fill-rule="evenodd" clip-rule="evenodd" d="M30.2044 11251.1C30.2044 11249.8 31.266 11248.7 32.5753 11248.7C33.8847 11248.7 34.9463 11249.8 34.9463 11251.1C34.9463 11252.4 33.8847 11253.5 32.5753 11253.5C31.266 11253.5 30.2044 11252.4 30.2044 11251.1" fill="white"/>
<path fill-rule="evenodd" clip-rule="evenodd" d="M6.49439 11251.1C6.49439 11249.8 7.55599 11248.7 8.86536 11248.7C10.1747 11248.7 11.2363 11249.8 11.2363 11251.1C11.2363 11252.4 10.1747 11253.5 8.86536 11253.5C7.55599 11253.5 6.49439 11252.4 6.49439 11251.1" fill="white"/>
<path fill-rule="evenodd" clip-rule="evenodd" d="M30.2044 11227.3C30.2044 11226 31.266 11225 32.5753 11225C33.8847 11225 34.9463 11226 34.9463 11227.3C34.9463 11228.7 33.8847 11229.7 32.5753 11229.7C31.266 11229.7 30.2044 11228.7 30.2044 11227.3" fill="white"/>
<path fill-rule="evenodd" clip-rule="evenodd" d="M6.49439 11227.3C6.49439 11226 7.55599 11225 8.86536 11225C10.1747 11225 11.2363 11226 11.2363 11227.3C11.2363 11228.7 10.1747 11229.7 8.86536 11229.7C7.55599 11229.7 6.49439 11228.7 6.49439 11227.3" fill="white"/>
<path fill-rule="evenodd" clip-rule="evenodd" d="M30.2044 11203.6C30.2044 11202.3 31.266 11201.2 32.5753 11201.2C33.8847 11201.2 34.9463 11202.3 34.9463 11203.6C34.9463 11204.9 33.8847 11206 32.5753 11206C31.266 11206 30.2044 11204.9 30.2044 11203.6" fill="white"/>
<path fill-rule="evenodd" clip-rule="evenodd" d="M6.49439 11203.6C6.49439 11202.3 7.55599 11201.2 8.86536 11201.2C10.1747 11201.2 11.2363 11202.3 11.2363 11203.6C11.2363 11204.9 10.1747 11206 8.86536 11206C7.55599 11206 6.49439 11204.9 6.49439 11203.6" fill="white"/>
<path fill-rule="evenodd" clip-rule="evenodd" d="M30.2044 11179.9C30.2044 11178.5 31.266 11177.5 32.5753 11177.5C33.8847 11177.5 34.9463 11178.5 34.9463 11179.9C34.9463 11181.2 33.8847 11182.2 32.5753 11182.2C31.266 11182.2 30.2044 11181.2 30.2044 11179.9" fill="white"/>
<path fill-rule="evenodd" clip-rule="evenodd" d="M6.49439 11179.9C6.49439 11178.5 7.55599 11177.5 8.86536 11177.5C10.1747 11177.5 11.2363 11178.5 11.2363 11179.9C11.2363 11181.2 10.1747 11182.2 8.86536 11182.2C7.55599 11182.2 6.49439 11181.2 6.49439 11179.9" fill="white"/>
<path fill-rule="evenodd" clip-rule="evenodd" d="M30.2044 11156.1C30.2044 11154.8 31.266 11153.7 32.5753 11153.7C33.8847 11153.7 34.9463 11154.8 34.9463 11156.1C34.9463 11157.4 33.8847 11158.5 32.5753 11158.5C31.266 11158.5 30.2044 11157.4 30.2044 11156.1" fill="white"/>
<path fill-rule="evenodd" clip-rule="evenodd" d="M6.49439 11156.1C6.49439 11154.8 7.55599 11153.7 8.86536 11153.7C10.1747 11153.7 11.2363 11154.8 11.2363 11156.1C11.2363 11157.4 10.1747 11158.5 8.86536 11158.5C7.55599 11158.5 6.49439 11157.4 6.49439 11156.1" fill="white"/>
<path fill-rule="evenodd" clip-rule="evenodd" d="M30.2044 11132.4C30.2044 11131.1 31.266 11130 32.5753 11130C33.8847 11130 34.9463 11131.1 34.9463 11132.4C34.9463 11133.7 33.8847 11134.7 32.5753 11134.7C31.266 11134.7 30.2044 11133.7 30.2044 11132.4" fill="white"/>
<path fill-rule="evenodd" clip-rule="evenodd" d="M6.49439 11132.4C6.49439 11131.1 7.55599 11130 8.86536 11130C10.1747 11130 11.2363 11131.1 11.2363 11132.4C11.2363 11133.7 10.1747 11134.7 8.86536 11134.7C7.55599 11134.7 6.49439 11133.7 6.49439 11132.4" fill="white"/>
</g>
<defs>
<clipPath id="clip0_2895_78218">
<rect width="744" height="13382" fill="white" transform="translate(0 -110)"/>
</clipPath>
<clipPath id="clip1_2895_78218">
<rect width="93.1556" height="32" fill="white" transform="translate(490.844 56)"/>
</clipPath>
</defs>
</svg>
