<svg width="375" height="7660" viewBox="0 0 375 7660" fill="none" xmlns="http://www.w3.org/2000/svg">
<g clip-path="url(#clip0_2895_77535)">
<rect width="375" height="11058" transform="translate(0 -85)" fill="white"/>
<rect width="510.869" height="510.869" rx="48" transform="matrix(0.707133 -0.707081 0.707133 0.707081 176.453 44.4531)" fill="#0094FF"/>
<rect width="355.147" height="352.354" rx="48" transform="matrix(-0.705239 0.70897 -0.705239 -0.70897 96.957 7553.81)" fill="#0094FF"/>
<path fill-rule="evenodd" clip-rule="evenodd" d="M36.4515 7600.16C36.4515 7599.43 37.0365 7598.85 37.758 7598.85C38.4795 7598.85 39.0645 7599.43 39.0645 7600.16C39.0645 7600.88 38.4795 7601.47 37.758 7601.47C37.0365 7601.47 36.4515 7600.88 36.4515 7600.16" fill="white"/>
<path fill-rule="evenodd" clip-rule="evenodd" d="M23.3871 7600.16C23.3871 7599.43 23.9721 7598.85 24.6935 7598.85C25.415 7598.85 26 7599.43 26 7600.16C26 7600.88 25.415 7601.47 24.6935 7601.47C23.9721 7601.47 23.3871 7600.88 23.3871 7600.16" fill="white"/>
<path fill-rule="evenodd" clip-rule="evenodd" d="M10.3224 7600.16C10.3224 7599.43 10.9074 7598.85 11.6289 7598.85C12.3503 7598.85 12.9353 7599.43 12.9353 7600.16C12.9353 7600.88 12.3503 7601.47 11.6289 7601.47C10.9074 7601.47 10.3224 7600.88 10.3224 7600.16" fill="white"/>
<path fill-rule="evenodd" clip-rule="evenodd" d="M36.4515 7587.04C36.4515 7586.32 37.0365 7585.73 37.758 7585.73C38.4795 7585.73 39.0645 7586.32 39.0645 7587.04C39.0645 7587.77 38.4795 7588.36 37.758 7588.36C37.0365 7588.36 36.4515 7587.77 36.4515 7587.04" fill="white"/>
<path fill-rule="evenodd" clip-rule="evenodd" d="M23.3871 7587.04C23.3871 7586.32 23.9721 7585.73 24.6935 7585.73C25.415 7585.73 26 7586.32 26 7587.04C26 7587.77 25.415 7588.36 24.6935 7588.36C23.9721 7588.36 23.3871 7587.77 23.3871 7587.04" fill="white"/>
<path fill-rule="evenodd" clip-rule="evenodd" d="M10.3224 7587.04C10.3224 7586.32 10.9074 7585.73 11.6289 7585.73C12.3503 7585.73 12.9353 7586.32 12.9353 7587.04C12.9353 7587.77 12.3503 7588.36 11.6289 7588.36C10.9074 7588.36 10.3224 7587.77 10.3224 7587.04" fill="white"/>
<path fill-rule="evenodd" clip-rule="evenodd" d="M36.4515 7573.93C36.4515 7573.21 37.0365 7572.62 37.758 7572.62C38.4795 7572.62 39.0645 7573.21 39.0645 7573.93C39.0645 7574.66 38.4795 7575.24 37.758 7575.24C37.0365 7575.24 36.4515 7574.66 36.4515 7573.93" fill="white"/>
<path fill-rule="evenodd" clip-rule="evenodd" d="M23.3871 7573.93C23.3871 7573.21 23.9721 7572.62 24.6935 7572.62C25.415 7572.62 26 7573.21 26 7573.93C26 7574.66 25.415 7575.24 24.6935 7575.24C23.9721 7575.24 23.3871 7574.66 23.3871 7573.93" fill="white"/>
<path fill-rule="evenodd" clip-rule="evenodd" d="M10.3224 7573.93C10.3224 7573.21 10.9074 7572.62 11.6289 7572.62C12.3503 7572.62 12.9353 7573.21 12.9353 7573.93C12.9353 7574.66 12.3503 7575.24 11.6289 7575.24C10.9074 7575.24 10.3224 7574.66 10.3224 7573.93" fill="white"/>
<path fill-rule="evenodd" clip-rule="evenodd" d="M36.4515 7560.82C36.4515 7560.09 37.0365 7559.51 37.758 7559.51C38.4795 7559.51 39.0645 7560.09 39.0645 7560.82C39.0645 7561.54 38.4795 7562.13 37.758 7562.13C37.0365 7562.13 36.4515 7561.54 36.4515 7560.82" fill="white"/>
<path fill-rule="evenodd" clip-rule="evenodd" d="M23.3871 7560.82C23.3871 7560.09 23.9721 7559.51 24.6935 7559.51C25.415 7559.51 26 7560.09 26 7560.82C26 7561.54 25.415 7562.13 24.6935 7562.13C23.9721 7562.13 23.3871 7561.54 23.3871 7560.82" fill="white"/>
<path fill-rule="evenodd" clip-rule="evenodd" d="M10.3224 7560.82C10.3224 7560.09 10.9074 7559.51 11.6289 7559.51C12.3503 7559.51 12.9353 7560.09 12.9353 7560.82C12.9353 7561.54 12.3503 7562.13 11.6289 7562.13C10.9074 7562.13 10.3224 7561.54 10.3224 7560.82" fill="white"/>
<path fill-rule="evenodd" clip-rule="evenodd" d="M36.4515 7547.7C36.4515 7546.98 37.0365 7546.39 37.758 7546.39C38.4795 7546.39 39.0645 7546.98 39.0645 7547.7C39.0645 7548.43 38.4795 7549.02 37.758 7549.02C37.0365 7549.02 36.4515 7548.43 36.4515 7547.7" fill="white"/>
<path fill-rule="evenodd" clip-rule="evenodd" d="M23.3871 7547.7C23.3871 7546.98 23.9721 7546.39 24.6935 7546.39C25.415 7546.39 26 7546.98 26 7547.7C26 7548.43 25.415 7549.02 24.6935 7549.02C23.9721 7549.02 23.3871 7548.43 23.3871 7547.7" fill="white"/>
<path fill-rule="evenodd" clip-rule="evenodd" d="M10.3224 7547.7C10.3224 7546.98 10.9074 7546.39 11.6289 7546.39C12.3503 7546.39 12.9353 7546.98 12.9353 7547.7C12.9353 7548.43 12.3503 7549.02 11.6289 7549.02C10.9074 7549.02 10.3224 7548.43 10.3224 7547.7" fill="white"/>
<path fill-rule="evenodd" clip-rule="evenodd" d="M36.4515 7534.59C36.4515 7533.87 37.0365 7533.28 37.758 7533.28C38.4795 7533.28 39.0645 7533.87 39.0645 7534.59C39.0645 7535.31 38.4795 7535.9 37.758 7535.9C37.0365 7535.9 36.4515 7535.31 36.4515 7534.59" fill="white"/>
<path fill-rule="evenodd" clip-rule="evenodd" d="M23.3871 7534.59C23.3871 7533.87 23.9721 7533.28 24.6935 7533.28C25.415 7533.28 26 7533.87 26 7534.59C26 7535.31 25.415 7535.9 24.6935 7535.9C23.9721 7535.9 23.3871 7535.31 23.3871 7534.59" fill="white"/>
<path fill-rule="evenodd" clip-rule="evenodd" d="M10.3224 7534.59C10.3224 7533.87 10.9074 7533.28 11.6289 7533.28C12.3503 7533.28 12.9353 7533.87 12.9353 7534.59C12.9353 7535.31 12.3503 7535.9 11.6289 7535.9C10.9074 7535.9 10.3224 7535.31 10.3224 7534.59" fill="white"/>
<path fill-rule="evenodd" clip-rule="evenodd" d="M36.4515 7521.48C36.4515 7520.75 37.0365 7520.17 37.758 7520.17C38.4795 7520.17 39.0645 7520.75 39.0645 7521.48C39.0645 7522.2 38.4795 7522.79 37.758 7522.79C37.0365 7522.79 36.4515 7522.2 36.4515 7521.48" fill="white"/>
<path fill-rule="evenodd" clip-rule="evenodd" d="M23.3871 7521.48C23.3871 7520.75 23.9721 7520.17 24.6935 7520.17C25.415 7520.17 26 7520.75 26 7521.48C26 7522.2 25.415 7522.79 24.6935 7522.79C23.9721 7522.79 23.3871 7522.2 23.3871 7521.48" fill="white"/>
<path fill-rule="evenodd" clip-rule="evenodd" d="M10.3224 7521.48C10.3224 7520.75 10.9074 7520.17 11.6289 7520.17C12.3503 7520.17 12.9353 7520.75 12.9353 7521.48C12.9353 7522.2 12.3503 7522.79 11.6289 7522.79C10.9074 7522.79 10.3224 7522.2 10.3224 7521.48" fill="white"/>
<path fill-rule="evenodd" clip-rule="evenodd" d="M36.4515 7508.36C36.4515 7507.64 37.0365 7507.05 37.758 7507.05C38.4795 7507.05 39.0645 7507.64 39.0645 7508.36C39.0645 7509.09 38.4795 7509.68 37.758 7509.68C37.0365 7509.68 36.4515 7509.09 36.4515 7508.36" fill="white"/>
<path fill-rule="evenodd" clip-rule="evenodd" d="M23.3871 7508.36C23.3871 7507.64 23.9721 7507.05 24.6935 7507.05C25.415 7507.05 26 7507.64 26 7508.36C26 7509.09 25.415 7509.68 24.6935 7509.68C23.9721 7509.68 23.3871 7509.09 23.3871 7508.36" fill="white"/>
<path fill-rule="evenodd" clip-rule="evenodd" d="M10.3224 7508.36C10.3224 7507.64 10.9074 7507.05 11.6289 7507.05C12.3503 7507.05 12.9353 7507.64 12.9353 7508.36C12.9353 7509.09 12.3503 7509.68 11.6289 7509.68C10.9074 7509.68 10.3224 7509.09 10.3224 7508.36" fill="white"/>
<path d="M234.098 53H229.5V42.2002H238.934C239.293 42.2091 239.645 42.092 239.941 41.8654C240.236 41.6402 240.481 41.3428 240.658 40.9958C240.831 40.672 240.922 40.302 240.922 39.9251C240.922 39.5482 240.831 39.1783 240.658 38.8544C240.488 38.501 240.242 38.2011 239.941 37.9826C239.643 37.7596 239.292 37.6435 238.934 37.6501H229.5V33H238.934C240.323 33 241.521 33.3488 242.503 34.0579C243.437 34.715 244.205 35.6293 244.733 36.7131C245.221 37.6964 245.485 38.7993 245.5 39.924C245.501 40.816 245.342 41.6992 245.032 42.521C244.713 43.38 244.231 44.1517 243.62 44.7833C243.002 45.459 242.269 45.9904 241.466 46.3465C240.662 46.7025 239.803 46.8762 238.938 46.8572H234.098V53V53Z" fill="white"/>
<path d="M278.678 42L274.5 49.8113H277.431L279.074 53H284.5L278.678 42Z" fill="white"/>
<path d="M264.717 39.1601C264.21 38.03 263.526 36.9972 262.693 36.1047C261.786 35.1535 260.716 34.3892 259.539 33.8515C258.258 33.2769 256.877 32.9871 255.484 33.0004H248.513V37.651V42.2503H252.901V37.6417H255.484C256.143 37.6292 256.797 37.7573 257.407 38.0184C258.017 38.2794 258.571 38.6678 259.033 39.1601C259.538 39.667 259.94 40.2751 260.215 40.9482C260.484 41.596 260.623 42.2949 260.624 43.0014C260.62 43.7075 260.481 44.4057 260.215 45.0546C259.938 45.7266 259.541 46.3373 259.046 46.8543C258.588 47.3277 258.043 47.6994 257.445 47.9472C256.821 48.2228 256.149 48.3598 255.472 48.3495H248.5V53L255.484 52.986C256.838 52.9816 258.177 52.6963 259.426 52.1466C260.613 51.6372 261.696 50.8954 262.618 49.9609C263.54 49.0325 264.271 47.9169 264.768 46.6823C265.245 45.5063 265.494 44.2423 265.5 42.9642C265.509 41.6511 265.242 40.3521 264.717 39.1601V39.1601Z" fill="white"/>

<path d="M276.5 38.1412L273.955 33L264.5 53H269.403L276.5 38.1412Z" fill="white"/>
<path d="M1 1617.32H327C353.51 1617.32 375 1638.81 375 1665.32V2702.98C375 2729.49 353.51 2750.98 327 2750.98H1V1617.32Z" fill="#0094FF"/>
<path d="M0 5604C0 5605.1 0.895431 5606 2 5606H663C664.105 5606 665 5605.1 665 5604V4697.06C665 4696.08 664.283 4695.24 663.31 4695.09L73.9215 4602.6C35.0944 4596.51 0 4626.52 0 4665.83V5604Z" fill="#0094FF"/>
<g filter="url(#filter0_d_2895_77535)">
<rect width="375" height="88" transform="translate(0 -87.8818)" fill="white"/>
</g>
</g>
<defs>
<filter id="filter0_d_2895_77535" x="0" y="-87.8818" width="375" height="88.5" filterUnits="userSpaceOnUse" color-interpolation-filters="sRGB">
<feFlood flood-opacity="0" result="BackgroundImageFix"/>
<feColorMatrix in="SourceAlpha" type="matrix" values="0 0 0 0 0 0 0 0 0 0 0 0 0 0 0 0 0 0 127 0" result="hardAlpha"/>
<feOffset dy="0.5"/>
<feComposite in2="hardAlpha" operator="out"/>
<feColorMatrix type="matrix" values="0 0 0 0 0 0 0 0 0 0 0 0 0 0 0 0 0 0 0.3 0"/>
<feBlend mode="normal" in2="BackgroundImageFix" result="effect1_dropShadow_2895_77535"/>
<feBlend mode="normal" in="SourceGraphic" in2="effect1_dropShadow_2895_77535" result="shape"/>
</filter>
<clipPath id="clip0_2895_77535">
<rect width="375" height="11058" fill="white" transform="translate(0 -85)"/>
</clipPath>
</defs>
</svg>
