<svg width="499" height="976" viewBox="0 0 499 976" fill="none" xmlns="http://www.w3.org/2000/svg">
<circle cx="488" cy="488" r="488" fill="#0094FF"/>
<path fill-rule="evenodd" clip-rule="evenodd" d="M93.3889 167.694C93.3889 169.735 91.7347 171.389 89.6944 171.389C87.6542 171.389 86 169.735 86 167.694C86 165.654 87.6542 164 89.6944 164C91.7347 164 93.3889 165.654 93.3889 167.694" fill="white"/>
<path fill-rule="evenodd" clip-rule="evenodd" d="M130.333 167.694C130.333 169.735 128.679 171.389 126.639 171.389C124.599 171.389 122.944 169.735 122.944 167.694C122.944 165.654 124.599 164 126.639 164C128.679 164 130.333 165.654 130.333 167.694" fill="white"/>
<path fill-rule="evenodd" clip-rule="evenodd" d="M167.278 167.694C167.278 169.735 165.623 171.389 163.583 171.389C161.543 171.389 159.889 169.735 159.889 167.694C159.889 165.654 161.543 164 163.583 164C165.623 164 167.278 165.654 167.278 167.694" fill="white"/>
<path fill-rule="evenodd" clip-rule="evenodd" d="M204.222 167.694C204.222 169.735 202.568 171.389 200.527 171.389C198.487 171.389 196.833 169.735 196.833 167.694C196.833 165.654 198.487 164 200.527 164C202.568 164 204.222 165.654 204.222 167.694" fill="white"/>
<path fill-rule="evenodd" clip-rule="evenodd" d="M241.166 167.694C241.166 169.735 239.512 171.389 237.472 171.389C235.432 171.389 233.777 169.735 233.777 167.694C233.777 165.654 235.432 164 237.472 164C239.512 164 241.166 165.654 241.166 167.694" fill="white"/>
<path fill-rule="evenodd" clip-rule="evenodd" d="M278.112 167.694C278.112 169.735 276.457 171.389 274.417 171.389C272.377 171.389 270.723 169.735 270.723 167.694C270.723 165.654 272.377 164 274.417 164C276.457 164 278.112 165.654 278.112 167.694" fill="white"/>
<path fill-rule="evenodd" clip-rule="evenodd" d="M315.056 167.694C315.056 169.735 313.402 171.389 311.361 171.389C309.321 171.389 307.667 169.735 307.667 167.694C307.667 165.654 309.321 164 311.361 164C313.402 164 315.056 165.654 315.056 167.694" fill="white"/>
<path fill-rule="evenodd" clip-rule="evenodd" d="M352 167.694C352 169.735 350.346 171.389 348.306 171.389C346.266 171.389 344.611 169.735 344.611 167.694C344.611 165.654 346.266 164 348.306 164C350.346 164 352 165.654 352 167.694" fill="white"/>
<path fill-rule="evenodd" clip-rule="evenodd" d="M93.3889 204.639C93.3889 206.679 91.7347 208.333 89.6944 208.333C87.6542 208.333 86 206.679 86 204.639C86 202.599 87.6542 200.944 89.6944 200.944C91.7347 200.944 93.3889 202.599 93.3889 204.639" fill="white"/>
<path fill-rule="evenodd" clip-rule="evenodd" d="M130.333 204.639C130.333 206.679 128.679 208.333 126.639 208.333C124.599 208.333 122.944 206.679 122.944 204.639C122.944 202.599 124.599 200.944 126.639 200.944C128.679 200.944 130.333 202.599 130.333 204.639" fill="white"/>
<path fill-rule="evenodd" clip-rule="evenodd" d="M167.278 204.639C167.278 206.679 165.623 208.333 163.583 208.333C161.543 208.333 159.889 206.679 159.889 204.639C159.889 202.599 161.543 200.944 163.583 200.944C165.623 200.944 167.278 202.599 167.278 204.639" fill="white"/>
<path fill-rule="evenodd" clip-rule="evenodd" d="M204.222 204.639C204.222 206.679 202.568 208.333 200.527 208.333C198.487 208.333 196.833 206.679 196.833 204.639C196.833 202.599 198.487 200.944 200.527 200.944C202.568 200.944 204.222 202.599 204.222 204.639" fill="white"/>
<path fill-rule="evenodd" clip-rule="evenodd" d="M241.166 204.639C241.166 206.679 239.512 208.333 237.472 208.333C235.432 208.333 233.777 206.679 233.777 204.639C233.777 202.599 235.432 200.944 237.472 200.944C239.512 200.944 241.166 202.599 241.166 204.639" fill="white"/>
<path fill-rule="evenodd" clip-rule="evenodd" d="M278.112 204.639C278.112 206.679 276.457 208.333 274.417 208.333C272.377 208.333 270.723 206.679 270.723 204.639C270.723 202.599 272.377 200.944 274.417 200.944C276.457 200.944 278.112 202.599 278.112 204.639" fill="white"/>
<path fill-rule="evenodd" clip-rule="evenodd" d="M315.056 204.639C315.056 206.679 313.402 208.333 311.361 208.333C309.321 208.333 307.667 206.679 307.667 204.639C307.667 202.599 309.321 200.944 311.361 200.944C313.402 200.944 315.056 202.599 315.056 204.639" fill="white"/>
<path fill-rule="evenodd" clip-rule="evenodd" d="M352 204.639C352 206.679 350.346 208.333 348.306 208.333C346.266 208.333 344.611 206.679 344.611 204.639C344.611 202.599 346.266 200.944 348.306 200.944C350.346 200.944 352 202.599 352 204.639" fill="white"/>
<path fill-rule="evenodd" clip-rule="evenodd" d="M93.3889 241.583C93.3889 243.624 91.7347 245.278 89.6944 245.278C87.6542 245.278 86 243.624 86 241.583C86 239.543 87.6542 237.889 89.6944 237.889C91.7347 237.889 93.3889 239.543 93.3889 241.583" fill="white"/>
<path fill-rule="evenodd" clip-rule="evenodd" d="M130.333 241.583C130.333 243.624 128.679 245.278 126.639 245.278C124.599 245.278 122.944 243.624 122.944 241.583C122.944 239.543 124.599 237.889 126.639 237.889C128.679 237.889 130.333 239.543 130.333 241.583" fill="white"/>
<path fill-rule="evenodd" clip-rule="evenodd" d="M167.278 241.583C167.278 243.624 165.623 245.278 163.583 245.278C161.543 245.278 159.889 243.624 159.889 241.583C159.889 239.543 161.543 237.889 163.583 237.889C165.623 237.889 167.278 239.543 167.278 241.583" fill="white"/>
<path fill-rule="evenodd" clip-rule="evenodd" d="M204.222 241.583C204.222 243.624 202.568 245.278 200.527 245.278C198.487 245.278 196.833 243.624 196.833 241.583C196.833 239.543 198.487 237.889 200.527 237.889C202.568 237.889 204.222 239.543 204.222 241.583" fill="white"/>
<path fill-rule="evenodd" clip-rule="evenodd" d="M241.166 241.583C241.166 243.624 239.512 245.278 237.472 245.278C235.432 245.278 233.777 243.624 233.777 241.583C233.777 239.543 235.432 237.889 237.472 237.889C239.512 237.889 241.166 239.543 241.166 241.583" fill="white"/>
<path fill-rule="evenodd" clip-rule="evenodd" d="M278.112 241.583C278.112 243.624 276.457 245.278 274.417 245.278C272.377 245.278 270.723 243.624 270.723 241.583C270.723 239.543 272.377 237.889 274.417 237.889C276.457 237.889 278.112 239.543 278.112 241.583" fill="white"/>
<path fill-rule="evenodd" clip-rule="evenodd" d="M315.056 241.583C315.056 243.624 313.402 245.278 311.361 245.278C309.321 245.278 307.667 243.624 307.667 241.583C307.667 239.543 309.321 237.889 311.361 237.889C313.402 237.889 315.056 239.543 315.056 241.583" fill="white"/>
<path fill-rule="evenodd" clip-rule="evenodd" d="M352 241.583C352 243.624 350.346 245.278 348.306 245.278C346.266 245.278 344.611 243.624 344.611 241.583C344.611 239.543 346.266 237.889 348.306 237.889C350.346 237.889 352 239.543 352 241.583" fill="white"/>
<path fill-rule="evenodd" clip-rule="evenodd" d="M93.3889 278.528C93.3889 280.568 91.7347 282.222 89.6944 282.222C87.6542 282.222 86 280.568 86 278.528C86 276.488 87.6542 274.833 89.6944 274.833C91.7347 274.833 93.3889 276.488 93.3889 278.528" fill="white"/>
<path fill-rule="evenodd" clip-rule="evenodd" d="M130.333 278.528C130.333 280.568 128.679 282.222 126.639 282.222C124.599 282.222 122.944 280.568 122.944 278.528C122.944 276.488 124.599 274.833 126.639 274.833C128.679 274.833 130.333 276.488 130.333 278.528" fill="white"/>
<path fill-rule="evenodd" clip-rule="evenodd" d="M167.278 278.528C167.278 280.568 165.623 282.222 163.583 282.222C161.543 282.222 159.889 280.568 159.889 278.528C159.889 276.488 161.543 274.833 163.583 274.833C165.623 274.833 167.278 276.488 167.278 278.528" fill="white"/>
<path fill-rule="evenodd" clip-rule="evenodd" d="M204.222 278.528C204.222 280.568 202.568 282.222 200.527 282.222C198.487 282.222 196.833 280.568 196.833 278.528C196.833 276.488 198.487 274.833 200.527 274.833C202.568 274.833 204.222 276.488 204.222 278.528" fill="white"/>
<path fill-rule="evenodd" clip-rule="evenodd" d="M241.166 278.528C241.166 280.568 239.512 282.222 237.472 282.222C235.432 282.222 233.777 280.568 233.777 278.528C233.777 276.488 235.432 274.833 237.472 274.833C239.512 274.833 241.166 276.488 241.166 278.528" fill="white"/>
<path fill-rule="evenodd" clip-rule="evenodd" d="M278.112 278.528C278.112 280.568 276.457 282.222 274.417 282.222C272.377 282.222 270.723 280.568 270.723 278.528C270.723 276.488 272.377 274.833 274.417 274.833C276.457 274.833 278.112 276.488 278.112 278.528" fill="white"/>
<path fill-rule="evenodd" clip-rule="evenodd" d="M315.056 278.528C315.056 280.568 313.402 282.222 311.361 282.222C309.321 282.222 307.667 280.568 307.667 278.528C307.667 276.488 309.321 274.833 311.361 274.833C313.402 274.833 315.056 276.488 315.056 278.528" fill="white"/>
<path fill-rule="evenodd" clip-rule="evenodd" d="M352 278.528C352 280.568 350.346 282.222 348.306 282.222C346.266 282.222 344.611 280.568 344.611 278.528C344.611 276.488 346.266 274.833 348.306 274.833C350.346 274.833 352 276.488 352 278.528" fill="white"/>
<path fill-rule="evenodd" clip-rule="evenodd" d="M93.3889 315.472C93.3889 317.513 91.7347 319.167 89.6944 319.167C87.6542 319.167 86 317.513 86 315.472C86 313.432 87.6542 311.778 89.6944 311.778C91.7347 311.778 93.3889 313.432 93.3889 315.472" fill="white"/>
<path fill-rule="evenodd" clip-rule="evenodd" d="M130.333 315.472C130.333 317.513 128.679 319.167 126.639 319.167C124.599 319.167 122.944 317.513 122.944 315.472C122.944 313.432 124.599 311.778 126.639 311.778C128.679 311.778 130.333 313.432 130.333 315.472" fill="white"/>
<path fill-rule="evenodd" clip-rule="evenodd" d="M167.278 315.472C167.278 317.513 165.623 319.167 163.583 319.167C161.543 319.167 159.889 317.513 159.889 315.472C159.889 313.432 161.543 311.778 163.583 311.778C165.623 311.778 167.278 313.432 167.278 315.472" fill="white"/>
<path fill-rule="evenodd" clip-rule="evenodd" d="M204.222 315.472C204.222 317.513 202.568 319.167 200.527 319.167C198.487 319.167 196.833 317.513 196.833 315.472C196.833 313.432 198.487 311.778 200.527 311.778C202.568 311.778 204.222 313.432 204.222 315.472" fill="white"/>
<path fill-rule="evenodd" clip-rule="evenodd" d="M241.166 315.472C241.166 317.513 239.512 319.167 237.472 319.167C235.432 319.167 233.777 317.513 233.777 315.472C233.777 313.432 235.432 311.778 237.472 311.778C239.512 311.778 241.166 313.432 241.166 315.472" fill="white"/>
<path fill-rule="evenodd" clip-rule="evenodd" d="M278.112 315.472C278.112 317.513 276.457 319.167 274.417 319.167C272.377 319.167 270.723 317.513 270.723 315.472C270.723 313.432 272.377 311.778 274.417 311.778C276.457 311.778 278.112 313.432 278.112 315.472" fill="white"/>
<path fill-rule="evenodd" clip-rule="evenodd" d="M315.056 315.472C315.056 317.513 313.402 319.167 311.361 319.167C309.321 319.167 307.667 317.513 307.667 315.472C307.667 313.432 309.321 311.778 311.361 311.778C313.402 311.778 315.056 313.432 315.056 315.472" fill="white"/>
<path fill-rule="evenodd" clip-rule="evenodd" d="M352 315.472C352 317.513 350.346 319.167 348.306 319.167C346.266 319.167 344.611 317.513 344.611 315.472C344.611 313.432 346.266 311.778 348.306 311.778C350.346 311.778 352 313.432 352 315.472" fill="white"/>
<path fill-rule="evenodd" clip-rule="evenodd" d="M93.3889 352.417C93.3889 354.457 91.7347 356.111 89.6944 356.111C87.6542 356.111 86 354.457 86 352.417C86 350.376 87.6542 348.722 89.6944 348.722C91.7347 348.722 93.3889 350.376 93.3889 352.417" fill="white"/>
<path fill-rule="evenodd" clip-rule="evenodd" d="M130.333 352.417C130.333 354.457 128.679 356.111 126.639 356.111C124.599 356.111 122.944 354.457 122.944 352.417C122.944 350.376 124.599 348.722 126.639 348.722C128.679 348.722 130.333 350.376 130.333 352.417" fill="white"/>
<path fill-rule="evenodd" clip-rule="evenodd" d="M167.278 352.417C167.278 354.457 165.623 356.111 163.583 356.111C161.543 356.111 159.889 354.457 159.889 352.417C159.889 350.376 161.543 348.722 163.583 348.722C165.623 348.722 167.278 350.376 167.278 352.417" fill="white"/>
<path fill-rule="evenodd" clip-rule="evenodd" d="M204.222 352.417C204.222 354.457 202.568 356.111 200.527 356.111C198.487 356.111 196.833 354.457 196.833 352.417C196.833 350.376 198.487 348.722 200.527 348.722C202.568 348.722 204.222 350.376 204.222 352.417" fill="white"/>
<path fill-rule="evenodd" clip-rule="evenodd" d="M241.166 352.417C241.166 354.457 239.512 356.111 237.472 356.111C235.432 356.111 233.777 354.457 233.777 352.417C233.777 350.376 235.432 348.722 237.472 348.722C239.512 348.722 241.166 350.376 241.166 352.417" fill="white"/>
<path fill-rule="evenodd" clip-rule="evenodd" d="M278.112 352.417C278.112 354.457 276.457 356.111 274.417 356.111C272.377 356.111 270.723 354.457 270.723 352.417C270.723 350.376 272.377 348.722 274.417 348.722C276.457 348.722 278.112 350.376 278.112 352.417" fill="white"/>
<path fill-rule="evenodd" clip-rule="evenodd" d="M315.056 352.417C315.056 354.457 313.402 356.111 311.361 356.111C309.321 356.111 307.667 354.457 307.667 352.417C307.667 350.376 309.321 348.722 311.361 348.722C313.402 348.722 315.056 350.376 315.056 352.417" fill="white"/>
<path fill-rule="evenodd" clip-rule="evenodd" d="M352 352.417C352 354.457 350.346 356.111 348.306 356.111C346.266 356.111 344.611 354.457 344.611 352.417C344.611 350.376 346.266 348.722 348.306 348.722C350.346 348.722 352 350.376 352 352.417" fill="white"/>
<path fill-rule="evenodd" clip-rule="evenodd" d="M93.3889 389.361C93.3889 391.401 91.7347 393.056 89.6944 393.056C87.6542 393.056 86 391.401 86 389.361C86 387.321 87.6542 385.667 89.6944 385.667C91.7347 385.667 93.3889 387.321 93.3889 389.361" fill="white"/>
<path fill-rule="evenodd" clip-rule="evenodd" d="M130.333 389.361C130.333 391.401 128.679 393.056 126.639 393.056C124.599 393.056 122.944 391.401 122.944 389.361C122.944 387.321 124.599 385.667 126.639 385.667C128.679 385.667 130.333 387.321 130.333 389.361" fill="white"/>
<path fill-rule="evenodd" clip-rule="evenodd" d="M167.278 389.361C167.278 391.401 165.623 393.056 163.583 393.056C161.543 393.056 159.889 391.401 159.889 389.361C159.889 387.321 161.543 385.667 163.583 385.667C165.623 385.667 167.278 387.321 167.278 389.361" fill="white"/>
<path fill-rule="evenodd" clip-rule="evenodd" d="M204.222 389.361C204.222 391.401 202.568 393.056 200.527 393.056C198.487 393.056 196.833 391.401 196.833 389.361C196.833 387.321 198.487 385.667 200.527 385.667C202.568 385.667 204.222 387.321 204.222 389.361" fill="white"/>
<path fill-rule="evenodd" clip-rule="evenodd" d="M241.166 389.361C241.166 391.401 239.512 393.056 237.472 393.056C235.432 393.056 233.777 391.401 233.777 389.361C233.777 387.321 235.432 385.667 237.472 385.667C239.512 385.667 241.166 387.321 241.166 389.361" fill="white"/>
<path fill-rule="evenodd" clip-rule="evenodd" d="M278.112 389.361C278.112 391.401 276.457 393.056 274.417 393.056C272.377 393.056 270.723 391.401 270.723 389.361C270.723 387.321 272.377 385.667 274.417 385.667C276.457 385.667 278.112 387.321 278.112 389.361" fill="white"/>
<path fill-rule="evenodd" clip-rule="evenodd" d="M315.056 389.361C315.056 391.401 313.402 393.056 311.361 393.056C309.321 393.056 307.667 391.401 307.667 389.361C307.667 387.321 309.321 385.667 311.361 385.667C313.402 385.667 315.056 387.321 315.056 389.361" fill="white"/>
<path fill-rule="evenodd" clip-rule="evenodd" d="M352 389.361C352 391.401 350.346 393.056 348.306 393.056C346.266 393.056 344.611 391.401 344.611 389.361C344.611 387.321 346.266 385.667 348.306 385.667C350.346 385.667 352 387.321 352 389.361" fill="white"/>
<path fill-rule="evenodd" clip-rule="evenodd" d="M93.3889 426.306C93.3889 428.346 91.7347 430 89.6944 430C87.6542 430 86 428.346 86 426.306C86 424.265 87.6542 422.611 89.6944 422.611C91.7347 422.611 93.3889 424.265 93.3889 426.306" fill="white"/>
<path fill-rule="evenodd" clip-rule="evenodd" d="M130.333 426.306C130.333 428.346 128.679 430 126.639 430C124.599 430 122.944 428.346 122.944 426.306C122.944 424.265 124.599 422.611 126.639 422.611C128.679 422.611 130.333 424.265 130.333 426.306" fill="white"/>
<path fill-rule="evenodd" clip-rule="evenodd" d="M167.278 426.306C167.278 428.346 165.623 430 163.583 430C161.543 430 159.889 428.346 159.889 426.306C159.889 424.265 161.543 422.611 163.583 422.611C165.623 422.611 167.278 424.265 167.278 426.306" fill="white"/>
<path fill-rule="evenodd" clip-rule="evenodd" d="M204.222 426.306C204.222 428.346 202.568 430 200.527 430C198.487 430 196.833 428.346 196.833 426.306C196.833 424.265 198.487 422.611 200.527 422.611C202.568 422.611 204.222 424.265 204.222 426.306" fill="white"/>
<path fill-rule="evenodd" clip-rule="evenodd" d="M241.166 426.306C241.166 428.346 239.512 430 237.472 430C235.432 430 233.777 428.346 233.777 426.306C233.777 424.265 235.432 422.611 237.472 422.611C239.512 422.611 241.166 424.265 241.166 426.306" fill="white"/>
<path fill-rule="evenodd" clip-rule="evenodd" d="M278.112 426.306C278.112 428.346 276.457 430 274.417 430C272.377 430 270.723 428.346 270.723 426.306C270.723 424.265 272.377 422.611 274.417 422.611C276.457 422.611 278.112 424.265 278.112 426.306" fill="white"/>
<path fill-rule="evenodd" clip-rule="evenodd" d="M315.056 426.306C315.056 428.346 313.402 430 311.361 430C309.321 430 307.667 428.346 307.667 426.306C307.667 424.265 309.321 422.611 311.361 422.611C313.402 422.611 315.056 424.265 315.056 426.306" fill="white"/>
<path fill-rule="evenodd" clip-rule="evenodd" d="M352 426.306C352 428.346 350.346 430 348.306 430C346.266 430 344.611 428.346 344.611 426.306C344.611 424.265 346.266 422.611 348.306 422.611C350.346 422.611 352 424.265 352 426.306" fill="white"/>
</svg>
