<svg width="325" height="652" viewBox="0 0 325 652" fill="none" xmlns="http://www.w3.org/2000/svg">
<rect width="460.68" height="460.68" rx="48" transform="matrix(-0.706564 0.707649 -0.706564 -0.707649 325 326)" fill="#0094FF"/>
<path fill-rule="evenodd" clip-rule="evenodd" d="M128 483.5C128 481.015 130.015 479 132.5 479C134.985 479 137 481.015 137 483.5C137 485.985 134.985 488 132.5 488C130.015 488 128 485.985 128 483.5" fill="white"/>
<path fill-rule="evenodd" clip-rule="evenodd" d="M83 483.5C83 481.015 85.0149 479 87.5 479C89.9851 479 92 481.015 92 483.5C92 485.985 89.9851 488 87.5 488C85.0149 488 83 485.985 83 483.5" fill="white"/>
<path fill-rule="evenodd" clip-rule="evenodd" d="M38 483.5C38 481.015 40.0149 479 42.5 479C44.9851 479 47 481.015 47 483.5C47 485.985 44.9851 488 42.5 488C40.0149 488 38 485.985 38 483.5" fill="white"/>
<path fill-rule="evenodd" clip-rule="evenodd" d="M-7 483.5C-7 481.015 -4.98512 479 -2.5 479C-0.0148743 479 2 481.015 2 483.5C2 485.985 -0.0148743 488 -2.5 488C-4.98512 488 -7 485.985 -7 483.5" fill="white"/>
<path fill-rule="evenodd" clip-rule="evenodd" d="M128 438.5C128 436.015 130.015 434 132.5 434C134.985 434 137 436.015 137 438.5C137 440.985 134.985 443 132.5 443C130.015 443 128 440.985 128 438.5" fill="white"/>
<path fill-rule="evenodd" clip-rule="evenodd" d="M83 438.5C83 436.015 85.0149 434 87.5 434C89.9851 434 92 436.015 92 438.5C92 440.985 89.9851 443 87.5 443C85.0149 443 83 440.985 83 438.5" fill="white"/>
<path fill-rule="evenodd" clip-rule="evenodd" d="M38 438.5C38 436.015 40.0149 434 42.5 434C44.9851 434 47 436.015 47 438.5C47 440.985 44.9851 443 42.5 443C40.0149 443 38 440.985 38 438.5" fill="white"/>
<path fill-rule="evenodd" clip-rule="evenodd" d="M-7 438.5C-7 436.015 -4.98512 434 -2.5 434C-0.0148743 434 2 436.015 2 438.5C2 440.985 -0.0148743 443 -2.5 443C-4.98512 443 -7 440.985 -7 438.5" fill="white"/>
<path fill-rule="evenodd" clip-rule="evenodd" d="M128 393.5C128 391.015 130.015 389 132.5 389C134.985 389 137 391.015 137 393.5C137 395.985 134.985 398 132.5 398C130.015 398 128 395.985 128 393.5" fill="white"/>
<path fill-rule="evenodd" clip-rule="evenodd" d="M83 393.5C83 391.015 85.0149 389 87.5 389C89.9851 389 92 391.015 92 393.5C92 395.985 89.9851 398 87.5 398C85.0149 398 83 395.985 83 393.5" fill="white"/>
<path fill-rule="evenodd" clip-rule="evenodd" d="M38 393.5C38 391.015 40.0149 389 42.5 389C44.9851 389 47 391.015 47 393.5C47 395.985 44.9851 398 42.5 398C40.0149 398 38 395.985 38 393.5" fill="white"/>
<path fill-rule="evenodd" clip-rule="evenodd" d="M-7 393.5C-7 391.015 -4.98512 389 -2.5 389C-0.0148743 389 2 391.015 2 393.5C2 395.985 -0.0148743 398 -2.5 398C-4.98512 398 -7 395.985 -7 393.5" fill="white"/>
<path fill-rule="evenodd" clip-rule="evenodd" d="M128 348.5C128 346.015 130.015 344 132.5 344C134.985 344 137 346.015 137 348.5C137 350.985 134.985 353 132.5 353C130.015 353 128 350.985 128 348.5" fill="white"/>
<path fill-rule="evenodd" clip-rule="evenodd" d="M83 348.5C83 346.015 85.0149 344 87.5 344C89.9851 344 92 346.015 92 348.5C92 350.985 89.9851 353 87.5 353C85.0149 353 83 350.985 83 348.5" fill="white"/>
<path fill-rule="evenodd" clip-rule="evenodd" d="M38 348.5C38 346.015 40.0149 344 42.5 344C44.9851 344 47 346.015 47 348.5C47 350.985 44.9851 353 42.5 353C40.0149 353 38 350.985 38 348.5" fill="white"/>
<path fill-rule="evenodd" clip-rule="evenodd" d="M-7 348.5C-7 346.015 -4.98512 344 -2.5 344C-0.0148743 344 2 346.015 2 348.5C2 350.985 -0.0148743 353 -2.5 353C-4.98512 353 -7 350.985 -7 348.5" fill="white"/>
<path fill-rule="evenodd" clip-rule="evenodd" d="M128 303.5C128 301.015 130.015 299 132.5 299C134.985 299 137 301.015 137 303.5C137 305.985 134.985 308 132.5 308C130.015 308 128 305.985 128 303.5" fill="white"/>
<path fill-rule="evenodd" clip-rule="evenodd" d="M83 303.5C83 301.015 85.0149 299 87.5 299C89.9851 299 92 301.015 92 303.5C92 305.985 89.9851 308 87.5 308C85.0149 308 83 305.985 83 303.5" fill="white"/>
<path fill-rule="evenodd" clip-rule="evenodd" d="M38 303.5C38 301.015 40.0149 299 42.5 299C44.9851 299 47 301.015 47 303.5C47 305.985 44.9851 308 42.5 308C40.0149 308 38 305.985 38 303.5" fill="white"/>
<path fill-rule="evenodd" clip-rule="evenodd" d="M-7 303.5C-7 301.015 -4.98512 299 -2.5 299C-0.0148743 299 2 301.015 2 303.5C2 305.985 -0.0148743 308 -2.5 308C-4.98512 308 -7 305.985 -7 303.5" fill="white"/>
<path fill-rule="evenodd" clip-rule="evenodd" d="M128 258.5C128 256.015 130.015 254 132.5 254C134.985 254 137 256.015 137 258.5C137 260.985 134.985 263 132.5 263C130.015 263 128 260.985 128 258.5" fill="white"/>
<path fill-rule="evenodd" clip-rule="evenodd" d="M83 258.5C83 256.015 85.0149 254 87.5 254C89.9851 254 92 256.015 92 258.5C92 260.985 89.9851 263 87.5 263C85.0149 263 83 260.985 83 258.5" fill="white"/>
<path fill-rule="evenodd" clip-rule="evenodd" d="M38 258.5C38 256.015 40.0149 254 42.5 254C44.9851 254 47 256.015 47 258.5C47 260.985 44.9851 263 42.5 263C40.0149 263 38 260.985 38 258.5" fill="white"/>
<path fill-rule="evenodd" clip-rule="evenodd" d="M-7 258.5C-7 256.015 -4.98512 254 -2.5 254C-0.0148743 254 2 256.015 2 258.5C2 260.985 -0.0148743 263 -2.5 263C-4.98512 263 -7 260.985 -7 258.5" fill="white"/>
<path fill-rule="evenodd" clip-rule="evenodd" d="M128 213.5C128 211.015 130.015 209 132.5 209C134.985 209 137 211.015 137 213.5C137 215.985 134.985 218 132.5 218C130.015 218 128 215.985 128 213.5" fill="white"/>
<path fill-rule="evenodd" clip-rule="evenodd" d="M83 213.5C83 211.015 85.0149 209 87.5 209C89.9851 209 92 211.015 92 213.5C92 215.985 89.9851 218 87.5 218C85.0149 218 83 215.985 83 213.5" fill="white"/>
<path fill-rule="evenodd" clip-rule="evenodd" d="M38 213.5C38 211.015 40.0149 209 42.5 209C44.9851 209 47 211.015 47 213.5C47 215.985 44.9851 218 42.5 218C40.0149 218 38 215.985 38 213.5" fill="white"/>
<path fill-rule="evenodd" clip-rule="evenodd" d="M-7 213.5C-7 211.015 -4.98512 209 -2.5 209C-0.0148743 209 2 211.015 2 213.5C2 215.985 -0.0148743 218 -2.5 218C-4.98512 218 -7 215.985 -7 213.5" fill="white"/>
<path fill-rule="evenodd" clip-rule="evenodd" d="M128 168.5C128 166.015 130.015 164 132.5 164C134.985 164 137 166.015 137 168.5C137 170.985 134.985 173 132.5 173C130.015 173 128 170.985 128 168.5" fill="white"/>
<path fill-rule="evenodd" clip-rule="evenodd" d="M83 168.5C83 166.015 85.0149 164 87.5 164C89.9851 164 92 166.015 92 168.5C92 170.985 89.9851 173 87.5 173C85.0149 173 83 170.985 83 168.5" fill="white"/>
<path fill-rule="evenodd" clip-rule="evenodd" d="M38 168.5C38 166.015 40.0149 164 42.5 164C44.9851 164 47 166.015 47 168.5C47 170.985 44.9851 173 42.5 173C40.0149 173 38 170.985 38 168.5" fill="white"/>
<path fill-rule="evenodd" clip-rule="evenodd" d="M-7 168.5C-7 166.015 -4.98512 164 -2.5 164C-0.0148743 164 2 166.015 2 168.5C2 170.985 -0.0148743 173 -2.5 173C-4.98512 173 -7 170.985 -7 168.5" fill="white"/>
</svg>
