<svg width="1920" height="1080" viewBox="0 0 1920 1080" fill="none" xmlns="http://www.w3.org/2000/svg">
<g clip-path="url(#clip0_2306_36278)">
<path fill-rule="evenodd" clip-rule="evenodd" d="M1382.64 612.44C1380.1 612.44 1378.04 614.579 1378.04 617.207H1379.57C1379.57 615.455 1380.95 614.029 1382.64 614.029V612.44Z" fill="white"/>
<rect x="1230.23" y="268.5" width="1557.76" height="1557.76" rx="100" transform="rotate(-45 1230.23 268.5)" fill="#0094FF"/>
<path fill-rule="evenodd" clip-rule="evenodd" d="M1718.61 782.306C1718.61 784.131 1717.13 785.611 1715.31 785.611C1713.48 785.611 1712 784.131 1712 782.306C1712 780.48 1713.48 779 1715.31 779C1717.13 779 1718.61 780.48 1718.61 782.306" fill="white"/>
<path fill-rule="evenodd" clip-rule="evenodd" d="M1751.67 782.306C1751.67 784.131 1750.19 785.611 1748.36 785.611C1746.53 785.611 1745.05 784.131 1745.05 782.306C1745.05 780.48 1746.53 779 1748.36 779C1750.19 779 1751.67 780.48 1751.67 782.306" fill="white"/>
<path fill-rule="evenodd" clip-rule="evenodd" d="M1784.72 782.306C1784.72 784.131 1783.24 785.611 1781.42 785.611C1779.59 785.611 1778.11 784.131 1778.11 782.306C1778.11 780.48 1779.59 779 1781.42 779C1783.24 779 1784.72 780.48 1784.72 782.306" fill="white"/>
<path fill-rule="evenodd" clip-rule="evenodd" d="M1817.78 782.306C1817.78 784.131 1816.3 785.611 1814.47 785.611C1812.65 785.611 1811.17 784.131 1811.17 782.306C1811.17 780.48 1812.65 779 1814.47 779C1816.3 779 1817.78 780.48 1817.78 782.306" fill="white"/>
<path fill-rule="evenodd" clip-rule="evenodd" d="M1850.83 782.306C1850.83 784.131 1849.35 785.611 1847.53 785.611C1845.7 785.611 1844.22 784.131 1844.22 782.306C1844.22 780.48 1845.7 779 1847.53 779C1849.35 779 1850.83 780.48 1850.83 782.306" fill="white"/>
<path fill-rule="evenodd" clip-rule="evenodd" d="M1883.89 782.306C1883.89 784.131 1882.41 785.611 1880.58 785.611C1878.76 785.611 1877.28 784.131 1877.28 782.306C1877.28 780.48 1878.76 779 1880.58 779C1882.41 779 1883.89 780.48 1883.89 782.306" fill="white"/>
<path fill-rule="evenodd" clip-rule="evenodd" d="M1916.95 782.306C1916.95 784.131 1915.47 785.611 1913.64 785.611C1911.81 785.611 1910.33 784.131 1910.33 782.306C1910.33 780.48 1911.81 779 1913.64 779C1915.47 779 1916.95 780.48 1916.95 782.306" fill="white"/>
<path fill-rule="evenodd" clip-rule="evenodd" d="M1718.61 815.361C1718.61 817.187 1717.13 818.667 1715.31 818.667C1713.48 818.667 1712 817.187 1712 815.361C1712 813.536 1713.48 812.056 1715.31 812.056C1717.13 812.056 1718.61 813.536 1718.61 815.361" fill="white"/>
<path fill-rule="evenodd" clip-rule="evenodd" d="M1751.67 815.361C1751.67 817.187 1750.19 818.667 1748.36 818.667C1746.53 818.667 1745.05 817.187 1745.05 815.361C1745.05 813.536 1746.53 812.056 1748.36 812.056C1750.19 812.056 1751.67 813.536 1751.67 815.361" fill="white"/>
<path fill-rule="evenodd" clip-rule="evenodd" d="M1784.72 815.361C1784.72 817.187 1783.24 818.667 1781.42 818.667C1779.59 818.667 1778.11 817.187 1778.11 815.361C1778.11 813.536 1779.59 812.056 1781.42 812.056C1783.24 812.056 1784.72 813.536 1784.72 815.361" fill="white"/>
<path fill-rule="evenodd" clip-rule="evenodd" d="M1817.78 815.361C1817.78 817.187 1816.3 818.667 1814.47 818.667C1812.65 818.667 1811.17 817.187 1811.17 815.361C1811.17 813.536 1812.65 812.056 1814.47 812.056C1816.3 812.056 1817.78 813.536 1817.78 815.361" fill="white"/>
<path fill-rule="evenodd" clip-rule="evenodd" d="M1850.83 815.361C1850.83 817.187 1849.35 818.667 1847.53 818.667C1845.7 818.667 1844.22 817.187 1844.22 815.361C1844.22 813.536 1845.7 812.056 1847.53 812.056C1849.35 812.056 1850.83 813.536 1850.83 815.361" fill="white"/>
<path fill-rule="evenodd" clip-rule="evenodd" d="M1883.89 815.361C1883.89 817.187 1882.41 818.667 1880.58 818.667C1878.76 818.667 1877.28 817.187 1877.28 815.361C1877.28 813.536 1878.76 812.056 1880.58 812.056C1882.41 812.056 1883.89 813.536 1883.89 815.361" fill="white"/>
<path fill-rule="evenodd" clip-rule="evenodd" d="M1916.95 815.361C1916.95 817.187 1915.47 818.667 1913.64 818.667C1911.81 818.667 1910.33 817.187 1910.33 815.361C1910.33 813.536 1911.81 812.056 1913.64 812.056C1915.47 812.056 1916.95 813.536 1916.95 815.361" fill="white"/>
<path fill-rule="evenodd" clip-rule="evenodd" d="M1718.61 848.417C1718.61 850.242 1717.13 851.722 1715.31 851.722C1713.48 851.722 1712 850.242 1712 848.417C1712 846.591 1713.48 845.111 1715.31 845.111C1717.13 845.111 1718.61 846.591 1718.61 848.417" fill="white"/>
<path fill-rule="evenodd" clip-rule="evenodd" d="M1751.67 848.417C1751.67 850.242 1750.19 851.722 1748.36 851.722C1746.53 851.722 1745.05 850.242 1745.05 848.417C1745.05 846.591 1746.53 845.111 1748.36 845.111C1750.19 845.111 1751.67 846.591 1751.67 848.417" fill="white"/>
<path fill-rule="evenodd" clip-rule="evenodd" d="M1784.72 848.417C1784.72 850.242 1783.24 851.722 1781.42 851.722C1779.59 851.722 1778.11 850.242 1778.11 848.417C1778.11 846.591 1779.59 845.111 1781.42 845.111C1783.24 845.111 1784.72 846.591 1784.72 848.417" fill="white"/>
<path fill-rule="evenodd" clip-rule="evenodd" d="M1817.78 848.417C1817.78 850.242 1816.3 851.722 1814.47 851.722C1812.65 851.722 1811.17 850.242 1811.17 848.417C1811.17 846.591 1812.65 845.111 1814.47 845.111C1816.3 845.111 1817.78 846.591 1817.78 848.417" fill="white"/>
<path fill-rule="evenodd" clip-rule="evenodd" d="M1850.83 848.417C1850.83 850.242 1849.35 851.722 1847.53 851.722C1845.7 851.722 1844.22 850.242 1844.22 848.417C1844.22 846.591 1845.7 845.111 1847.53 845.111C1849.35 845.111 1850.83 846.591 1850.83 848.417" fill="white"/>
<path fill-rule="evenodd" clip-rule="evenodd" d="M1883.89 848.417C1883.89 850.242 1882.41 851.722 1880.58 851.722C1878.76 851.722 1877.28 850.242 1877.28 848.417C1877.28 846.591 1878.76 845.111 1880.58 845.111C1882.41 845.111 1883.89 846.591 1883.89 848.417" fill="white"/>
<path fill-rule="evenodd" clip-rule="evenodd" d="M1916.95 848.417C1916.95 850.242 1915.47 851.722 1913.64 851.722C1911.81 851.722 1910.33 850.242 1910.33 848.417C1910.33 846.591 1911.81 845.111 1913.64 845.111C1915.47 845.111 1916.95 846.591 1916.95 848.417" fill="white"/>
<path fill-rule="evenodd" clip-rule="evenodd" d="M1718.61 881.473C1718.61 883.298 1717.13 884.778 1715.31 884.778C1713.48 884.778 1712 883.298 1712 881.473C1712 879.647 1713.48 878.167 1715.31 878.167C1717.13 878.167 1718.61 879.647 1718.61 881.473" fill="white"/>
<path fill-rule="evenodd" clip-rule="evenodd" d="M1751.67 881.473C1751.67 883.298 1750.19 884.778 1748.36 884.778C1746.53 884.778 1745.05 883.298 1745.05 881.473C1745.05 879.647 1746.53 878.167 1748.36 878.167C1750.19 878.167 1751.67 879.647 1751.67 881.473" fill="white"/>
<path fill-rule="evenodd" clip-rule="evenodd" d="M1784.72 881.473C1784.72 883.298 1783.24 884.778 1781.42 884.778C1779.59 884.778 1778.11 883.298 1778.11 881.473C1778.11 879.647 1779.59 878.167 1781.42 878.167C1783.24 878.167 1784.72 879.647 1784.72 881.473" fill="white"/>
<path fill-rule="evenodd" clip-rule="evenodd" d="M1817.78 881.473C1817.78 883.298 1816.3 884.778 1814.47 884.778C1812.65 884.778 1811.17 883.298 1811.17 881.473C1811.17 879.647 1812.65 878.167 1814.47 878.167C1816.3 878.167 1817.78 879.647 1817.78 881.473" fill="white"/>
<path fill-rule="evenodd" clip-rule="evenodd" d="M1850.83 881.473C1850.83 883.298 1849.35 884.778 1847.53 884.778C1845.7 884.778 1844.22 883.298 1844.22 881.473C1844.22 879.647 1845.7 878.167 1847.53 878.167C1849.35 878.167 1850.83 879.647 1850.83 881.473" fill="white"/>
<path fill-rule="evenodd" clip-rule="evenodd" d="M1883.89 881.473C1883.89 883.298 1882.41 884.778 1880.58 884.778C1878.76 884.778 1877.28 883.298 1877.28 881.473C1877.28 879.647 1878.76 878.167 1880.58 878.167C1882.41 878.167 1883.89 879.647 1883.89 881.473" fill="white"/>
<path fill-rule="evenodd" clip-rule="evenodd" d="M1916.95 881.473C1916.95 883.298 1915.47 884.778 1913.64 884.778C1911.81 884.778 1910.33 883.298 1910.33 881.473C1910.33 879.647 1911.81 878.167 1913.64 878.167C1915.47 878.167 1916.95 879.647 1916.95 881.473" fill="white"/>
<path fill-rule="evenodd" clip-rule="evenodd" d="M1718.61 914.528C1718.61 916.354 1717.13 917.834 1715.31 917.834C1713.48 917.834 1712 916.354 1712 914.528C1712 912.703 1713.48 911.223 1715.31 911.223C1717.13 911.223 1718.61 912.703 1718.61 914.528" fill="white"/>
<path fill-rule="evenodd" clip-rule="evenodd" d="M1751.67 914.528C1751.67 916.354 1750.19 917.834 1748.36 917.834C1746.53 917.834 1745.05 916.354 1745.05 914.528C1745.05 912.703 1746.53 911.223 1748.36 911.223C1750.19 911.223 1751.67 912.703 1751.67 914.528" fill="white"/>
<path fill-rule="evenodd" clip-rule="evenodd" d="M1784.72 914.528C1784.72 916.354 1783.24 917.834 1781.42 917.834C1779.59 917.834 1778.11 916.354 1778.11 914.528C1778.11 912.703 1779.59 911.223 1781.42 911.223C1783.24 911.223 1784.72 912.703 1784.72 914.528" fill="white"/>
<path fill-rule="evenodd" clip-rule="evenodd" d="M1817.78 914.528C1817.78 916.354 1816.3 917.834 1814.47 917.834C1812.65 917.834 1811.17 916.354 1811.17 914.528C1811.17 912.703 1812.65 911.223 1814.47 911.223C1816.3 911.223 1817.78 912.703 1817.78 914.528" fill="white"/>
<path fill-rule="evenodd" clip-rule="evenodd" d="M1850.83 914.528C1850.83 916.354 1849.35 917.834 1847.53 917.834C1845.7 917.834 1844.22 916.354 1844.22 914.528C1844.22 912.703 1845.7 911.223 1847.53 911.223C1849.35 911.223 1850.83 912.703 1850.83 914.528" fill="white"/>
<path fill-rule="evenodd" clip-rule="evenodd" d="M1883.89 914.528C1883.89 916.354 1882.41 917.834 1880.58 917.834C1878.76 917.834 1877.28 916.354 1877.28 914.528C1877.28 912.703 1878.76 911.223 1880.58 911.223C1882.41 911.223 1883.89 912.703 1883.89 914.528" fill="white"/>
<path fill-rule="evenodd" clip-rule="evenodd" d="M1916.95 914.528C1916.95 916.354 1915.47 917.834 1913.64 917.834C1911.81 917.834 1910.33 916.354 1910.33 914.528C1910.33 912.703 1911.81 911.223 1913.64 911.223C1915.47 911.223 1916.95 912.703 1916.95 914.528" fill="white"/>
<path fill-rule="evenodd" clip-rule="evenodd" d="M1718.61 947.583C1718.61 949.408 1717.13 950.888 1715.31 950.888C1713.48 950.888 1712 949.408 1712 947.583C1712 945.757 1713.48 944.277 1715.31 944.277C1717.13 944.277 1718.61 945.757 1718.61 947.583" fill="white"/>
<path fill-rule="evenodd" clip-rule="evenodd" d="M1751.67 947.583C1751.67 949.408 1750.19 950.888 1748.36 950.888C1746.53 950.888 1745.05 949.408 1745.05 947.583C1745.05 945.757 1746.53 944.277 1748.36 944.277C1750.19 944.277 1751.67 945.757 1751.67 947.583" fill="white"/>
<path fill-rule="evenodd" clip-rule="evenodd" d="M1784.72 947.583C1784.72 949.408 1783.24 950.888 1781.42 950.888C1779.59 950.888 1778.11 949.408 1778.11 947.583C1778.11 945.757 1779.59 944.277 1781.42 944.277C1783.24 944.277 1784.72 945.757 1784.72 947.583" fill="white"/>
<path fill-rule="evenodd" clip-rule="evenodd" d="M1817.78 947.583C1817.78 949.408 1816.3 950.888 1814.47 950.888C1812.65 950.888 1811.17 949.408 1811.17 947.583C1811.17 945.757 1812.65 944.277 1814.47 944.277C1816.3 944.277 1817.78 945.757 1817.78 947.583" fill="white"/>
<path fill-rule="evenodd" clip-rule="evenodd" d="M1850.83 947.583C1850.83 949.408 1849.35 950.888 1847.53 950.888C1845.7 950.888 1844.22 949.408 1844.22 947.583C1844.22 945.757 1845.7 944.277 1847.53 944.277C1849.35 944.277 1850.83 945.757 1850.83 947.583" fill="white"/>
<path fill-rule="evenodd" clip-rule="evenodd" d="M1883.89 947.583C1883.89 949.408 1882.41 950.888 1880.58 950.888C1878.76 950.888 1877.28 949.408 1877.28 947.583C1877.28 945.757 1878.76 944.277 1880.58 944.277C1882.41 944.277 1883.89 945.757 1883.89 947.583" fill="white"/>
<path fill-rule="evenodd" clip-rule="evenodd" d="M1916.95 947.583C1916.95 949.408 1915.47 950.888 1913.64 950.888C1911.81 950.888 1910.33 949.408 1910.33 947.583C1910.33 945.757 1911.81 944.277 1913.64 944.277C1915.47 944.277 1916.95 945.757 1916.95 947.583" fill="white"/>
<path fill-rule="evenodd" clip-rule="evenodd" d="M1718.61 980.639C1718.61 982.464 1717.13 983.944 1715.31 983.944C1713.48 983.944 1712 982.464 1712 980.639C1712 978.813 1713.48 977.333 1715.31 977.333C1717.13 977.333 1718.61 978.813 1718.61 980.639" fill="white"/>
<path fill-rule="evenodd" clip-rule="evenodd" d="M1751.67 980.639C1751.67 982.464 1750.19 983.944 1748.36 983.944C1746.53 983.944 1745.05 982.464 1745.05 980.639C1745.05 978.813 1746.53 977.333 1748.36 977.333C1750.19 977.333 1751.67 978.813 1751.67 980.639" fill="white"/>
<path fill-rule="evenodd" clip-rule="evenodd" d="M1784.72 980.639C1784.72 982.464 1783.24 983.944 1781.42 983.944C1779.59 983.944 1778.11 982.464 1778.11 980.639C1778.11 978.813 1779.59 977.333 1781.42 977.333C1783.24 977.333 1784.72 978.813 1784.72 980.639" fill="white"/>
<path fill-rule="evenodd" clip-rule="evenodd" d="M1817.78 980.639C1817.78 982.464 1816.3 983.944 1814.47 983.944C1812.65 983.944 1811.17 982.464 1811.17 980.639C1811.17 978.813 1812.65 977.333 1814.47 977.333C1816.3 977.333 1817.78 978.813 1817.78 980.639" fill="white"/>
<path fill-rule="evenodd" clip-rule="evenodd" d="M1850.83 980.639C1850.83 982.464 1849.35 983.944 1847.53 983.944C1845.7 983.944 1844.22 982.464 1844.22 980.639C1844.22 978.813 1845.7 977.333 1847.53 977.333C1849.35 977.333 1850.83 978.813 1850.83 980.639" fill="white"/>
<path fill-rule="evenodd" clip-rule="evenodd" d="M1883.89 980.639C1883.89 982.464 1882.41 983.944 1880.58 983.944C1878.76 983.944 1877.28 982.464 1877.28 980.639C1877.28 978.813 1878.76 977.333 1880.58 977.333C1882.41 977.333 1883.89 978.813 1883.89 980.639" fill="white"/>
<path fill-rule="evenodd" clip-rule="evenodd" d="M1916.95 980.639C1916.95 982.464 1915.47 983.944 1913.64 983.944C1911.81 983.944 1910.33 982.464 1910.33 980.639C1910.33 978.813 1911.81 977.333 1913.64 977.333C1915.47 977.333 1916.95 978.813 1916.95 980.639" fill="white"/>
<path fill-rule="evenodd" clip-rule="evenodd" d="M1718.61 1013.69C1718.61 1015.52 1717.13 1017 1715.31 1017C1713.48 1017 1712 1015.52 1712 1013.69C1712 1011.87 1713.48 1010.39 1715.31 1010.39C1717.13 1010.39 1718.61 1011.87 1718.61 1013.69" fill="white"/>
<path fill-rule="evenodd" clip-rule="evenodd" d="M1751.67 1013.69C1751.67 1015.52 1750.19 1017 1748.36 1017C1746.53 1017 1745.05 1015.52 1745.05 1013.69C1745.05 1011.87 1746.53 1010.39 1748.36 1010.39C1750.19 1010.39 1751.67 1011.87 1751.67 1013.69" fill="white"/>
<path fill-rule="evenodd" clip-rule="evenodd" d="M1784.72 1013.69C1784.72 1015.52 1783.24 1017 1781.42 1017C1779.59 1017 1778.11 1015.52 1778.11 1013.69C1778.11 1011.87 1779.59 1010.39 1781.42 1010.39C1783.24 1010.39 1784.72 1011.87 1784.72 1013.69" fill="white"/>
<path fill-rule="evenodd" clip-rule="evenodd" d="M1817.78 1013.69C1817.78 1015.52 1816.3 1017 1814.47 1017C1812.65 1017 1811.17 1015.52 1811.17 1013.69C1811.17 1011.87 1812.65 1010.39 1814.47 1010.39C1816.3 1010.39 1817.78 1011.87 1817.78 1013.69" fill="white"/>
<path fill-rule="evenodd" clip-rule="evenodd" d="M1850.83 1013.69C1850.83 1015.52 1849.35 1017 1847.53 1017C1845.7 1017 1844.22 1015.52 1844.22 1013.69C1844.22 1011.87 1845.7 1010.39 1847.53 1010.39C1849.35 1010.39 1850.83 1011.87 1850.83 1013.69" fill="white"/>
<path fill-rule="evenodd" clip-rule="evenodd" d="M1883.89 1013.69C1883.89 1015.52 1882.41 1017 1880.58 1017C1878.76 1017 1877.28 1015.52 1877.28 1013.69C1877.28 1011.87 1878.76 1010.39 1880.58 1010.39C1882.41 1010.39 1883.89 1011.87 1883.89 1013.69" fill="white"/>
<path fill-rule="evenodd" clip-rule="evenodd" d="M1916.95 1013.69C1916.95 1015.52 1915.47 1017 1913.64 1017C1911.81 1017 1910.33 1015.52 1910.33 1013.69C1910.33 1011.87 1911.81 1010.39 1913.64 1010.39C1915.47 1010.39 1916.95 1011.87 1916.95 1013.69" fill="white"/>
<path fill-rule="evenodd" clip-rule="evenodd" d="M1310.13 419.849C1310.13 421.674 1308.65 423.154 1306.82 423.154C1305 423.154 1303.52 421.674 1303.52 419.849C1303.52 418.023 1305 416.543 1306.82 416.543C1308.65 416.543 1310.13 418.023 1310.13 419.849" fill="white"/>
<path fill-rule="evenodd" clip-rule="evenodd" d="M1343.18 419.849C1343.18 421.674 1341.7 423.154 1339.88 423.154C1338.05 423.154 1336.57 421.674 1336.57 419.849C1336.57 418.023 1338.05 416.543 1339.88 416.543C1341.7 416.543 1343.18 418.023 1343.18 419.849" fill="white"/>
<path fill-rule="evenodd" clip-rule="evenodd" d="M1376.24 419.849C1376.24 421.674 1374.76 423.154 1372.93 423.154C1371.11 423.154 1369.63 421.674 1369.63 419.849C1369.63 418.023 1371.11 416.543 1372.93 416.543C1374.76 416.543 1376.24 418.023 1376.24 419.849" fill="white"/>
<path fill-rule="evenodd" clip-rule="evenodd" d="M1409.29 419.849C1409.29 421.674 1407.81 423.154 1405.99 423.154C1404.16 423.154 1402.68 421.674 1402.68 419.849C1402.68 418.023 1404.16 416.543 1405.99 416.543C1407.81 416.543 1409.29 418.023 1409.29 419.849" fill="white"/>
<path fill-rule="evenodd" clip-rule="evenodd" d="M1442.35 419.849C1442.35 421.674 1440.87 423.154 1439.04 423.154C1437.22 423.154 1435.74 421.674 1435.74 419.849C1435.74 418.023 1437.22 416.543 1439.04 416.543C1440.87 416.543 1442.35 418.023 1442.35 419.849" fill="white"/>
<path fill-rule="evenodd" clip-rule="evenodd" d="M1475.4 419.849C1475.4 421.674 1473.92 423.154 1472.1 423.154C1470.27 423.154 1468.79 421.674 1468.79 419.849C1468.79 418.023 1470.27 416.543 1472.1 416.543C1473.92 416.543 1475.4 418.023 1475.4 419.849" fill="white"/>
<path fill-rule="evenodd" clip-rule="evenodd" d="M1508.46 419.849C1508.46 421.674 1506.98 423.154 1505.16 423.154C1503.33 423.154 1501.85 421.674 1501.85 419.849C1501.85 418.023 1503.33 416.543 1505.16 416.543C1506.98 416.543 1508.46 418.023 1508.46 419.849" fill="white"/>
<path fill-rule="evenodd" clip-rule="evenodd" d="M1541.52 419.849C1541.52 421.674 1540.04 423.154 1538.21 423.154C1536.38 423.154 1534.9 421.674 1534.9 419.849C1534.9 418.023 1536.38 416.543 1538.21 416.543C1540.04 416.543 1541.52 418.023 1541.52 419.849" fill="white"/>
<path fill-rule="evenodd" clip-rule="evenodd" d="M1310.13 452.904C1310.13 454.73 1308.65 456.21 1306.82 456.21C1305 456.21 1303.52 454.73 1303.52 452.904C1303.52 451.079 1305 449.599 1306.82 449.599C1308.65 449.599 1310.13 451.079 1310.13 452.904" fill="white"/>
<path fill-rule="evenodd" clip-rule="evenodd" d="M1343.18 452.904C1343.18 454.73 1341.7 456.21 1339.88 456.21C1338.05 456.21 1336.57 454.73 1336.57 452.904C1336.57 451.079 1338.05 449.599 1339.88 449.599C1341.7 449.599 1343.18 451.079 1343.18 452.904" fill="white"/>
<path fill-rule="evenodd" clip-rule="evenodd" d="M1376.24 452.904C1376.24 454.73 1374.76 456.21 1372.93 456.21C1371.11 456.21 1369.63 454.73 1369.63 452.904C1369.63 451.079 1371.11 449.599 1372.93 449.599C1374.76 449.599 1376.24 451.079 1376.24 452.904" fill="white"/>
<path fill-rule="evenodd" clip-rule="evenodd" d="M1409.29 452.904C1409.29 454.73 1407.81 456.21 1405.99 456.21C1404.16 456.21 1402.68 454.73 1402.68 452.904C1402.68 451.079 1404.16 449.599 1405.99 449.599C1407.81 449.599 1409.29 451.079 1409.29 452.904" fill="white"/>
<path fill-rule="evenodd" clip-rule="evenodd" d="M1442.35 452.904C1442.35 454.73 1440.87 456.21 1439.04 456.21C1437.22 456.21 1435.74 454.73 1435.74 452.904C1435.74 451.079 1437.22 449.599 1439.04 449.599C1440.87 449.599 1442.35 451.079 1442.35 452.904" fill="white"/>
<path fill-rule="evenodd" clip-rule="evenodd" d="M1475.4 452.904C1475.4 454.73 1473.92 456.21 1472.1 456.21C1470.27 456.21 1468.79 454.73 1468.79 452.904C1468.79 451.079 1470.27 449.599 1472.1 449.599C1473.92 449.599 1475.4 451.079 1475.4 452.904" fill="white"/>
<path fill-rule="evenodd" clip-rule="evenodd" d="M1508.46 452.904C1508.46 454.73 1506.98 456.21 1505.16 456.21C1503.33 456.21 1501.85 454.73 1501.85 452.904C1501.85 451.079 1503.33 449.599 1505.16 449.599C1506.98 449.599 1508.46 451.079 1508.46 452.904" fill="white"/>
<path fill-rule="evenodd" clip-rule="evenodd" d="M1541.52 452.904C1541.52 454.73 1540.04 456.21 1538.21 456.21C1536.38 456.21 1534.9 454.73 1534.9 452.904C1534.9 451.079 1536.38 449.599 1538.21 449.599C1540.04 449.599 1541.52 451.079 1541.52 452.904" fill="white"/>
<path fill-rule="evenodd" clip-rule="evenodd" d="M1310.13 485.96C1310.13 487.785 1308.65 489.265 1306.82 489.265C1305 489.265 1303.52 487.785 1303.52 485.96C1303.52 484.134 1305 482.654 1306.82 482.654C1308.65 482.654 1310.13 484.134 1310.13 485.96" fill="white"/>
<path fill-rule="evenodd" clip-rule="evenodd" d="M1343.18 485.96C1343.18 487.785 1341.7 489.265 1339.88 489.265C1338.05 489.265 1336.57 487.785 1336.57 485.96C1336.57 484.134 1338.05 482.654 1339.88 482.654C1341.7 482.654 1343.18 484.134 1343.18 485.96" fill="white"/>
<path fill-rule="evenodd" clip-rule="evenodd" d="M1376.24 485.96C1376.24 487.785 1374.76 489.265 1372.93 489.265C1371.11 489.265 1369.63 487.785 1369.63 485.96C1369.63 484.134 1371.11 482.654 1372.93 482.654C1374.76 482.654 1376.24 484.134 1376.24 485.96" fill="white"/>
<path fill-rule="evenodd" clip-rule="evenodd" d="M1409.29 485.96C1409.29 487.785 1407.81 489.265 1405.99 489.265C1404.16 489.265 1402.68 487.785 1402.68 485.96C1402.68 484.134 1404.16 482.654 1405.99 482.654C1407.81 482.654 1409.29 484.134 1409.29 485.96" fill="white"/>
<path fill-rule="evenodd" clip-rule="evenodd" d="M1442.35 485.96C1442.35 487.785 1440.87 489.265 1439.04 489.265C1437.22 489.265 1435.74 487.785 1435.74 485.96C1435.74 484.134 1437.22 482.654 1439.04 482.654C1440.87 482.654 1442.35 484.134 1442.35 485.96" fill="white"/>
<path fill-rule="evenodd" clip-rule="evenodd" d="M1475.4 485.96C1475.4 487.785 1473.92 489.265 1472.1 489.265C1470.27 489.265 1468.79 487.785 1468.79 485.96C1468.79 484.134 1470.27 482.654 1472.1 482.654C1473.92 482.654 1475.4 484.134 1475.4 485.96" fill="white"/>
<path fill-rule="evenodd" clip-rule="evenodd" d="M1508.46 485.96C1508.46 487.785 1506.98 489.265 1505.16 489.265C1503.33 489.265 1501.85 487.785 1501.85 485.96C1501.85 484.134 1503.33 482.654 1505.16 482.654C1506.98 482.654 1508.46 484.134 1508.46 485.96" fill="white"/>
<path fill-rule="evenodd" clip-rule="evenodd" d="M1541.52 485.96C1541.52 487.785 1540.04 489.265 1538.21 489.265C1536.38 489.265 1534.9 487.785 1534.9 485.96C1534.9 484.134 1536.38 482.654 1538.21 482.654C1540.04 482.654 1541.52 484.134 1541.52 485.96" fill="white"/>
<path fill-rule="evenodd" clip-rule="evenodd" d="M1310.13 519.016C1310.13 520.841 1308.65 522.321 1306.82 522.321C1305 522.321 1303.52 520.841 1303.52 519.016C1303.52 517.19 1305 515.71 1306.82 515.71C1308.65 515.71 1310.13 517.19 1310.13 519.016" fill="white"/>
<path fill-rule="evenodd" clip-rule="evenodd" d="M1343.18 519.016C1343.18 520.841 1341.7 522.321 1339.88 522.321C1338.05 522.321 1336.57 520.841 1336.57 519.016C1336.57 517.19 1338.05 515.71 1339.88 515.71C1341.7 515.71 1343.18 517.19 1343.18 519.016" fill="white"/>
<path fill-rule="evenodd" clip-rule="evenodd" d="M1376.24 519.016C1376.24 520.841 1374.76 522.321 1372.93 522.321C1371.11 522.321 1369.63 520.841 1369.63 519.016C1369.63 517.19 1371.11 515.71 1372.93 515.71C1374.76 515.71 1376.24 517.19 1376.24 519.016" fill="white"/>
<path fill-rule="evenodd" clip-rule="evenodd" d="M1409.29 519.016C1409.29 520.841 1407.81 522.321 1405.99 522.321C1404.16 522.321 1402.68 520.841 1402.68 519.016C1402.68 517.19 1404.16 515.71 1405.99 515.71C1407.81 515.71 1409.29 517.19 1409.29 519.016" fill="white"/>
<path fill-rule="evenodd" clip-rule="evenodd" d="M1442.35 519.016C1442.35 520.841 1440.87 522.321 1439.04 522.321C1437.22 522.321 1435.74 520.841 1435.74 519.016C1435.74 517.19 1437.22 515.71 1439.04 515.71C1440.87 515.71 1442.35 517.19 1442.35 519.016" fill="white"/>
<path fill-rule="evenodd" clip-rule="evenodd" d="M1475.4 519.016C1475.4 520.841 1473.92 522.321 1472.1 522.321C1470.27 522.321 1468.79 520.841 1468.79 519.016C1468.79 517.19 1470.27 515.71 1472.1 515.71C1473.92 515.71 1475.4 517.19 1475.4 519.016" fill="white"/>
<path fill-rule="evenodd" clip-rule="evenodd" d="M1508.46 519.016C1508.46 520.841 1506.98 522.321 1505.16 522.321C1503.33 522.321 1501.85 520.841 1501.85 519.016C1501.85 517.19 1503.33 515.71 1505.16 515.71C1506.98 515.71 1508.46 517.19 1508.46 519.016" fill="white"/>
<path fill-rule="evenodd" clip-rule="evenodd" d="M1541.52 519.016C1541.52 520.841 1540.04 522.321 1538.21 522.321C1536.38 522.321 1534.9 520.841 1534.9 519.016C1534.9 517.19 1536.38 515.71 1538.21 515.71C1540.04 515.71 1541.52 517.19 1541.52 519.016" fill="white"/>
<path fill-rule="evenodd" clip-rule="evenodd" d="M1310.13 552.071C1310.13 553.897 1308.65 555.377 1306.82 555.377C1305 555.377 1303.52 553.897 1303.52 552.071C1303.52 550.246 1305 548.766 1306.82 548.766C1308.65 548.766 1310.13 550.246 1310.13 552.071" fill="white"/>
<path fill-rule="evenodd" clip-rule="evenodd" d="M1343.18 552.071C1343.18 553.897 1341.7 555.377 1339.88 555.377C1338.05 555.377 1336.57 553.897 1336.57 552.071C1336.57 550.246 1338.05 548.766 1339.88 548.766C1341.7 548.766 1343.18 550.246 1343.18 552.071" fill="white"/>
<path fill-rule="evenodd" clip-rule="evenodd" d="M1376.24 552.071C1376.24 553.897 1374.76 555.377 1372.93 555.377C1371.11 555.377 1369.63 553.897 1369.63 552.071C1369.63 550.246 1371.11 548.766 1372.93 548.766C1374.76 548.766 1376.24 550.246 1376.24 552.071" fill="white"/>
<path fill-rule="evenodd" clip-rule="evenodd" d="M1409.29 552.071C1409.29 553.897 1407.81 555.377 1405.99 555.377C1404.16 555.377 1402.68 553.897 1402.68 552.071C1402.68 550.246 1404.16 548.766 1405.99 548.766C1407.81 548.766 1409.29 550.246 1409.29 552.071" fill="white"/>
<path fill-rule="evenodd" clip-rule="evenodd" d="M1442.35 552.071C1442.35 553.897 1440.87 555.377 1439.04 555.377C1437.22 555.377 1435.74 553.897 1435.74 552.071C1435.74 550.246 1437.22 548.766 1439.04 548.766C1440.87 548.766 1442.35 550.246 1442.35 552.071" fill="white"/>
<path fill-rule="evenodd" clip-rule="evenodd" d="M1475.4 552.071C1475.4 553.897 1473.92 555.377 1472.1 555.377C1470.27 555.377 1468.79 553.897 1468.79 552.071C1468.79 550.246 1470.27 548.766 1472.1 548.766C1473.92 548.766 1475.4 550.246 1475.4 552.071" fill="white"/>
<path fill-rule="evenodd" clip-rule="evenodd" d="M1508.46 552.071C1508.46 553.897 1506.98 555.377 1505.16 555.377C1503.33 555.377 1501.85 553.897 1501.85 552.071C1501.85 550.246 1503.33 548.766 1505.16 548.766C1506.98 548.766 1508.46 550.246 1508.46 552.071" fill="white"/>
<path fill-rule="evenodd" clip-rule="evenodd" d="M1541.52 552.071C1541.52 553.897 1540.04 555.377 1538.21 555.377C1536.38 555.377 1534.9 553.897 1534.9 552.071C1534.9 550.246 1536.38 548.766 1538.21 548.766C1540.04 548.766 1541.52 550.246 1541.52 552.071" fill="white"/>
<path fill-rule="evenodd" clip-rule="evenodd" d="M1310.13 585.126C1310.13 586.951 1308.65 588.431 1306.82 588.431C1305 588.431 1303.52 586.951 1303.52 585.126C1303.52 583.3 1305 581.82 1306.82 581.82C1308.65 581.82 1310.13 583.3 1310.13 585.126" fill="white"/>
<path fill-rule="evenodd" clip-rule="evenodd" d="M1343.18 585.126C1343.18 586.951 1341.7 588.431 1339.88 588.431C1338.05 588.431 1336.57 586.951 1336.57 585.126C1336.57 583.3 1338.05 581.82 1339.88 581.82C1341.7 581.82 1343.18 583.3 1343.18 585.126" fill="white"/>
<path fill-rule="evenodd" clip-rule="evenodd" d="M1376.24 585.126C1376.24 586.951 1374.76 588.431 1372.93 588.431C1371.11 588.431 1369.63 586.951 1369.63 585.126C1369.63 583.3 1371.11 581.82 1372.93 581.82C1374.76 581.82 1376.24 583.3 1376.24 585.126" fill="white"/>
<path fill-rule="evenodd" clip-rule="evenodd" d="M1409.29 585.126C1409.29 586.951 1407.81 588.431 1405.99 588.431C1404.16 588.431 1402.68 586.951 1402.68 585.126C1402.68 583.3 1404.16 581.82 1405.99 581.82C1407.81 581.82 1409.29 583.3 1409.29 585.126" fill="white"/>
<path fill-rule="evenodd" clip-rule="evenodd" d="M1442.35 585.126C1442.35 586.951 1440.87 588.431 1439.04 588.431C1437.22 588.431 1435.74 586.951 1435.74 585.126C1435.74 583.3 1437.22 581.82 1439.04 581.82C1440.87 581.82 1442.35 583.3 1442.35 585.126" fill="white"/>
<path fill-rule="evenodd" clip-rule="evenodd" d="M1475.4 585.126C1475.4 586.951 1473.92 588.431 1472.1 588.431C1470.27 588.431 1468.79 586.951 1468.79 585.126C1468.79 583.3 1470.27 581.82 1472.1 581.82C1473.92 581.82 1475.4 583.3 1475.4 585.126" fill="white"/>
<path fill-rule="evenodd" clip-rule="evenodd" d="M1508.46 585.126C1508.46 586.951 1506.98 588.431 1505.16 588.431C1503.33 588.431 1501.85 586.951 1501.85 585.126C1501.85 583.3 1503.33 581.82 1505.16 581.82C1506.98 581.82 1508.46 583.3 1508.46 585.126" fill="white"/>
<path fill-rule="evenodd" clip-rule="evenodd" d="M1541.52 585.126C1541.52 586.951 1540.04 588.431 1538.21 588.431C1536.38 588.431 1534.9 586.951 1534.9 585.126C1534.9 583.3 1536.38 581.82 1538.21 581.82C1540.04 581.82 1541.52 583.3 1541.52 585.126" fill="white"/>
<path fill-rule="evenodd" clip-rule="evenodd" d="M1310.13 618.182C1310.13 620.007 1308.65 621.487 1306.82 621.487C1305 621.487 1303.52 620.007 1303.52 618.182C1303.52 616.356 1305 614.876 1306.82 614.876C1308.65 614.876 1310.13 616.356 1310.13 618.182" fill="white"/>
<path fill-rule="evenodd" clip-rule="evenodd" d="M1343.18 618.182C1343.18 620.007 1341.7 621.487 1339.88 621.487C1338.05 621.487 1336.57 620.007 1336.57 618.182C1336.57 616.356 1338.05 614.876 1339.88 614.876C1341.7 614.876 1343.18 616.356 1343.18 618.182" fill="white"/>
<path fill-rule="evenodd" clip-rule="evenodd" d="M1376.24 618.182C1376.24 620.007 1374.76 621.487 1372.93 621.487C1371.11 621.487 1369.63 620.007 1369.63 618.182C1369.63 616.356 1371.11 614.876 1372.93 614.876C1374.76 614.876 1376.24 616.356 1376.24 618.182" fill="white"/>
<path fill-rule="evenodd" clip-rule="evenodd" d="M1409.29 618.182C1409.29 620.007 1407.81 621.487 1405.99 621.487C1404.16 621.487 1402.68 620.007 1402.68 618.182C1402.68 616.356 1404.16 614.876 1405.99 614.876C1407.81 614.876 1409.29 616.356 1409.29 618.182" fill="white"/>
<path fill-rule="evenodd" clip-rule="evenodd" d="M1442.35 618.182C1442.35 620.007 1440.87 621.487 1439.04 621.487C1437.22 621.487 1435.74 620.007 1435.74 618.182C1435.74 616.356 1437.22 614.876 1439.04 614.876C1440.87 614.876 1442.35 616.356 1442.35 618.182" fill="white"/>
<path fill-rule="evenodd" clip-rule="evenodd" d="M1475.4 618.182C1475.4 620.007 1473.92 621.487 1472.1 621.487C1470.27 621.487 1468.79 620.007 1468.79 618.182C1468.79 616.356 1470.27 614.876 1472.1 614.876C1473.92 614.876 1475.4 616.356 1475.4 618.182" fill="white"/>
<path fill-rule="evenodd" clip-rule="evenodd" d="M1508.46 618.182C1508.46 620.007 1506.98 621.487 1505.16 621.487C1503.33 621.487 1501.85 620.007 1501.85 618.182C1501.85 616.356 1503.33 614.876 1505.16 614.876C1506.98 614.876 1508.46 616.356 1508.46 618.182" fill="white"/>
<path fill-rule="evenodd" clip-rule="evenodd" d="M1541.52 618.182C1541.52 620.007 1540.04 621.487 1538.21 621.487C1536.38 621.487 1534.9 620.007 1534.9 618.182C1534.9 616.356 1536.38 614.876 1538.21 614.876C1540.04 614.876 1541.52 616.356 1541.52 618.182" fill="white"/>
<path fill-rule="evenodd" clip-rule="evenodd" d="M1310.13 651.237C1310.13 653.063 1308.65 654.543 1306.82 654.543C1305 654.543 1303.52 653.063 1303.52 651.237C1303.52 649.412 1305 647.932 1306.82 647.932C1308.65 647.932 1310.13 649.412 1310.13 651.237" fill="white"/>
<path fill-rule="evenodd" clip-rule="evenodd" d="M1343.18 651.237C1343.18 653.063 1341.7 654.543 1339.88 654.543C1338.05 654.543 1336.57 653.063 1336.57 651.237C1336.57 649.412 1338.05 647.932 1339.88 647.932C1341.7 647.932 1343.18 649.412 1343.18 651.237" fill="white"/>
<path fill-rule="evenodd" clip-rule="evenodd" d="M1376.24 651.237C1376.24 653.063 1374.76 654.543 1372.93 654.543C1371.11 654.543 1369.63 653.063 1369.63 651.237C1369.63 649.412 1371.11 647.932 1372.93 647.932C1374.76 647.932 1376.24 649.412 1376.24 651.237" fill="white"/>
<path fill-rule="evenodd" clip-rule="evenodd" d="M1409.29 651.237C1409.29 653.063 1407.81 654.543 1405.99 654.543C1404.16 654.543 1402.68 653.063 1402.68 651.237C1402.68 649.412 1404.16 647.932 1405.99 647.932C1407.81 647.932 1409.29 649.412 1409.29 651.237" fill="white"/>
<path fill-rule="evenodd" clip-rule="evenodd" d="M1442.35 651.237C1442.35 653.063 1440.87 654.543 1439.04 654.543C1437.22 654.543 1435.74 653.063 1435.74 651.237C1435.74 649.412 1437.22 647.932 1439.04 647.932C1440.87 647.932 1442.35 649.412 1442.35 651.237" fill="white"/>
<path fill-rule="evenodd" clip-rule="evenodd" d="M1475.4 651.237C1475.4 653.063 1473.92 654.543 1472.1 654.543C1470.27 654.543 1468.79 653.063 1468.79 651.237C1468.79 649.412 1470.27 647.932 1472.1 647.932C1473.92 647.932 1475.4 649.412 1475.4 651.237" fill="white"/>
<path fill-rule="evenodd" clip-rule="evenodd" d="M1508.46 651.237C1508.46 653.063 1506.98 654.543 1505.16 654.543C1503.33 654.543 1501.85 653.063 1501.85 651.237C1501.85 649.412 1503.33 647.932 1505.16 647.932C1506.98 647.932 1508.46 649.412 1508.46 651.237" fill="white"/>
<path fill-rule="evenodd" clip-rule="evenodd" d="M1541.52 651.237C1541.52 653.063 1540.04 654.543 1538.21 654.543C1536.38 654.543 1534.9 653.063 1534.9 651.237C1534.9 649.412 1536.38 647.932 1538.21 647.932C1540.04 647.932 1541.52 649.412 1541.52 651.237" fill="white"/>
<path fill-rule="evenodd" clip-rule="evenodd" d="M1491.92 591.812C1489.38 591.812 1487.32 593.976 1487.32 596.636H1488.85C1488.85 594.863 1490.23 593.42 1491.92 593.42V591.812Z" fill="white"/>
<path fill-rule="evenodd" clip-rule="evenodd" d="M1701.8 647.726C1704.22 656.705 1698.45 666.073 1688.95 668.609L1691.14 676.751C1705.39 672.948 1714.04 658.896 1710.41 645.427C1706.79 631.957 1692.25 624.094 1678 627.898L1680.19 636.04C1689.69 633.504 1699.39 638.747 1701.8 647.726" fill="white"/>
<path d="M1916.02 548L1953.51 585.491L1916.02 622.981L1878.52 585.491L1916.02 548Z" stroke="white" stroke-width="4"/>
<rect x="1595" y="96" width="32" height="77" fill="#FF0000"/>
<path fill-rule="evenodd" clip-rule="evenodd" d="M1517.3 417.185C1518.86 422.959 1515.15 428.983 1509.04 430.613L1510.45 435.849C1519.61 433.403 1525.17 424.368 1522.84 415.707C1520.51 407.046 1511.16 401.99 1502 404.435L1503.41 409.671C1509.52 408.04 1515.75 411.412 1517.3 417.185" fill="white"/>
<g clip-path="url(#clip1_2306_36278)">
<path d="M1475.39 143.001H1464V118.712H1487.36C1488.25 118.732 1489.12 118.469 1489.85 117.959C1490.58 117.453 1491.19 116.784 1491.63 116.004C1492.05 115.275 1492.28 114.443 1492.28 113.596C1492.28 112.748 1492.05 111.916 1491.63 111.188C1491.21 110.393 1490.6 109.719 1489.85 109.227C1489.11 108.726 1488.24 108.465 1487.36 108.479H1464V98.0215H1487.36C1490.8 98.0215 1493.76 98.8058 1496.2 100.401C1498.51 101.878 1500.41 103.935 1501.72 106.372C1502.93 108.583 1503.58 111.064 1503.62 113.593C1503.62 115.599 1503.22 117.586 1502.46 119.434C1501.67 121.366 1500.47 123.101 1498.96 124.522C1497.43 126.041 1495.62 127.236 1493.63 128.037C1491.64 128.838 1489.51 129.228 1487.37 129.186H1475.39V143.001V143.001Z" fill="white"/>
<path d="M1577.57 109.572L1571.41 98.0059L1548.48 143.001H1560.37L1577.57 109.572Z" fill="white"/>
<path d="M1582.12 118.451L1572.89 135.884H1579.37L1583 143.001H1594.99L1582.12 118.451Z" fill="white"/>
<path d="M1547.79 111.884C1546.62 109.342 1545.03 107.02 1543.1 105.013C1540.99 102.874 1538.5 101.155 1535.77 99.946C1532.8 98.6539 1529.59 98.0022 1526.36 98.0322H1510.18V108.49V118.833H1520.37V108.469H1526.36C1527.89 108.441 1529.41 108.729 1530.82 109.316C1532.24 109.903 1533.53 110.777 1534.6 111.884C1535.77 113.024 1536.7 114.391 1537.34 115.905C1537.97 117.362 1538.29 118.933 1538.29 120.522C1538.28 122.11 1537.96 123.68 1537.34 125.139C1536.7 126.65 1535.78 128.023 1534.63 129.186C1533.57 130.251 1532.3 131.086 1530.91 131.644C1529.46 132.263 1527.9 132.571 1526.33 132.548H1510.15V143.006L1526.36 142.975C1529.5 142.965 1532.61 142.323 1535.51 141.087C1538.27 139.942 1540.78 138.273 1542.92 136.172C1545.06 134.084 1546.76 131.576 1547.91 128.799C1549.02 126.155 1549.6 123.312 1549.61 120.438C1549.63 117.485 1549.01 114.564 1547.79 111.884V111.884Z" fill="white"/>
</g>
</g>
<defs>
<clipPath id="clip0_2306_36278">
<rect width="1920" height="1080" fill="white"/>
</clipPath>
<clipPath id="clip1_2306_36278">
<rect width="131" height="45" fill="white" transform="translate(1464 98)"/>
</clipPath>
</defs>
</svg>
