<svg id="Capa_1" data-name="Capa 1" xmlns="http://www.w3.org/2000/svg" viewBox="0 0 100 100"><defs><style>.cls-1{fill:#46a6de;}.cls-2{fill:#fff;}</style></defs><rect class="cls-1" width="101.57" height="100"/><path class="cls-2" d="M71.29,45a16.73,16.73,0,0,1-7.14,6.79,26,26,0,0,1-12.26,2.58H41.83V77.43h-12v-60h22.1a26.64,26.64,0,0,1,11.87,2.41,16.69,16.69,0,0,1,7.35,6.62A18.58,18.58,0,0,1,73.56,36,18.79,18.79,0,0,1,71.29,45ZM58.77,42.38A8.35,8.35,0,0,0,61.18,36q0-8.77-9.8-8.78H41.83V44.66h9.55C54.7,44.66,57.17,43.9,58.77,42.38Z"/></svg>