<svg id="Capa_1" data-name="Capa 1" xmlns="http://www.w3.org/2000/svg" viewBox="0 0 100 100"><defs><style>.cls-1{fill:#ec6827;}.cls-2{fill:#fff;}</style></defs><rect class="cls-1" width="101.57" height="100"/><path class="cls-2" d="M60.1,77.43,46.86,54H41.19V77.43h-12v-60H51.68a26.39,26.39,0,0,1,11.87,2.45,17.23,17.23,0,0,1,7.35,6.62,18.13,18.13,0,0,1,2.45,9.33,17.89,17.89,0,0,1-3.44,10.71,17.67,17.67,0,0,1-10.24,6.58L74,77.43ZM41.19,45H51.25c3.27,0,5.7-.79,7.31-2.37A8.81,8.81,0,0,0,61,36.06a8.41,8.41,0,0,0-2.41-6.4c-1.61-1.52-4-2.28-7.31-2.28H41.19Z"/></svg>