<?xml version="1.0" encoding="utf-8"?>
<!-- Generator: Adobe Illustrator 25.4.1, SVG Export Plug-In . SVG Version: 6.00 Build 0)  -->
<svg version="1.1" id="Capa_1" xmlns="http://www.w3.org/2000/svg" xmlns:xlink="http://www.w3.org/1999/xlink" x="0px" y="0px"
	 viewBox="0 0 272.3 50.6" style="enable-background:new 0 0 272.3 50.6;" xml:space="preserve">
<style type="text/css">
	.st0{fill:#0001FD;}
	.st1{enable-background:new    ;}
	.st2{fill:#888888;}
</style>
<g>
	<g>
		<g>
			<path class="st0" d="M12.3,42.9H3V23.3h19c0.8,0,1.4-0.2,2-0.6s1.1-1,1.4-1.6s0.5-1.3,0.5-1.9c0-0.7-0.2-1.3-0.5-1.9
				s-0.8-1.2-1.4-1.6c-0.6-0.4-1.3-0.6-2-0.6H3V6.7h19c2.8,0,5.2,0.6,7.2,1.9s3.5,2.9,4.5,4.8s1.6,3.9,1.6,5.8c0,1.6-0.3,3.2-1,4.7
				c-0.6,1.5-1.6,2.9-2.9,4.1c-2.5,2.5-5.7,3.8-9.4,3.8h-9.8L12.3,42.9L12.3,42.9z"/>
			<g>
				<polygon class="st0" points="97,14.6 91.8,4.8 72.1,42.9 82.3,42.9 				"/>
				<polygon class="st0" points="100.9,21.8 93.1,36.8 98.6,36.8 101.8,42.9 112,42.9 				"/>
			</g>
			<path class="st0" d="M70.3,17.8c-0.9-2-2.2-3.8-3.8-5.5c-1.7-1.7-3.7-3.1-6-4.1s-4.9-1.6-7.7-1.6H39.5V15l0,0v8.4h8.4V15h4.9
				c2.6,0,4.9,0.9,6.7,2.7c1,1,1.7,2,2.3,3.2c0.5,1.2,0.8,2.5,0.8,3.7s-0.3,2.5-0.8,3.7s-1.3,2.3-2.2,3.3c-0.8,0.8-1.8,1.5-3,2
				s-2.4,0.7-3.8,0.7H39.5v8.5h13.3c2.6,0,5.1-0.5,7.5-1.5s4.4-2.3,6.1-4c1.8-1.8,3.2-3.8,4.1-6s1.4-4.4,1.4-6.7
				C71.8,22.2,71.2,19.9,70.3,17.8z"/>
		</g>
	</g>
	<g>
		<g class="st1">
			<path class="st2" d="M144,17.8c0,6.3-5,11.2-11.5,11.2h-7.1v13.4h-4.8V6.5h11.9C139.1,6.5,144,11.3,144,17.8z M139.1,17.8
				c0-3.9-2.8-6.9-6.7-6.9h-7.1v13.6h7.1C136.3,24.5,139.1,21.7,139.1,17.8z"/>
			<path class="st2" d="M163.2,15.4v4.7c-5.4,0-8.8,3.5-8.8,8.9v13.2h-4.5V15.8h4.5v4.8C156.3,17.3,159.4,15.4,163.2,15.4z"/>
			<path class="st2" d="M165.6,29c0-7.8,6.1-14,14.2-14s14.2,6,14.2,14c0,7.8-6.1,14-14.2,14S165.6,37,165.6,29z M189.2,29
				c0-5.4-4.1-9.5-9.5-9.5s-9.5,4.1-9.5,9.5c0,5.4,4.1,9.5,9.5,9.5C185.1,38.7,189.2,34.6,189.2,29z"/>
			<path class="st2" d="M221.6,42.4h-4.5V19.9H206v22.5h-4.5V19.9h-4.8v-4.1h4.8v-1.9c0-6.7,3.5-9.3,10.6-9.3v4.1
				c-3.9,0-6.1,1.5-6.1,5.4v1.7h15.6C221.6,15.8,221.6,42.4,221.6,42.4z M216.4,7.6c0-1.7,1.3-3,3-3s3,1.3,3,3c0,1.7-1.3,3-3,3
				C217.7,10.6,216.4,9.3,216.4,7.6z"/>
			<path class="st2" d="M229.6,5h4.5v37.4h-4.5V5z"/>
			<path class="st2" d="M268.5,31h-23.3c0.7,4.7,4.5,7.8,9.3,7.8c4.1,0,7.3-2,8.6-5h5c-1.9,5.4-7.1,9.1-13.6,9.1
				c-8,0-14.2-6-14.2-14c0-7.8,6.1-14,14.2-14c8,0,14.2,6,14.2,14C268.5,29.5,268.5,30.5,268.5,31z M245.3,26.9h18.6
				c-0.7-4.5-4.7-7.6-9.3-7.6S246.2,22.5,245.3,26.9z"/>
		</g>
	</g>
</g>
</svg>
