<svg width="786" height="976" viewBox="0 0 786 976" fill="none" xmlns="http://www.w3.org/2000/svg">
<g clip-path="url(#clip0_4889_273770)">
<path d="M786 0H-1134V1080H786V0Z" fill="white"/>
<path d="M989.99 -898.43L29.9739 60.6971C-9.09663 99.7314 -9.09663 163.019 29.9739 202.053L989.99 1161.18C1029.06 1200.21 1092.41 1200.21 1131.48 1161.18L2091.49 202.053C2130.56 163.019 2130.56 99.7315 2091.49 60.6971L1131.48 -898.43C1092.41 -937.465 1029.06 -937.465 989.99 -898.43Z" fill="#0094FF"/>
<path fill-rule="evenodd" clip-rule="evenodd" d="M447.61 644.701C447.61 646.525 446.13 648.003 444.31 648.003C442.48 648.003 441 646.525 441 644.701C441 642.877 442.48 641.398 444.31 641.398C446.13 641.398 447.61 642.877 447.61 644.701Z" fill="white"/>
<path fill-rule="evenodd" clip-rule="evenodd" d="M480.672 644.701C480.672 646.525 479.192 648.003 477.362 648.003C475.542 648.003 474.062 646.525 474.062 644.701C474.062 642.877 475.542 641.398 477.362 641.398C479.192 641.398 480.672 642.877 480.672 644.701Z" fill="white"/>
<path fill-rule="evenodd" clip-rule="evenodd" d="M513.719 644.701C513.719 646.525 512.239 648.003 510.419 648.003C508.589 648.003 507.109 646.525 507.109 644.701C507.109 642.877 508.589 641.398 510.419 641.398C512.239 641.398 513.719 642.877 513.719 644.701Z" fill="white"/>
<path fill-rule="evenodd" clip-rule="evenodd" d="M546.782 644.701C546.782 646.525 545.302 648.003 543.472 648.003C541.652 648.003 540.172 646.525 540.172 644.701C540.172 642.877 541.652 641.398 543.472 641.398C545.302 641.398 546.782 642.877 546.782 644.701Z" fill="white"/>
<path fill-rule="evenodd" clip-rule="evenodd" d="M579.829 644.701C579.829 646.525 578.349 648.003 576.529 648.003C574.699 648.003 573.219 646.525 573.219 644.701C573.219 642.877 574.699 641.398 576.529 641.398C578.349 641.398 579.829 642.877 579.829 644.701Z" fill="white"/>
<path fill-rule="evenodd" clip-rule="evenodd" d="M612.891 644.701C612.891 646.525 611.411 648.003 609.581 648.003C607.761 648.003 606.281 646.525 606.281 644.701C606.281 642.877 607.761 641.398 609.581 641.398C611.411 641.398 612.891 642.877 612.891 644.701Z" fill="white"/>
<path fill-rule="evenodd" clip-rule="evenodd" d="M645.938 644.701C645.938 646.525 644.458 648.003 642.638 648.003C640.808 648.003 639.328 646.525 639.328 644.701C639.328 642.877 640.808 641.398 642.638 641.398C644.458 641.398 645.938 642.877 645.938 644.701Z" fill="white"/>
<path fill-rule="evenodd" clip-rule="evenodd" d="M679.001 644.701C679.001 646.525 677.521 648.003 675.691 648.003C673.871 648.003 672.391 646.525 672.391 644.701C672.391 642.877 673.871 641.398 675.691 641.398C677.521 641.398 679.001 642.877 679.001 644.701Z" fill="white"/>
<path fill-rule="evenodd" clip-rule="evenodd" d="M447.61 677.733C447.61 679.556 446.13 681.035 444.31 681.035C442.48 681.035 441 679.556 441 677.733C441 675.909 442.48 674.43 444.31 674.43C446.13 674.43 447.61 675.909 447.61 677.733Z" fill="white"/>
<path fill-rule="evenodd" clip-rule="evenodd" d="M480.672 677.733C480.672 679.556 479.192 681.035 477.362 681.035C475.542 681.035 474.062 679.556 474.062 677.733C474.062 675.909 475.542 674.43 477.362 674.43C479.192 674.43 480.672 675.909 480.672 677.733Z" fill="white"/>
<path fill-rule="evenodd" clip-rule="evenodd" d="M513.719 677.733C513.719 679.556 512.239 681.035 510.419 681.035C508.589 681.035 507.109 679.556 507.109 677.733C507.109 675.909 508.589 674.43 510.419 674.43C512.239 674.43 513.719 675.909 513.719 677.733Z" fill="white"/>
<path fill-rule="evenodd" clip-rule="evenodd" d="M546.782 677.733C546.782 679.556 545.302 681.035 543.472 681.035C541.652 681.035 540.172 679.556 540.172 677.733C540.172 675.909 541.652 674.43 543.472 674.43C545.302 674.43 546.782 675.909 546.782 677.733Z" fill="white"/>
<path fill-rule="evenodd" clip-rule="evenodd" d="M579.829 677.733C579.829 679.556 578.349 681.035 576.529 681.035C574.699 681.035 573.219 679.556 573.219 677.733C573.219 675.909 574.699 674.43 576.529 674.43C578.349 674.43 579.829 675.909 579.829 677.733Z" fill="white"/>
<path fill-rule="evenodd" clip-rule="evenodd" d="M612.891 677.733C612.891 679.556 611.411 681.035 609.581 681.035C607.761 681.035 606.281 679.556 606.281 677.733C606.281 675.909 607.761 674.43 609.581 674.43C611.411 674.43 612.891 675.909 612.891 677.733Z" fill="white"/>
<path fill-rule="evenodd" clip-rule="evenodd" d="M645.938 677.733C645.938 679.556 644.458 681.035 642.638 681.035C640.808 681.035 639.328 679.556 639.328 677.733C639.328 675.909 640.808 674.43 642.638 674.43C644.458 674.43 645.938 675.909 645.938 677.733Z" fill="white"/>
<path fill-rule="evenodd" clip-rule="evenodd" d="M679.001 677.733C679.001 679.556 677.521 681.035 675.691 681.035C673.871 681.035 672.391 679.556 672.391 677.733C672.391 675.909 673.871 674.43 675.691 674.43C677.521 674.43 679.001 675.909 679.001 677.733Z" fill="white"/>
<path fill-rule="evenodd" clip-rule="evenodd" d="M447.61 710.756C447.61 712.58 446.13 714.058 444.31 714.058C442.48 714.058 441 712.58 441 710.756C441 708.932 442.48 707.453 444.31 707.453C446.13 707.453 447.61 708.932 447.61 710.756Z" fill="white"/>
<path fill-rule="evenodd" clip-rule="evenodd" d="M480.672 710.756C480.672 712.58 479.192 714.058 477.362 714.058C475.542 714.058 474.062 712.58 474.062 710.756C474.062 708.932 475.542 707.453 477.362 707.453C479.192 707.453 480.672 708.932 480.672 710.756Z" fill="white"/>
<path fill-rule="evenodd" clip-rule="evenodd" d="M513.719 710.756C513.719 712.58 512.239 714.058 510.419 714.058C508.589 714.058 507.109 712.58 507.109 710.756C507.109 708.932 508.589 707.453 510.419 707.453C512.239 707.453 513.719 708.932 513.719 710.756Z" fill="white"/>
<path fill-rule="evenodd" clip-rule="evenodd" d="M546.782 710.756C546.782 712.58 545.302 714.058 543.472 714.058C541.652 714.058 540.172 712.58 540.172 710.756C540.172 708.932 541.652 707.453 543.472 707.453C545.302 707.453 546.782 708.932 546.782 710.756Z" fill="white"/>
<path fill-rule="evenodd" clip-rule="evenodd" d="M579.829 710.756C579.829 712.58 578.349 714.058 576.529 714.058C574.699 714.058 573.219 712.58 573.219 710.756C573.219 708.932 574.699 707.453 576.529 707.453C578.349 707.453 579.829 708.932 579.829 710.756Z" fill="white"/>
<path fill-rule="evenodd" clip-rule="evenodd" d="M612.891 710.756C612.891 712.58 611.411 714.058 609.581 714.058C607.761 714.058 606.281 712.58 606.281 710.756C606.281 708.932 607.761 707.453 609.581 707.453C611.411 707.453 612.891 708.932 612.891 710.756Z" fill="white"/>
<path fill-rule="evenodd" clip-rule="evenodd" d="M645.938 710.756C645.938 712.58 644.458 714.058 642.638 714.058C640.808 714.058 639.328 712.58 639.328 710.756C639.328 708.932 640.808 707.453 642.638 707.453C644.458 707.453 645.938 708.932 645.938 710.756Z" fill="white"/>
<path fill-rule="evenodd" clip-rule="evenodd" d="M679.001 710.756C679.001 712.58 677.521 714.058 675.691 714.058C673.871 714.058 672.391 712.58 672.391 710.756C672.391 708.932 673.871 707.453 675.691 707.453C677.521 707.453 679.001 708.932 679.001 710.756Z" fill="white"/>
<path fill-rule="evenodd" clip-rule="evenodd" d="M447.61 743.78C447.61 745.604 446.13 747.082 444.31 747.082C442.48 747.082 441 745.604 441 743.78C441 741.956 442.48 740.477 444.31 740.477C446.13 740.477 447.61 741.956 447.61 743.78Z" fill="white"/>
<path fill-rule="evenodd" clip-rule="evenodd" d="M480.672 743.78C480.672 745.604 479.192 747.082 477.362 747.082C475.542 747.082 474.062 745.604 474.062 743.78C474.062 741.956 475.542 740.477 477.362 740.477C479.192 740.477 480.672 741.956 480.672 743.78Z" fill="white"/>
<path fill-rule="evenodd" clip-rule="evenodd" d="M513.719 743.78C513.719 745.604 512.239 747.082 510.419 747.082C508.589 747.082 507.109 745.604 507.109 743.78C507.109 741.956 508.589 740.477 510.419 740.477C512.239 740.477 513.719 741.956 513.719 743.78Z" fill="white"/>
<path fill-rule="evenodd" clip-rule="evenodd" d="M546.782 743.78C546.782 745.604 545.302 747.082 543.472 747.082C541.652 747.082 540.172 745.604 540.172 743.78C540.172 741.956 541.652 740.477 543.472 740.477C545.302 740.477 546.782 741.956 546.782 743.78Z" fill="white"/>
<path fill-rule="evenodd" clip-rule="evenodd" d="M579.829 743.78C579.829 745.604 578.349 747.082 576.529 747.082C574.699 747.082 573.219 745.604 573.219 743.78C573.219 741.956 574.699 740.477 576.529 740.477C578.349 740.477 579.829 741.956 579.829 743.78Z" fill="white"/>
<path fill-rule="evenodd" clip-rule="evenodd" d="M612.891 743.78C612.891 745.604 611.411 747.082 609.581 747.082C607.761 747.082 606.281 745.604 606.281 743.78C606.281 741.956 607.761 740.477 609.581 740.477C611.411 740.477 612.891 741.956 612.891 743.78Z" fill="white"/>
<path fill-rule="evenodd" clip-rule="evenodd" d="M645.938 743.78C645.938 745.604 644.458 747.082 642.638 747.082C640.808 747.082 639.328 745.604 639.328 743.78C639.328 741.956 640.808 740.477 642.638 740.477C644.458 740.477 645.938 741.956 645.938 743.78Z" fill="white"/>
<path fill-rule="evenodd" clip-rule="evenodd" d="M679.001 743.78C679.001 745.604 677.521 747.082 675.691 747.082C673.871 747.082 672.391 745.604 672.391 743.78C672.391 741.956 673.871 740.477 675.691 740.477C677.521 740.477 679.001 741.956 679.001 743.78Z" fill="white"/>
<path fill-rule="evenodd" clip-rule="evenodd" d="M447.61 776.803C447.61 778.626 446.13 780.105 444.31 780.105C442.48 780.105 441 778.626 441 776.803C441 774.979 442.48 773.5 444.31 773.5C446.13 773.5 447.61 774.979 447.61 776.803Z" fill="white"/>
<path fill-rule="evenodd" clip-rule="evenodd" d="M480.672 776.803C480.672 778.626 479.192 780.105 477.362 780.105C475.542 780.105 474.062 778.626 474.062 776.803C474.062 774.979 475.542 773.5 477.362 773.5C479.192 773.5 480.672 774.979 480.672 776.803Z" fill="white"/>
<path fill-rule="evenodd" clip-rule="evenodd" d="M513.719 776.803C513.719 778.626 512.239 780.105 510.419 780.105C508.589 780.105 507.109 778.626 507.109 776.803C507.109 774.979 508.589 773.5 510.419 773.5C512.239 773.5 513.719 774.979 513.719 776.803Z" fill="white"/>
<path fill-rule="evenodd" clip-rule="evenodd" d="M546.782 776.803C546.782 778.626 545.302 780.105 543.472 780.105C541.652 780.105 540.172 778.626 540.172 776.803C540.172 774.979 541.652 773.5 543.472 773.5C545.302 773.5 546.782 774.979 546.782 776.803Z" fill="white"/>
<path fill-rule="evenodd" clip-rule="evenodd" d="M579.829 776.803C579.829 778.626 578.349 780.105 576.529 780.105C574.699 780.105 573.219 778.626 573.219 776.803C573.219 774.979 574.699 773.5 576.529 773.5C578.349 773.5 579.829 774.979 579.829 776.803Z" fill="white"/>
<path fill-rule="evenodd" clip-rule="evenodd" d="M612.891 776.803C612.891 778.626 611.411 780.105 609.581 780.105C607.761 780.105 606.281 778.626 606.281 776.803C606.281 774.979 607.761 773.5 609.581 773.5C611.411 773.5 612.891 774.979 612.891 776.803Z" fill="white"/>
<path fill-rule="evenodd" clip-rule="evenodd" d="M645.938 776.803C645.938 778.626 644.458 780.105 642.638 780.105C640.808 780.105 639.328 778.626 639.328 776.803C639.328 774.979 640.808 773.5 642.638 773.5C644.458 773.5 645.938 774.979 645.938 776.803Z" fill="white"/>
<path fill-rule="evenodd" clip-rule="evenodd" d="M679.001 776.803C679.001 778.626 677.521 780.105 675.691 780.105C673.871 780.105 672.391 778.626 672.391 776.803C672.391 774.979 673.871 773.5 675.691 773.5C677.521 773.5 679.001 774.979 679.001 776.803Z" fill="white"/>
<path fill-rule="evenodd" clip-rule="evenodd" d="M447.61 809.826C447.61 811.65 446.13 813.128 444.31 813.128C442.48 813.128 441 811.65 441 809.826C441 808.002 442.48 806.523 444.31 806.523C446.13 806.523 447.61 808.002 447.61 809.826Z" fill="white"/>
<path fill-rule="evenodd" clip-rule="evenodd" d="M480.672 809.826C480.672 811.65 479.192 813.128 477.362 813.128C475.542 813.128 474.062 811.65 474.062 809.826C474.062 808.002 475.542 806.523 477.362 806.523C479.192 806.523 480.672 808.002 480.672 809.826Z" fill="white"/>
<path fill-rule="evenodd" clip-rule="evenodd" d="M513.719 809.826C513.719 811.65 512.239 813.128 510.419 813.128C508.589 813.128 507.109 811.65 507.109 809.826C507.109 808.002 508.589 806.523 510.419 806.523C512.239 806.523 513.719 808.002 513.719 809.826Z" fill="white"/>
<path fill-rule="evenodd" clip-rule="evenodd" d="M546.782 809.826C546.782 811.65 545.302 813.128 543.472 813.128C541.652 813.128 540.172 811.65 540.172 809.826C540.172 808.002 541.652 806.523 543.472 806.523C545.302 806.523 546.782 808.002 546.782 809.826Z" fill="white"/>
<path fill-rule="evenodd" clip-rule="evenodd" d="M579.829 809.826C579.829 811.65 578.349 813.128 576.529 813.128C574.699 813.128 573.219 811.65 573.219 809.826C573.219 808.002 574.699 806.523 576.529 806.523C578.349 806.523 579.829 808.002 579.829 809.826Z" fill="white"/>
<path fill-rule="evenodd" clip-rule="evenodd" d="M612.891 809.826C612.891 811.65 611.411 813.128 609.581 813.128C607.761 813.128 606.281 811.65 606.281 809.826C606.281 808.002 607.761 806.523 609.581 806.523C611.411 806.523 612.891 808.002 612.891 809.826Z" fill="white"/>
<path fill-rule="evenodd" clip-rule="evenodd" d="M645.938 809.826C645.938 811.65 644.458 813.128 642.638 813.128C640.808 813.128 639.328 811.65 639.328 809.826C639.328 808.002 640.808 806.523 642.638 806.523C644.458 806.523 645.938 808.002 645.938 809.826Z" fill="white"/>
<path fill-rule="evenodd" clip-rule="evenodd" d="M679.001 809.826C679.001 811.65 677.521 813.128 675.691 813.128C673.871 813.128 672.391 811.65 672.391 809.826C672.391 808.002 673.871 806.523 675.691 806.523C677.521 806.523 679.001 808.002 679.001 809.826Z" fill="white"/>
<path fill-rule="evenodd" clip-rule="evenodd" d="M447.61 842.858C447.61 844.681 446.13 846.16 444.31 846.16C442.48 846.16 441 844.681 441 842.858C441 841.034 442.48 839.555 444.31 839.555C446.13 839.555 447.61 841.034 447.61 842.858Z" fill="white"/>
<path fill-rule="evenodd" clip-rule="evenodd" d="M480.672 842.858C480.672 844.681 479.192 846.16 477.362 846.16C475.542 846.16 474.062 844.681 474.062 842.858C474.062 841.034 475.542 839.555 477.362 839.555C479.192 839.555 480.672 841.034 480.672 842.858Z" fill="white"/>
<path fill-rule="evenodd" clip-rule="evenodd" d="M513.719 842.858C513.719 844.681 512.239 846.16 510.419 846.16C508.589 846.16 507.109 844.681 507.109 842.858C507.109 841.034 508.589 839.555 510.419 839.555C512.239 839.555 513.719 841.034 513.719 842.858Z" fill="white"/>
<path fill-rule="evenodd" clip-rule="evenodd" d="M546.782 842.858C546.782 844.681 545.302 846.16 543.472 846.16C541.652 846.16 540.172 844.681 540.172 842.858C540.172 841.034 541.652 839.555 543.472 839.555C545.302 839.555 546.782 841.034 546.782 842.858Z" fill="white"/>
<path fill-rule="evenodd" clip-rule="evenodd" d="M579.829 842.858C579.829 844.681 578.349 846.16 576.529 846.16C574.699 846.16 573.219 844.681 573.219 842.858C573.219 841.034 574.699 839.555 576.529 839.555C578.349 839.555 579.829 841.034 579.829 842.858Z" fill="white"/>
<path fill-rule="evenodd" clip-rule="evenodd" d="M612.891 842.858C612.891 844.681 611.411 846.16 609.581 846.16C607.761 846.16 606.281 844.681 606.281 842.858C606.281 841.034 607.761 839.555 609.581 839.555C611.411 839.555 612.891 841.034 612.891 842.858Z" fill="white"/>
<path fill-rule="evenodd" clip-rule="evenodd" d="M645.938 842.858C645.938 844.681 644.458 846.16 642.638 846.16C640.808 846.16 639.328 844.681 639.328 842.858C639.328 841.034 640.808 839.555 642.638 839.555C644.458 839.555 645.938 841.034 645.938 842.858Z" fill="white"/>
<path fill-rule="evenodd" clip-rule="evenodd" d="M679.001 842.858C679.001 844.681 677.521 846.16 675.691 846.16C673.871 846.16 672.391 844.681 672.391 842.858C672.391 841.034 673.871 839.555 675.691 839.555C677.521 839.555 679.001 841.034 679.001 842.858Z" fill="white"/>
<path fill-rule="evenodd" clip-rule="evenodd" d="M447.61 875.881C447.61 877.704 446.13 879.183 444.31 879.183C442.48 879.183 441 877.704 441 875.881C441 874.057 442.48 872.578 444.31 872.578C446.13 872.578 447.61 874.057 447.61 875.881Z" fill="white"/>
<path fill-rule="evenodd" clip-rule="evenodd" d="M480.672 875.881C480.672 877.704 479.192 879.183 477.362 879.183C475.542 879.183 474.062 877.704 474.062 875.881C474.062 874.057 475.542 872.578 477.362 872.578C479.192 872.578 480.672 874.057 480.672 875.881Z" fill="white"/>
<path fill-rule="evenodd" clip-rule="evenodd" d="M513.719 875.881C513.719 877.704 512.239 879.183 510.419 879.183C508.589 879.183 507.109 877.704 507.109 875.881C507.109 874.057 508.589 872.578 510.419 872.578C512.239 872.578 513.719 874.057 513.719 875.881Z" fill="white"/>
<path fill-rule="evenodd" clip-rule="evenodd" d="M546.782 875.881C546.782 877.704 545.302 879.183 543.472 879.183C541.652 879.183 540.172 877.704 540.172 875.881C540.172 874.057 541.652 872.578 543.472 872.578C545.302 872.578 546.782 874.057 546.782 875.881Z" fill="white"/>
<path fill-rule="evenodd" clip-rule="evenodd" d="M579.829 875.881C579.829 877.704 578.349 879.183 576.529 879.183C574.699 879.183 573.219 877.704 573.219 875.881C573.219 874.057 574.699 872.578 576.529 872.578C578.349 872.578 579.829 874.057 579.829 875.881Z" fill="white"/>
<path fill-rule="evenodd" clip-rule="evenodd" d="M612.891 875.881C612.891 877.704 611.411 879.183 609.581 879.183C607.761 879.183 606.281 877.704 606.281 875.881C606.281 874.057 607.761 872.578 609.581 872.578C611.411 872.578 612.891 874.057 612.891 875.881Z" fill="white"/>
<path fill-rule="evenodd" clip-rule="evenodd" d="M645.938 875.881C645.938 877.704 644.458 879.183 642.638 879.183C640.808 879.183 639.328 877.704 639.328 875.881C639.328 874.057 640.808 872.578 642.638 872.578C644.458 872.578 645.938 874.057 645.938 875.881Z" fill="white"/>
<path fill-rule="evenodd" clip-rule="evenodd" d="M679.001 875.881C679.001 877.704 677.521 879.183 675.691 879.183C673.871 879.183 672.391 877.704 672.391 875.881C672.391 874.057 673.871 872.578 675.691 872.578C677.521 872.578 679.001 874.057 679.001 875.881Z" fill="white"/>
<path fill-rule="evenodd" clip-rule="evenodd" d="M39.1295 282.583C39.1295 284.407 37.6495 285.886 35.8195 285.886C33.9995 285.886 32.5195 284.407 32.5195 282.583C32.5195 280.759 33.9995 279.281 35.8195 279.281C37.6495 279.281 39.1295 280.759 39.1295 282.583Z" fill="white"/>
<path fill-rule="evenodd" clip-rule="evenodd" d="M72.1804 282.583C72.1804 284.407 70.7004 285.886 68.8804 285.886C67.0504 285.886 65.5703 284.407 65.5703 282.583C65.5703 280.759 67.0504 279.281 68.8804 279.281C70.7004 279.281 72.1804 280.759 72.1804 282.583Z" fill="white"/>
<path fill-rule="evenodd" clip-rule="evenodd" d="M105.239 282.583C105.239 284.407 103.759 285.886 101.929 285.886C100.109 285.886 98.6289 284.407 98.6289 282.583C98.6289 280.759 100.109 279.281 101.929 279.281C103.759 279.281 105.239 280.759 105.239 282.583Z" fill="white"/>
<path fill-rule="evenodd" clip-rule="evenodd" d="M138.29 282.583C138.29 284.407 136.81 285.886 134.99 285.886C133.16 285.886 131.68 284.407 131.68 282.583C131.68 280.759 133.16 279.281 134.99 279.281C136.81 279.281 138.29 280.759 138.29 282.583Z" fill="white"/>
<path fill-rule="evenodd" clip-rule="evenodd" d="M171.348 282.583C171.348 284.407 169.868 285.886 168.038 285.886C166.218 285.886 164.738 284.407 164.738 282.583C164.738 280.759 166.218 279.281 168.038 279.281C169.868 279.281 171.348 280.759 171.348 282.583Z" fill="white"/>
<path fill-rule="evenodd" clip-rule="evenodd" d="M204.399 282.583C204.399 284.407 202.919 285.886 201.099 285.886C199.269 285.886 197.789 284.407 197.789 282.583C197.789 280.759 199.269 279.281 201.099 279.281C202.919 279.281 204.399 280.759 204.399 282.583Z" fill="white"/>
<path fill-rule="evenodd" clip-rule="evenodd" d="M237.462 282.583C237.462 284.407 235.982 285.886 234.152 285.886C232.332 285.886 230.852 284.407 230.852 282.583C230.852 280.759 232.332 279.281 234.152 279.281C235.982 279.281 237.462 280.759 237.462 282.583Z" fill="white"/>
<path fill-rule="evenodd" clip-rule="evenodd" d="M270.518 282.583C270.518 284.407 269.038 285.886 267.208 285.886C265.378 285.886 263.898 284.407 263.898 282.583C263.898 280.759 265.378 279.281 267.208 279.281C269.038 279.281 270.518 280.759 270.518 282.583Z" fill="white"/>
<path fill-rule="evenodd" clip-rule="evenodd" d="M39.1295 315.607C39.1295 317.431 37.6495 318.91 35.8195 318.91C33.9995 318.91 32.5195 317.431 32.5195 315.607C32.5195 313.783 33.9995 312.305 35.8195 312.305C37.6495 312.305 39.1295 313.783 39.1295 315.607Z" fill="white"/>
<path fill-rule="evenodd" clip-rule="evenodd" d="M72.1804 315.607C72.1804 317.431 70.7004 318.91 68.8804 318.91C67.0504 318.91 65.5703 317.431 65.5703 315.607C65.5703 313.783 67.0504 312.305 68.8804 312.305C70.7004 312.305 72.1804 313.783 72.1804 315.607Z" fill="white"/>
<path fill-rule="evenodd" clip-rule="evenodd" d="M105.239 315.607C105.239 317.431 103.759 318.91 101.929 318.91C100.109 318.91 98.6289 317.431 98.6289 315.607C98.6289 313.783 100.109 312.305 101.929 312.305C103.759 312.305 105.239 313.783 105.239 315.607Z" fill="white"/>
<path fill-rule="evenodd" clip-rule="evenodd" d="M138.29 315.607C138.29 317.431 136.81 318.91 134.99 318.91C133.16 318.91 131.68 317.431 131.68 315.607C131.68 313.783 133.16 312.305 134.99 312.305C136.81 312.305 138.29 313.783 138.29 315.607Z" fill="white"/>
<path fill-rule="evenodd" clip-rule="evenodd" d="M171.348 315.607C171.348 317.431 169.868 318.91 168.038 318.91C166.218 318.91 164.738 317.431 164.738 315.607C164.738 313.783 166.218 312.305 168.038 312.305C169.868 312.305 171.348 313.783 171.348 315.607Z" fill="white"/>
<path fill-rule="evenodd" clip-rule="evenodd" d="M204.399 315.607C204.399 317.431 202.919 318.91 201.099 318.91C199.269 318.91 197.789 317.431 197.789 315.607C197.789 313.783 199.269 312.305 201.099 312.305C202.919 312.305 204.399 313.783 204.399 315.607Z" fill="white"/>
<path fill-rule="evenodd" clip-rule="evenodd" d="M237.462 315.607C237.462 317.431 235.982 318.91 234.152 318.91C232.332 318.91 230.852 317.431 230.852 315.607C230.852 313.783 232.332 312.305 234.152 312.305C235.982 312.305 237.462 313.783 237.462 315.607Z" fill="white"/>
<path fill-rule="evenodd" clip-rule="evenodd" d="M270.518 315.607C270.518 317.431 269.038 318.91 267.208 318.91C265.378 318.91 263.898 317.431 263.898 315.607C263.898 313.783 265.378 312.305 267.208 312.305C269.038 312.305 270.518 313.783 270.518 315.607Z" fill="white"/>
<path fill-rule="evenodd" clip-rule="evenodd" d="M39.1295 348.631C39.1295 350.455 37.6495 351.933 35.8195 351.933C33.9995 351.933 32.5195 350.455 32.5195 348.631C32.5195 346.807 33.9995 345.328 35.8195 345.328C37.6495 345.328 39.1295 346.807 39.1295 348.631Z" fill="white"/>
<path fill-rule="evenodd" clip-rule="evenodd" d="M72.1804 348.631C72.1804 350.455 70.7004 351.933 68.8804 351.933C67.0504 351.933 65.5703 350.455 65.5703 348.631C65.5703 346.807 67.0504 345.328 68.8804 345.328C70.7004 345.328 72.1804 346.807 72.1804 348.631Z" fill="white"/>
<path fill-rule="evenodd" clip-rule="evenodd" d="M105.239 348.631C105.239 350.455 103.759 351.933 101.929 351.933C100.109 351.933 98.6289 350.455 98.6289 348.631C98.6289 346.807 100.109 345.328 101.929 345.328C103.759 345.328 105.239 346.807 105.239 348.631Z" fill="white"/>
<path fill-rule="evenodd" clip-rule="evenodd" d="M138.29 348.631C138.29 350.455 136.81 351.933 134.99 351.933C133.16 351.933 131.68 350.455 131.68 348.631C131.68 346.807 133.16 345.328 134.99 345.328C136.81 345.328 138.29 346.807 138.29 348.631Z" fill="white"/>
<path fill-rule="evenodd" clip-rule="evenodd" d="M171.348 348.631C171.348 350.455 169.868 351.933 168.038 351.933C166.218 351.933 164.738 350.455 164.738 348.631C164.738 346.807 166.218 345.328 168.038 345.328C169.868 345.328 171.348 346.807 171.348 348.631Z" fill="white"/>
<path fill-rule="evenodd" clip-rule="evenodd" d="M204.399 348.631C204.399 350.455 202.919 351.933 201.099 351.933C199.269 351.933 197.789 350.455 197.789 348.631C197.789 346.807 199.269 345.328 201.099 345.328C202.919 345.328 204.399 346.807 204.399 348.631Z" fill="white"/>
<path fill-rule="evenodd" clip-rule="evenodd" d="M237.462 348.631C237.462 350.455 235.982 351.933 234.152 351.933C232.332 351.933 230.852 350.455 230.852 348.631C230.852 346.807 232.332 345.328 234.152 345.328C235.982 345.328 237.462 346.807 237.462 348.631Z" fill="white"/>
<path fill-rule="evenodd" clip-rule="evenodd" d="M270.518 348.631C270.518 350.455 269.038 351.933 267.208 351.933C265.378 351.933 263.898 350.455 263.898 348.631C263.898 346.807 265.378 345.328 267.208 345.328C269.038 345.328 270.518 346.807 270.518 348.631Z" fill="white"/>
<path fill-rule="evenodd" clip-rule="evenodd" d="M39.1295 381.655C39.1295 383.479 37.6495 384.957 35.8195 384.957C33.9995 384.957 32.5195 383.479 32.5195 381.655C32.5195 379.831 33.9995 378.352 35.8195 378.352C37.6495 378.352 39.1295 379.831 39.1295 381.655Z" fill="white"/>
<path fill-rule="evenodd" clip-rule="evenodd" d="M72.1804 381.655C72.1804 383.479 70.7004 384.957 68.8804 384.957C67.0504 384.957 65.5703 383.479 65.5703 381.655C65.5703 379.831 67.0504 378.352 68.8804 378.352C70.7004 378.352 72.1804 379.831 72.1804 381.655Z" fill="white"/>
<path fill-rule="evenodd" clip-rule="evenodd" d="M105.239 381.655C105.239 383.479 103.759 384.957 101.929 384.957C100.109 384.957 98.6289 383.479 98.6289 381.655C98.6289 379.831 100.109 378.352 101.929 378.352C103.759 378.352 105.239 379.831 105.239 381.655Z" fill="white"/>
<path fill-rule="evenodd" clip-rule="evenodd" d="M138.29 381.655C138.29 383.479 136.81 384.957 134.99 384.957C133.16 384.957 131.68 383.479 131.68 381.655C131.68 379.831 133.16 378.352 134.99 378.352C136.81 378.352 138.29 379.831 138.29 381.655Z" fill="white"/>
<path fill-rule="evenodd" clip-rule="evenodd" d="M171.348 381.655C171.348 383.479 169.868 384.957 168.038 384.957C166.218 384.957 164.738 383.479 164.738 381.655C164.738 379.831 166.218 378.352 168.038 378.352C169.868 378.352 171.348 379.831 171.348 381.655Z" fill="white"/>
<path fill-rule="evenodd" clip-rule="evenodd" d="M204.399 381.655C204.399 383.479 202.919 384.957 201.099 384.957C199.269 384.957 197.789 383.479 197.789 381.655C197.789 379.831 199.269 378.352 201.099 378.352C202.919 378.352 204.399 379.831 204.399 381.655Z" fill="white"/>
<path fill-rule="evenodd" clip-rule="evenodd" d="M237.462 381.655C237.462 383.479 235.982 384.957 234.152 384.957C232.332 384.957 230.852 383.479 230.852 381.655C230.852 379.831 232.332 378.352 234.152 378.352C235.982 378.352 237.462 379.831 237.462 381.655Z" fill="white"/>
<path fill-rule="evenodd" clip-rule="evenodd" d="M270.518 381.655C270.518 383.479 269.038 384.957 267.208 384.957C265.378 384.957 263.898 383.479 263.898 381.655C263.898 379.831 265.378 378.352 267.208 378.352C269.038 378.352 270.518 379.831 270.518 381.655Z" fill="white"/>
<path fill-rule="evenodd" clip-rule="evenodd" d="M39.1295 414.685C39.1295 416.509 37.6495 417.988 35.8195 417.988C33.9995 417.988 32.5195 416.509 32.5195 414.685C32.5195 412.861 33.9995 411.383 35.8195 411.383C37.6495 411.383 39.1295 412.861 39.1295 414.685Z" fill="white"/>
<path fill-rule="evenodd" clip-rule="evenodd" d="M72.1804 414.685C72.1804 416.509 70.7004 417.988 68.8804 417.988C67.0504 417.988 65.5703 416.509 65.5703 414.685C65.5703 412.861 67.0504 411.383 68.8804 411.383C70.7004 411.383 72.1804 412.861 72.1804 414.685Z" fill="white"/>
<path fill-rule="evenodd" clip-rule="evenodd" d="M105.239 414.685C105.239 416.509 103.759 417.988 101.929 417.988C100.109 417.988 98.6289 416.509 98.6289 414.685C98.6289 412.861 100.109 411.383 101.929 411.383C103.759 411.383 105.239 412.861 105.239 414.685Z" fill="white"/>
<path fill-rule="evenodd" clip-rule="evenodd" d="M138.29 414.685C138.29 416.509 136.81 417.988 134.99 417.988C133.16 417.988 131.68 416.509 131.68 414.685C131.68 412.861 133.16 411.383 134.99 411.383C136.81 411.383 138.29 412.861 138.29 414.685Z" fill="white"/>
<path fill-rule="evenodd" clip-rule="evenodd" d="M171.348 414.685C171.348 416.509 169.868 417.988 168.038 417.988C166.218 417.988 164.738 416.509 164.738 414.685C164.738 412.861 166.218 411.383 168.038 411.383C169.868 411.383 171.348 412.861 171.348 414.685Z" fill="white"/>
<path fill-rule="evenodd" clip-rule="evenodd" d="M204.399 414.685C204.399 416.509 202.919 417.988 201.099 417.988C199.269 417.988 197.789 416.509 197.789 414.685C197.789 412.861 199.269 411.383 201.099 411.383C202.919 411.383 204.399 412.861 204.399 414.685Z" fill="white"/>
<path fill-rule="evenodd" clip-rule="evenodd" d="M237.462 414.685C237.462 416.509 235.982 417.988 234.152 417.988C232.332 417.988 230.852 416.509 230.852 414.685C230.852 412.861 232.332 411.383 234.152 411.383C235.982 411.383 237.462 412.861 237.462 414.685Z" fill="white"/>
<path fill-rule="evenodd" clip-rule="evenodd" d="M270.518 414.685C270.518 416.509 269.038 417.988 267.208 417.988C265.378 417.988 263.898 416.509 263.898 414.685C263.898 412.861 265.378 411.383 267.208 411.383C269.038 411.383 270.518 412.861 270.518 414.685Z" fill="white"/>
<path fill-rule="evenodd" clip-rule="evenodd" d="M39.1295 447.708C39.1295 449.532 37.6495 451.011 35.8195 451.011C33.9995 451.011 32.5195 449.532 32.5195 447.708C32.5195 445.884 33.9995 444.406 35.8195 444.406C37.6495 444.406 39.1295 445.884 39.1295 447.708Z" fill="white"/>
<path fill-rule="evenodd" clip-rule="evenodd" d="M72.1804 447.708C72.1804 449.532 70.7004 451.011 68.8804 451.011C67.0504 451.011 65.5703 449.532 65.5703 447.708C65.5703 445.884 67.0504 444.406 68.8804 444.406C70.7004 444.406 72.1804 445.884 72.1804 447.708Z" fill="white"/>
<path fill-rule="evenodd" clip-rule="evenodd" d="M105.239 447.708C105.239 449.532 103.759 451.011 101.929 451.011C100.109 451.011 98.6289 449.532 98.6289 447.708C98.6289 445.884 100.109 444.406 101.929 444.406C103.759 444.406 105.239 445.884 105.239 447.708Z" fill="white"/>
<path fill-rule="evenodd" clip-rule="evenodd" d="M138.29 447.708C138.29 449.532 136.81 451.011 134.99 451.011C133.16 451.011 131.68 449.532 131.68 447.708C131.68 445.884 133.16 444.406 134.99 444.406C136.81 444.406 138.29 445.884 138.29 447.708Z" fill="white"/>
<path fill-rule="evenodd" clip-rule="evenodd" d="M171.348 447.708C171.348 449.532 169.868 451.011 168.038 451.011C166.218 451.011 164.738 449.532 164.738 447.708C164.738 445.884 166.218 444.406 168.038 444.406C169.868 444.406 171.348 445.884 171.348 447.708Z" fill="white"/>
<path fill-rule="evenodd" clip-rule="evenodd" d="M204.399 447.708C204.399 449.532 202.919 451.011 201.099 451.011C199.269 451.011 197.789 449.532 197.789 447.708C197.789 445.884 199.269 444.406 201.099 444.406C202.919 444.406 204.399 445.884 204.399 447.708Z" fill="white"/>
<path fill-rule="evenodd" clip-rule="evenodd" d="M237.462 447.708C237.462 449.532 235.982 451.011 234.152 451.011C232.332 451.011 230.852 449.532 230.852 447.708C230.852 445.884 232.332 444.406 234.152 444.406C235.982 444.406 237.462 445.884 237.462 447.708Z" fill="white"/>
<path fill-rule="evenodd" clip-rule="evenodd" d="M270.518 447.708C270.518 449.532 269.038 451.011 267.208 451.011C265.378 451.011 263.898 449.532 263.898 447.708C263.898 445.884 265.378 444.406 267.208 444.406C269.038 444.406 270.518 445.884 270.518 447.708Z" fill="white"/>
<path fill-rule="evenodd" clip-rule="evenodd" d="M39.1295 480.732C39.1295 482.556 37.6495 484.035 35.8195 484.035C33.9995 484.035 32.5195 482.556 32.5195 480.732C32.5195 478.908 33.9995 477.43 35.8195 477.43C37.6495 477.43 39.1295 478.908 39.1295 480.732Z" fill="white"/>
<path fill-rule="evenodd" clip-rule="evenodd" d="M72.1804 480.732C72.1804 482.556 70.7004 484.035 68.8804 484.035C67.0504 484.035 65.5703 482.556 65.5703 480.732C65.5703 478.908 67.0504 477.43 68.8804 477.43C70.7004 477.43 72.1804 478.908 72.1804 480.732Z" fill="white"/>
<path fill-rule="evenodd" clip-rule="evenodd" d="M105.239 480.732C105.239 482.556 103.759 484.035 101.929 484.035C100.109 484.035 98.6289 482.556 98.6289 480.732C98.6289 478.908 100.109 477.43 101.929 477.43C103.759 477.43 105.239 478.908 105.239 480.732Z" fill="white"/>
<path fill-rule="evenodd" clip-rule="evenodd" d="M138.29 480.732C138.29 482.556 136.81 484.035 134.99 484.035C133.16 484.035 131.68 482.556 131.68 480.732C131.68 478.908 133.16 477.43 134.99 477.43C136.81 477.43 138.29 478.908 138.29 480.732Z" fill="white"/>
<path fill-rule="evenodd" clip-rule="evenodd" d="M171.348 480.732C171.348 482.556 169.868 484.035 168.038 484.035C166.218 484.035 164.738 482.556 164.738 480.732C164.738 478.908 166.218 477.43 168.038 477.43C169.868 477.43 171.348 478.908 171.348 480.732Z" fill="white"/>
<path fill-rule="evenodd" clip-rule="evenodd" d="M204.399 480.732C204.399 482.556 202.919 484.035 201.099 484.035C199.269 484.035 197.789 482.556 197.789 480.732C197.789 478.908 199.269 477.43 201.099 477.43C202.919 477.43 204.399 478.908 204.399 480.732Z" fill="white"/>
<path fill-rule="evenodd" clip-rule="evenodd" d="M237.462 480.732C237.462 482.556 235.982 484.035 234.152 484.035C232.332 484.035 230.852 482.556 230.852 480.732C230.852 478.908 232.332 477.43 234.152 477.43C235.982 477.43 237.462 478.908 237.462 480.732Z" fill="white"/>
<path fill-rule="evenodd" clip-rule="evenodd" d="M270.518 480.732C270.518 482.556 269.038 484.035 267.208 484.035C265.378 484.035 263.898 482.556 263.898 480.732C263.898 478.908 265.378 477.43 267.208 477.43C269.038 477.43 270.518 478.908 270.518 480.732Z" fill="white"/>
<path fill-rule="evenodd" clip-rule="evenodd" d="M39.1295 513.756C39.1295 515.58 37.6495 517.058 35.8195 517.058C33.9995 517.058 32.5195 515.58 32.5195 513.756C32.5195 511.932 33.9995 510.453 35.8195 510.453C37.6495 510.453 39.1295 511.932 39.1295 513.756Z" fill="white"/>
<path fill-rule="evenodd" clip-rule="evenodd" d="M72.1804 513.756C72.1804 515.58 70.7004 517.058 68.8804 517.058C67.0504 517.058 65.5703 515.58 65.5703 513.756C65.5703 511.932 67.0504 510.453 68.8804 510.453C70.7004 510.453 72.1804 511.932 72.1804 513.756Z" fill="white"/>
<path fill-rule="evenodd" clip-rule="evenodd" d="M105.239 513.756C105.239 515.58 103.759 517.058 101.929 517.058C100.109 517.058 98.6289 515.58 98.6289 513.756C98.6289 511.932 100.109 510.453 101.929 510.453C103.759 510.453 105.239 511.932 105.239 513.756Z" fill="white"/>
<path fill-rule="evenodd" clip-rule="evenodd" d="M138.29 513.756C138.29 515.58 136.81 517.058 134.99 517.058C133.16 517.058 131.68 515.58 131.68 513.756C131.68 511.932 133.16 510.453 134.99 510.453C136.81 510.453 138.29 511.932 138.29 513.756Z" fill="white"/>
<path fill-rule="evenodd" clip-rule="evenodd" d="M171.348 513.756C171.348 515.58 169.868 517.058 168.038 517.058C166.218 517.058 164.738 515.58 164.738 513.756C164.738 511.932 166.218 510.453 168.038 510.453C169.868 510.453 171.348 511.932 171.348 513.756Z" fill="white"/>
<path fill-rule="evenodd" clip-rule="evenodd" d="M204.399 513.756C204.399 515.58 202.919 517.058 201.099 517.058C199.269 517.058 197.789 515.58 197.789 513.756C197.789 511.932 199.269 510.453 201.099 510.453C202.919 510.453 204.399 511.932 204.399 513.756Z" fill="white"/>
<path fill-rule="evenodd" clip-rule="evenodd" d="M237.462 513.756C237.462 515.58 235.982 517.058 234.152 517.058C232.332 517.058 230.852 515.58 230.852 513.756C230.852 511.932 232.332 510.453 234.152 510.453C235.982 510.453 237.462 511.932 237.462 513.756Z" fill="white"/>
<path fill-rule="evenodd" clip-rule="evenodd" d="M270.518 513.756C270.518 515.58 269.038 517.058 267.208 517.058C265.378 517.058 263.898 515.58 263.898 513.756C263.898 511.932 265.378 510.453 267.208 510.453C269.038 510.453 270.518 511.932 270.518 513.756Z" fill="white"/>
<path fill-rule="evenodd" clip-rule="evenodd" d="M220.92 454.391C218.38 454.391 216.32 456.552 216.32 459.21H217.85C217.85 457.438 219.23 455.997 220.92 455.997V454.391Z" fill="white"/>
<path fill-rule="evenodd" clip-rule="evenodd" d="M286.8 533.228C289.22 542.199 283.45 551.559 273.95 554.092L276.14 562.227C290.39 558.427 299.04 544.388 295.41 530.931C291.79 517.474 277.25 509.618 263 513.418L265.19 521.553C274.69 519.02 284.39 524.258 286.8 533.228Z" fill="white"/>
<path fill-rule="evenodd" clip-rule="evenodd" d="M383.3 416.799C384.86 422.567 381.15 428.586 375.04 430.215L376.45 435.445C385.61 433.002 391.17 423.975 388.84 415.322C386.51 406.669 377.16 401.618 368 404.061L369.41 409.292C375.52 407.663 381.75 411.031 383.3 416.799Z" fill="white"/>
</g>
<defs>
<clipPath id="clip0_4889_273770">
<rect width="786" height="976" fill="white"/>
</clipPath>
</defs>
</svg>
