<svg width="1318" height="835" viewBox="0 0 1318 835" fill="none" xmlns="http://www.w3.org/2000/svg">
<rect x="-215" y="46.3889" width="1533" height="700.294" rx="100" fill="#0094FF"/>
<path fill-rule="evenodd" clip-rule="evenodd" d="M1077.61 625.63C1077.61 627.259 1076.13 628.579 1074.31 628.579C1072.48 628.579 1071 627.259 1071 625.63C1071 624.002 1072.48 622.682 1074.31 622.682C1076.13 622.682 1077.61 624.002 1077.61 625.63Z" fill="white"/>
<path fill-rule="evenodd" clip-rule="evenodd" d="M1110.67 625.63C1110.67 627.259 1109.19 628.579 1107.36 628.579C1105.54 628.579 1104.06 627.259 1104.06 625.63C1104.06 624.002 1105.54 622.682 1107.36 622.682C1109.19 622.682 1110.67 624.002 1110.67 625.63Z" fill="white"/>
<path fill-rule="evenodd" clip-rule="evenodd" d="M1143.72 625.63C1143.72 627.259 1142.24 628.579 1140.42 628.579C1138.59 628.579 1137.11 627.259 1137.11 625.63C1137.11 624.002 1138.59 622.682 1140.42 622.682C1142.24 622.682 1143.72 624.002 1143.72 625.63Z" fill="white"/>
<path fill-rule="evenodd" clip-rule="evenodd" d="M1176.78 625.63C1176.78 627.259 1175.3 628.579 1173.47 628.579C1171.65 628.579 1170.17 627.259 1170.17 625.63C1170.17 624.002 1171.65 622.682 1173.47 622.682C1175.3 622.682 1176.78 624.002 1176.78 625.63Z" fill="white"/>
<path fill-rule="evenodd" clip-rule="evenodd" d="M1209.83 625.63C1209.83 627.259 1208.35 628.579 1206.53 628.579C1204.7 628.579 1203.22 627.259 1203.22 625.63C1203.22 624.002 1204.7 622.682 1206.53 622.682C1208.35 622.682 1209.83 624.002 1209.83 625.63Z" fill="white"/>
<path fill-rule="evenodd" clip-rule="evenodd" d="M1242.89 625.63C1242.89 627.259 1241.41 628.579 1239.58 628.579C1237.76 628.579 1236.28 627.259 1236.28 625.63C1236.28 624.002 1237.76 622.682 1239.58 622.682C1241.41 622.682 1242.89 624.002 1242.89 625.63Z" fill="white"/>
<path fill-rule="evenodd" clip-rule="evenodd" d="M1275.94 625.63C1275.94 627.259 1274.46 628.579 1272.64 628.579C1270.81 628.579 1269.33 627.259 1269.33 625.63C1269.33 624.002 1270.81 622.682 1272.64 622.682C1274.46 622.682 1275.94 624.002 1275.94 625.63Z" fill="white"/>
<path fill-rule="evenodd" clip-rule="evenodd" d="M1309 625.63C1309 627.259 1307.52 628.579 1305.69 628.579C1303.87 628.579 1302.39 627.259 1302.39 625.63C1302.39 624.002 1303.87 622.682 1305.69 622.682C1307.52 622.682 1309 624.002 1309 625.63Z" fill="white"/>
<path fill-rule="evenodd" clip-rule="evenodd" d="M1077.61 655.119C1077.61 656.748 1076.13 658.068 1074.31 658.068C1072.48 658.068 1071 656.748 1071 655.119C1071 653.491 1072.48 652.17 1074.31 652.17C1076.13 652.17 1077.61 653.491 1077.61 655.119Z" fill="white"/>
<path fill-rule="evenodd" clip-rule="evenodd" d="M1110.67 655.119C1110.67 656.748 1109.19 658.068 1107.36 658.068C1105.54 658.068 1104.06 656.748 1104.06 655.119C1104.06 653.491 1105.54 652.17 1107.36 652.17C1109.19 652.17 1110.67 653.491 1110.67 655.119Z" fill="white"/>
<path fill-rule="evenodd" clip-rule="evenodd" d="M1143.72 655.119C1143.72 656.748 1142.24 658.068 1140.42 658.068C1138.59 658.068 1137.11 656.748 1137.11 655.119C1137.11 653.491 1138.59 652.17 1140.42 652.17C1142.24 652.17 1143.72 653.491 1143.72 655.119Z" fill="white"/>
<path fill-rule="evenodd" clip-rule="evenodd" d="M1176.78 655.119C1176.78 656.748 1175.3 658.068 1173.47 658.068C1171.65 658.068 1170.17 656.748 1170.17 655.119C1170.17 653.491 1171.65 652.17 1173.47 652.17C1175.3 652.17 1176.78 653.491 1176.78 655.119Z" fill="white"/>
<path fill-rule="evenodd" clip-rule="evenodd" d="M1209.83 655.119C1209.83 656.748 1208.35 658.068 1206.53 658.068C1204.7 658.068 1203.22 656.748 1203.22 655.119C1203.22 653.491 1204.7 652.17 1206.53 652.17C1208.35 652.17 1209.83 653.491 1209.83 655.119Z" fill="white"/>
<path fill-rule="evenodd" clip-rule="evenodd" d="M1242.89 655.119C1242.89 656.748 1241.41 658.068 1239.58 658.068C1237.76 658.068 1236.28 656.748 1236.28 655.119C1236.28 653.491 1237.76 652.17 1239.58 652.17C1241.41 652.17 1242.89 653.491 1242.89 655.119Z" fill="white"/>
<path fill-rule="evenodd" clip-rule="evenodd" d="M1275.94 655.119C1275.94 656.748 1274.46 658.068 1272.64 658.068C1270.81 658.068 1269.33 656.748 1269.33 655.119C1269.33 653.491 1270.81 652.17 1272.64 652.17C1274.46 652.17 1275.94 653.491 1275.94 655.119Z" fill="white"/>
<path fill-rule="evenodd" clip-rule="evenodd" d="M1309 655.119C1309 656.748 1307.52 658.068 1305.69 658.068C1303.87 658.068 1302.39 656.748 1302.39 655.119C1302.39 653.491 1303.87 652.17 1305.69 652.17C1307.52 652.17 1309 653.491 1309 655.119Z" fill="white"/>
<path fill-rule="evenodd" clip-rule="evenodd" d="M1077.61 684.608C1077.61 686.236 1076.13 687.557 1074.31 687.557C1072.48 687.557 1071 686.236 1071 684.608C1071 682.979 1072.48 681.659 1074.31 681.659C1076.13 681.659 1077.61 682.979 1077.61 684.608Z" fill="white"/>
<path fill-rule="evenodd" clip-rule="evenodd" d="M1110.67 684.608C1110.67 686.236 1109.19 687.557 1107.36 687.557C1105.54 687.557 1104.06 686.236 1104.06 684.608C1104.06 682.979 1105.54 681.659 1107.36 681.659C1109.19 681.659 1110.67 682.979 1110.67 684.608Z" fill="white"/>
<path fill-rule="evenodd" clip-rule="evenodd" d="M1143.72 684.608C1143.72 686.236 1142.24 687.557 1140.42 687.557C1138.59 687.557 1137.11 686.236 1137.11 684.608C1137.11 682.979 1138.59 681.659 1140.42 681.659C1142.24 681.659 1143.72 682.979 1143.72 684.608Z" fill="white"/>
<path fill-rule="evenodd" clip-rule="evenodd" d="M1176.78 684.608C1176.78 686.236 1175.3 687.557 1173.47 687.557C1171.65 687.557 1170.17 686.236 1170.17 684.608C1170.17 682.979 1171.65 681.659 1173.47 681.659C1175.3 681.659 1176.78 682.979 1176.78 684.608Z" fill="white"/>
<path fill-rule="evenodd" clip-rule="evenodd" d="M1209.83 684.608C1209.83 686.236 1208.35 687.557 1206.53 687.557C1204.7 687.557 1203.22 686.236 1203.22 684.608C1203.22 682.979 1204.7 681.659 1206.53 681.659C1208.35 681.659 1209.83 682.979 1209.83 684.608Z" fill="white"/>
<path fill-rule="evenodd" clip-rule="evenodd" d="M1242.89 684.608C1242.89 686.236 1241.41 687.557 1239.58 687.557C1237.76 687.557 1236.28 686.236 1236.28 684.608C1236.28 682.979 1237.76 681.659 1239.58 681.659C1241.41 681.659 1242.89 682.979 1242.89 684.608Z" fill="white"/>
<path fill-rule="evenodd" clip-rule="evenodd" d="M1275.94 684.608C1275.94 686.236 1274.46 687.557 1272.64 687.557C1270.81 687.557 1269.33 686.236 1269.33 684.608C1269.33 682.979 1270.81 681.659 1272.64 681.659C1274.46 681.659 1275.94 682.979 1275.94 684.608Z" fill="white"/>
<path fill-rule="evenodd" clip-rule="evenodd" d="M1309 684.608C1309 686.236 1307.52 687.557 1305.69 687.557C1303.87 687.557 1302.39 686.236 1302.39 684.608C1302.39 682.979 1303.87 681.659 1305.69 681.659C1307.52 681.659 1309 682.979 1309 684.608Z" fill="white"/>
<path fill-rule="evenodd" clip-rule="evenodd" d="M1077.61 714.096C1077.61 715.725 1076.13 717.045 1074.31 717.045C1072.48 717.045 1071 715.725 1071 714.096C1071 712.468 1072.48 711.147 1074.31 711.147C1076.13 711.147 1077.61 712.468 1077.61 714.096Z" fill="white"/>
<path fill-rule="evenodd" clip-rule="evenodd" d="M1110.67 714.096C1110.67 715.725 1109.19 717.045 1107.36 717.045C1105.54 717.045 1104.06 715.725 1104.06 714.096C1104.06 712.468 1105.54 711.147 1107.36 711.147C1109.19 711.147 1110.67 712.468 1110.67 714.096Z" fill="white"/>
<path fill-rule="evenodd" clip-rule="evenodd" d="M1143.72 714.096C1143.72 715.725 1142.24 717.045 1140.42 717.045C1138.59 717.045 1137.11 715.725 1137.11 714.096C1137.11 712.468 1138.59 711.147 1140.42 711.147C1142.24 711.147 1143.72 712.468 1143.72 714.096Z" fill="white"/>
<path fill-rule="evenodd" clip-rule="evenodd" d="M1176.78 714.096C1176.78 715.725 1175.3 717.045 1173.47 717.045C1171.65 717.045 1170.17 715.725 1170.17 714.096C1170.17 712.468 1171.65 711.147 1173.47 711.147C1175.3 711.147 1176.78 712.468 1176.78 714.096Z" fill="white"/>
<path fill-rule="evenodd" clip-rule="evenodd" d="M1209.83 714.096C1209.83 715.725 1208.35 717.045 1206.53 717.045C1204.7 717.045 1203.22 715.725 1203.22 714.096C1203.22 712.468 1204.7 711.147 1206.53 711.147C1208.35 711.147 1209.83 712.468 1209.83 714.096Z" fill="white"/>
<path fill-rule="evenodd" clip-rule="evenodd" d="M1242.89 714.096C1242.89 715.725 1241.41 717.045 1239.58 717.045C1237.76 717.045 1236.28 715.725 1236.28 714.096C1236.28 712.468 1237.76 711.147 1239.58 711.147C1241.41 711.147 1242.89 712.468 1242.89 714.096Z" fill="white"/>
<path fill-rule="evenodd" clip-rule="evenodd" d="M1275.94 714.096C1275.94 715.725 1274.46 717.045 1272.64 717.045C1270.81 717.045 1269.33 715.725 1269.33 714.096C1269.33 712.468 1270.81 711.147 1272.64 711.147C1274.46 711.147 1275.94 712.468 1275.94 714.096Z" fill="white"/>
<path fill-rule="evenodd" clip-rule="evenodd" d="M1309 714.096C1309 715.725 1307.52 717.045 1305.69 717.045C1303.87 717.045 1302.39 715.725 1302.39 714.096C1302.39 712.468 1303.87 711.147 1305.69 711.147C1307.52 711.147 1309 712.468 1309 714.096Z" fill="white"/>
<path fill-rule="evenodd" clip-rule="evenodd" d="M1077.61 743.585C1077.61 745.214 1076.13 746.534 1074.31 746.534C1072.48 746.534 1071 745.214 1071 743.585C1071 741.957 1072.48 740.636 1074.31 740.636C1076.13 740.636 1077.61 741.957 1077.61 743.585Z" fill="white"/>
<path fill-rule="evenodd" clip-rule="evenodd" d="M1110.67 743.585C1110.67 745.214 1109.19 746.534 1107.36 746.534C1105.54 746.534 1104.06 745.214 1104.06 743.585C1104.06 741.957 1105.54 740.636 1107.36 740.636C1109.19 740.636 1110.67 741.957 1110.67 743.585Z" fill="white"/>
<path fill-rule="evenodd" clip-rule="evenodd" d="M1143.72 743.585C1143.72 745.214 1142.24 746.534 1140.42 746.534C1138.59 746.534 1137.11 745.214 1137.11 743.585C1137.11 741.957 1138.59 740.636 1140.42 740.636C1142.24 740.636 1143.72 741.957 1143.72 743.585Z" fill="white"/>
<path fill-rule="evenodd" clip-rule="evenodd" d="M1176.78 743.585C1176.78 745.214 1175.3 746.534 1173.47 746.534C1171.65 746.534 1170.17 745.214 1170.17 743.585C1170.17 741.957 1171.65 740.636 1173.47 740.636C1175.3 740.636 1176.78 741.957 1176.78 743.585Z" fill="white"/>
<path fill-rule="evenodd" clip-rule="evenodd" d="M1209.83 743.585C1209.83 745.214 1208.35 746.534 1206.53 746.534C1204.7 746.534 1203.22 745.214 1203.22 743.585C1203.22 741.957 1204.7 740.636 1206.53 740.636C1208.35 740.636 1209.83 741.957 1209.83 743.585Z" fill="white"/>
<path fill-rule="evenodd" clip-rule="evenodd" d="M1242.89 743.585C1242.89 745.214 1241.41 746.534 1239.58 746.534C1237.76 746.534 1236.28 745.214 1236.28 743.585C1236.28 741.957 1237.76 740.636 1239.58 740.636C1241.41 740.636 1242.89 741.957 1242.89 743.585Z" fill="white"/>
<path fill-rule="evenodd" clip-rule="evenodd" d="M1275.94 743.585C1275.94 745.214 1274.46 746.534 1272.64 746.534C1270.81 746.534 1269.33 745.214 1269.33 743.585C1269.33 741.957 1270.81 740.636 1272.64 740.636C1274.46 740.636 1275.94 741.957 1275.94 743.585Z" fill="white"/>
<path fill-rule="evenodd" clip-rule="evenodd" d="M1309 743.585C1309 745.214 1307.52 746.534 1305.69 746.534C1303.87 746.534 1302.39 745.214 1302.39 743.585C1302.39 741.957 1303.87 740.636 1305.69 740.636C1307.52 740.636 1309 741.957 1309 743.585Z" fill="white"/>
<path fill-rule="evenodd" clip-rule="evenodd" d="M1077.61 773.074C1077.61 774.702 1076.13 776.023 1074.31 776.023C1072.48 776.023 1071 774.702 1071 773.074C1071 771.445 1072.48 770.125 1074.31 770.125C1076.13 770.125 1077.61 771.445 1077.61 773.074Z" fill="white"/>
<path fill-rule="evenodd" clip-rule="evenodd" d="M1110.67 773.074C1110.67 774.702 1109.19 776.023 1107.36 776.023C1105.54 776.023 1104.06 774.702 1104.06 773.074C1104.06 771.445 1105.54 770.125 1107.36 770.125C1109.19 770.125 1110.67 771.445 1110.67 773.074Z" fill="white"/>
<path fill-rule="evenodd" clip-rule="evenodd" d="M1143.72 773.074C1143.72 774.702 1142.24 776.023 1140.42 776.023C1138.59 776.023 1137.11 774.702 1137.11 773.074C1137.11 771.445 1138.59 770.125 1140.42 770.125C1142.24 770.125 1143.72 771.445 1143.72 773.074Z" fill="white"/>
<path fill-rule="evenodd" clip-rule="evenodd" d="M1176.78 773.074C1176.78 774.702 1175.3 776.023 1173.47 776.023C1171.65 776.023 1170.17 774.702 1170.17 773.074C1170.17 771.445 1171.65 770.125 1173.47 770.125C1175.3 770.125 1176.78 771.445 1176.78 773.074Z" fill="white"/>
<path fill-rule="evenodd" clip-rule="evenodd" d="M1209.83 773.074C1209.83 774.702 1208.35 776.023 1206.53 776.023C1204.7 776.023 1203.22 774.702 1203.22 773.074C1203.22 771.445 1204.7 770.125 1206.53 770.125C1208.35 770.125 1209.83 771.445 1209.83 773.074Z" fill="white"/>
<path fill-rule="evenodd" clip-rule="evenodd" d="M1242.89 773.074C1242.89 774.702 1241.41 776.023 1239.58 776.023C1237.76 776.023 1236.28 774.702 1236.28 773.074C1236.28 771.445 1237.76 770.125 1239.58 770.125C1241.41 770.125 1242.89 771.445 1242.89 773.074Z" fill="white"/>
<path fill-rule="evenodd" clip-rule="evenodd" d="M1275.94 773.074C1275.94 774.702 1274.46 776.023 1272.64 776.023C1270.81 776.023 1269.33 774.702 1269.33 773.074C1269.33 771.445 1270.81 770.125 1272.64 770.125C1274.46 770.125 1275.94 771.445 1275.94 773.074Z" fill="white"/>
<path fill-rule="evenodd" clip-rule="evenodd" d="M1309 773.074C1309 774.702 1307.52 776.023 1305.69 776.023C1303.87 776.023 1302.39 774.702 1302.39 773.074C1302.39 771.445 1303.87 770.125 1305.69 770.125C1307.52 770.125 1309 771.445 1309 773.074Z" fill="white"/>
<path fill-rule="evenodd" clip-rule="evenodd" d="M1077.61 802.562C1077.61 804.191 1076.13 805.511 1074.31 805.511C1072.48 805.511 1071 804.191 1071 802.562C1071 800.934 1072.48 799.614 1074.31 799.614C1076.13 799.614 1077.61 800.934 1077.61 802.562Z" fill="white"/>
<path fill-rule="evenodd" clip-rule="evenodd" d="M1110.67 802.562C1110.67 804.191 1109.19 805.511 1107.36 805.511C1105.54 805.511 1104.06 804.191 1104.06 802.562C1104.06 800.934 1105.54 799.614 1107.36 799.614C1109.19 799.614 1110.67 800.934 1110.67 802.562Z" fill="white"/>
<path fill-rule="evenodd" clip-rule="evenodd" d="M1143.72 802.562C1143.72 804.191 1142.24 805.511 1140.42 805.511C1138.59 805.511 1137.11 804.191 1137.11 802.562C1137.11 800.934 1138.59 799.614 1140.42 799.614C1142.24 799.614 1143.72 800.934 1143.72 802.562Z" fill="white"/>
<path fill-rule="evenodd" clip-rule="evenodd" d="M1176.78 802.562C1176.78 804.191 1175.3 805.511 1173.47 805.511C1171.65 805.511 1170.17 804.191 1170.17 802.562C1170.17 800.934 1171.65 799.614 1173.47 799.614C1175.3 799.614 1176.78 800.934 1176.78 802.562Z" fill="white"/>
<path fill-rule="evenodd" clip-rule="evenodd" d="M1209.83 802.562C1209.83 804.191 1208.35 805.511 1206.53 805.511C1204.7 805.511 1203.22 804.191 1203.22 802.562C1203.22 800.934 1204.7 799.614 1206.53 799.614C1208.35 799.614 1209.83 800.934 1209.83 802.562Z" fill="white"/>
<path fill-rule="evenodd" clip-rule="evenodd" d="M1242.89 802.562C1242.89 804.191 1241.41 805.511 1239.58 805.511C1237.76 805.511 1236.28 804.191 1236.28 802.562C1236.28 800.934 1237.76 799.614 1239.58 799.614C1241.41 799.614 1242.89 800.934 1242.89 802.562Z" fill="white"/>
<path fill-rule="evenodd" clip-rule="evenodd" d="M1275.94 802.562C1275.94 804.191 1274.46 805.511 1272.64 805.511C1270.81 805.511 1269.33 804.191 1269.33 802.562C1269.33 800.934 1270.81 799.614 1272.64 799.614C1274.46 799.614 1275.94 800.934 1275.94 802.562Z" fill="white"/>
<path fill-rule="evenodd" clip-rule="evenodd" d="M1309 802.562C1309 804.191 1307.52 805.511 1305.69 805.511C1303.87 805.511 1302.39 804.191 1302.39 802.562C1302.39 800.934 1303.87 799.614 1305.69 799.614C1307.52 799.614 1309 800.934 1309 802.562Z" fill="white"/>
<path fill-rule="evenodd" clip-rule="evenodd" d="M1077.61 832.051C1077.61 833.68 1076.13 835 1074.31 835C1072.48 835 1071 833.68 1071 832.051C1071 830.423 1072.48 829.102 1074.31 829.102C1076.13 829.102 1077.61 830.423 1077.61 832.051Z" fill="white"/>
<path fill-rule="evenodd" clip-rule="evenodd" d="M1110.67 832.051C1110.67 833.68 1109.19 835 1107.36 835C1105.54 835 1104.06 833.68 1104.06 832.051C1104.06 830.423 1105.54 829.102 1107.36 829.102C1109.19 829.102 1110.67 830.423 1110.67 832.051Z" fill="white"/>
<path fill-rule="evenodd" clip-rule="evenodd" d="M1143.72 832.051C1143.72 833.68 1142.24 835 1140.42 835C1138.59 835 1137.11 833.68 1137.11 832.051C1137.11 830.423 1138.59 829.102 1140.42 829.102C1142.24 829.102 1143.72 830.423 1143.72 832.051Z" fill="white"/>
<path fill-rule="evenodd" clip-rule="evenodd" d="M1176.78 832.051C1176.78 833.68 1175.3 835 1173.47 835C1171.65 835 1170.17 833.68 1170.17 832.051C1170.17 830.423 1171.65 829.102 1173.47 829.102C1175.3 829.102 1176.78 830.423 1176.78 832.051Z" fill="white"/>
<path fill-rule="evenodd" clip-rule="evenodd" d="M1209.83 832.051C1209.83 833.68 1208.35 835 1206.53 835C1204.7 835 1203.22 833.68 1203.22 832.051C1203.22 830.423 1204.7 829.102 1206.53 829.102C1208.35 829.102 1209.83 830.423 1209.83 832.051Z" fill="white"/>
<path fill-rule="evenodd" clip-rule="evenodd" d="M1242.89 832.051C1242.89 833.68 1241.41 835 1239.58 835C1237.76 835 1236.28 833.68 1236.28 832.051C1236.28 830.423 1237.76 829.102 1239.58 829.102C1241.41 829.102 1242.89 830.423 1242.89 832.051Z" fill="white"/>
<path fill-rule="evenodd" clip-rule="evenodd" d="M1275.94 832.051C1275.94 833.68 1274.46 835 1272.64 835C1270.81 835 1269.33 833.68 1269.33 832.051C1269.33 830.423 1270.81 829.102 1272.64 829.102C1274.46 829.102 1275.94 830.423 1275.94 832.051Z" fill="white"/>
<path fill-rule="evenodd" clip-rule="evenodd" d="M1309 832.051C1309 833.68 1307.52 835 1305.69 835C1303.87 835 1302.39 833.68 1302.39 832.051C1302.39 830.423 1303.87 829.102 1305.69 829.102C1307.52 829.102 1309 830.423 1309 832.051Z" fill="white"/>
<path fill-rule="evenodd" clip-rule="evenodd" d="M34.4528 4.64001C34.4528 7.20246 32.124 9.28003 29.2516 9.28003C26.3792 9.28003 24.0503 7.20246 24.0503 4.64001C24.0503 2.07757 26.3792 0 29.2516 0C32.124 0 34.4528 2.07757 34.4528 4.64001Z" fill="white"/>
<path fill-rule="evenodd" clip-rule="evenodd" d="M86.4655 4.64001C86.4655 7.20246 84.1366 9.28003 81.2642 9.28003C78.3918 9.28003 76.063 7.20246 76.063 4.64001C76.063 2.07757 78.3918 0 81.2642 0C84.1366 0 86.4655 2.07757 86.4655 4.64001Z" fill="white"/>
<path fill-rule="evenodd" clip-rule="evenodd" d="M138.478 4.64001C138.478 7.20246 136.149 9.28003 133.277 9.28003C130.405 9.28003 128.076 7.20246 128.076 4.64001C128.076 2.07757 130.405 0 133.277 0C136.149 0 138.478 2.07757 138.478 4.64001Z" fill="white"/>
<path fill-rule="evenodd" clip-rule="evenodd" d="M190.491 4.64001C190.491 7.20246 188.162 9.28003 185.29 9.28003C182.417 9.28003 180.088 7.20246 180.088 4.64001C180.088 2.07757 182.417 0 185.29 0C188.162 0 190.491 2.07757 190.491 4.64001Z" fill="white"/>
<path fill-rule="evenodd" clip-rule="evenodd" d="M34.4528 51.0402C34.4528 53.6026 32.124 55.6802 29.2516 55.6802C26.3792 55.6802 24.0503 53.6026 24.0503 51.0402C24.0503 48.4777 26.3792 46.4001 29.2516 46.4001C32.124 46.4001 34.4528 48.4777 34.4528 51.0402Z" fill="white"/>
<path fill-rule="evenodd" clip-rule="evenodd" d="M86.4655 51.0402C86.4655 53.6026 84.1366 55.6802 81.2642 55.6802C78.3918 55.6802 76.063 53.6026 76.063 51.0402C76.063 48.4777 78.3918 46.4001 81.2642 46.4001C84.1366 46.4001 86.4655 48.4777 86.4655 51.0402Z" fill="white"/>
<path fill-rule="evenodd" clip-rule="evenodd" d="M138.478 51.0402C138.478 53.6026 136.149 55.6802 133.277 55.6802C130.405 55.6802 128.076 53.6026 128.076 51.0402C128.076 48.4777 130.405 46.4001 133.277 46.4001C136.149 46.4001 138.478 48.4777 138.478 51.0402Z" fill="white"/>
<path fill-rule="evenodd" clip-rule="evenodd" d="M190.491 51.0402C190.491 53.6026 188.162 55.6802 185.29 55.6802C182.417 55.6802 180.088 53.6026 180.088 51.0402C180.088 48.4777 182.417 46.4001 185.29 46.4001C188.162 46.4001 190.491 48.4777 190.491 51.0402Z" fill="white"/>
<path fill-rule="evenodd" clip-rule="evenodd" d="M34.4528 97.4403C34.4528 100.003 32.124 102.08 29.2516 102.08C26.3792 102.08 24.0503 100.003 24.0503 97.4403C24.0503 94.8779 26.3792 92.8003 29.2516 92.8003C32.124 92.8003 34.4528 94.8779 34.4528 97.4403Z" fill="white"/>
<path fill-rule="evenodd" clip-rule="evenodd" d="M86.4655 97.4403C86.4655 100.003 84.1366 102.08 81.2642 102.08C78.3918 102.08 76.063 100.003 76.063 97.4403C76.063 94.8779 78.3918 92.8003 81.2642 92.8003C84.1366 92.8003 86.4655 94.8779 86.4655 97.4403Z" fill="white"/>
<path fill-rule="evenodd" clip-rule="evenodd" d="M138.478 97.4403C138.478 100.003 136.149 102.08 133.277 102.08C130.405 102.08 128.076 100.003 128.076 97.4403C128.076 94.8779 130.405 92.8003 133.277 92.8003C136.149 92.8003 138.478 94.8779 138.478 97.4403Z" fill="white"/>
<path fill-rule="evenodd" clip-rule="evenodd" d="M190.491 97.4403C190.491 100.003 188.162 102.08 185.29 102.08C182.417 102.08 180.088 100.003 180.088 97.4403C180.088 94.8779 182.417 92.8003 185.29 92.8003C188.162 92.8003 190.491 94.8779 190.491 97.4403Z" fill="white"/>
<path fill-rule="evenodd" clip-rule="evenodd" d="M34.4528 143.84C34.4528 146.403 32.124 148.48 29.2516 148.48C26.3792 148.48 24.0503 146.403 24.0503 143.84C24.0503 141.278 26.3792 139.2 29.2516 139.2C32.124 139.2 34.4528 141.278 34.4528 143.84Z" fill="white"/>
<path fill-rule="evenodd" clip-rule="evenodd" d="M86.4655 143.84C86.4655 146.403 84.1366 148.48 81.2642 148.48C78.3918 148.48 76.063 146.403 76.063 143.84C76.063 141.278 78.3918 139.2 81.2642 139.2C84.1366 139.2 86.4655 141.278 86.4655 143.84Z" fill="white"/>
<path fill-rule="evenodd" clip-rule="evenodd" d="M138.478 143.84C138.478 146.403 136.149 148.48 133.277 148.48C130.405 148.48 128.076 146.403 128.076 143.84C128.076 141.278 130.405 139.2 133.277 139.2C136.149 139.2 138.478 141.278 138.478 143.84Z" fill="white"/>
<path fill-rule="evenodd" clip-rule="evenodd" d="M190.491 143.84C190.491 146.403 188.162 148.48 185.29 148.48C182.417 148.48 180.088 146.403 180.088 143.84C180.088 141.278 182.417 139.2 185.29 139.2C188.162 139.2 190.491 141.278 190.491 143.84Z" fill="white"/>
<path fill-rule="evenodd" clip-rule="evenodd" d="M34.4528 190.241C34.4528 192.803 32.124 194.881 29.2516 194.881C26.3792 194.881 24.0503 192.803 24.0503 190.241C24.0503 187.678 26.3792 185.601 29.2516 185.601C32.124 185.601 34.4528 187.678 34.4528 190.241Z" fill="white"/>
<path fill-rule="evenodd" clip-rule="evenodd" d="M86.4655 190.241C86.4655 192.803 84.1366 194.881 81.2642 194.881C78.3918 194.881 76.063 192.803 76.063 190.241C76.063 187.678 78.3918 185.601 81.2642 185.601C84.1366 185.601 86.4655 187.678 86.4655 190.241Z" fill="white"/>
<path fill-rule="evenodd" clip-rule="evenodd" d="M138.478 190.241C138.478 192.803 136.149 194.881 133.277 194.881C130.405 194.881 128.076 192.803 128.076 190.241C128.076 187.678 130.405 185.601 133.277 185.601C136.149 185.601 138.478 187.678 138.478 190.241Z" fill="white"/>
<path fill-rule="evenodd" clip-rule="evenodd" d="M190.491 190.241C190.491 192.803 188.162 194.881 185.29 194.881C182.417 194.881 180.088 192.803 180.088 190.241C180.088 187.678 182.417 185.601 185.29 185.601C188.162 185.601 190.491 187.678 190.491 190.241Z" fill="white"/>
<path fill-rule="evenodd" clip-rule="evenodd" d="M34.4528 236.641C34.4528 239.203 32.124 241.281 29.2516 241.281C26.3792 241.281 24.0503 239.203 24.0503 236.641C24.0503 234.078 26.3792 232.001 29.2516 232.001C32.124 232.001 34.4528 234.078 34.4528 236.641Z" fill="white"/>
<path fill-rule="evenodd" clip-rule="evenodd" d="M86.4655 236.641C86.4655 239.203 84.1366 241.281 81.2642 241.281C78.3918 241.281 76.063 239.203 76.063 236.641C76.063 234.078 78.3918 232.001 81.2642 232.001C84.1366 232.001 86.4655 234.078 86.4655 236.641Z" fill="white"/>
<path fill-rule="evenodd" clip-rule="evenodd" d="M138.478 236.641C138.478 239.203 136.149 241.281 133.277 241.281C130.405 241.281 128.076 239.203 128.076 236.641C128.076 234.078 130.405 232.001 133.277 232.001C136.149 232.001 138.478 234.078 138.478 236.641Z" fill="white"/>
<path fill-rule="evenodd" clip-rule="evenodd" d="M190.491 236.641C190.491 239.203 188.162 241.281 185.29 241.281C182.417 241.281 180.088 239.203 180.088 236.641C180.088 234.078 182.417 232.001 185.29 232.001C188.162 232.001 190.491 234.078 190.491 236.641Z" fill="white"/>
<path fill-rule="evenodd" clip-rule="evenodd" d="M34.4528 283.041C34.4528 285.603 32.124 287.681 29.2516 287.681C26.3792 287.681 24.0503 285.603 24.0503 283.041C24.0503 280.478 26.3792 278.401 29.2516 278.401C32.124 278.401 34.4528 280.478 34.4528 283.041Z" fill="white"/>
<path fill-rule="evenodd" clip-rule="evenodd" d="M86.4655 283.041C86.4655 285.603 84.1366 287.681 81.2642 287.681C78.3918 287.681 76.063 285.603 76.063 283.041C76.063 280.478 78.3918 278.401 81.2642 278.401C84.1366 278.401 86.4655 280.478 86.4655 283.041Z" fill="white"/>
<path fill-rule="evenodd" clip-rule="evenodd" d="M138.478 283.041C138.478 285.603 136.149 287.681 133.277 287.681C130.405 287.681 128.076 285.603 128.076 283.041C128.076 280.478 130.405 278.401 133.277 278.401C136.149 278.401 138.478 280.478 138.478 283.041Z" fill="white"/>
<path fill-rule="evenodd" clip-rule="evenodd" d="M190.491 283.041C190.491 285.603 188.162 287.681 185.29 287.681C182.417 287.681 180.088 285.603 180.088 283.041C180.088 280.478 182.417 278.401 185.29 278.401C188.162 278.401 190.491 280.478 190.491 283.041Z" fill="white"/>
<path fill-rule="evenodd" clip-rule="evenodd" d="M34.4528 329.441C34.4528 332.003 32.124 334.081 29.2516 334.081C26.3792 334.081 24.0503 332.003 24.0503 329.441C24.0503 326.879 26.3792 324.801 29.2516 324.801C32.124 324.801 34.4528 326.879 34.4528 329.441Z" fill="white"/>
<path fill-rule="evenodd" clip-rule="evenodd" d="M86.4655 329.441C86.4655 332.003 84.1366 334.081 81.2642 334.081C78.3918 334.081 76.063 332.003 76.063 329.441C76.063 326.879 78.3918 324.801 81.2642 324.801C84.1366 324.801 86.4655 326.879 86.4655 329.441Z" fill="white"/>
<path fill-rule="evenodd" clip-rule="evenodd" d="M138.478 329.441C138.478 332.003 136.149 334.081 133.277 334.081C130.405 334.081 128.076 332.003 128.076 329.441C128.076 326.879 130.405 324.801 133.277 324.801C136.149 324.801 138.478 326.879 138.478 329.441Z" fill="white"/>
<path fill-rule="evenodd" clip-rule="evenodd" d="M190.491 329.441C190.491 332.003 188.162 334.081 185.29 334.081C182.417 334.081 180.088 332.003 180.088 329.441C180.088 326.879 182.417 324.801 185.29 324.801C188.162 324.801 190.491 326.879 190.491 329.441Z" fill="white"/>
</svg>
