<svg width="1916" height="1245" viewBox="0 0 1916 1245" fill="none" xmlns="http://www.w3.org/2000/svg">
<path d="M3 1242C3 1243.1 3.89543 1244 5 1244H1914C1915.1 1244 1916 1243.1 1916 1242V241C1916 239.895 1915.1 239 1914 239H133C61.203 239 3 297.203 3 369V1242Z" fill="#0094FF"/>
<path fill-rule="evenodd" clip-rule="evenodd" d="M1669.61 217.306C1669.61 219.131 1668.13 220.611 1666.31 220.611C1664.48 220.611 1663 219.131 1663 217.306C1663 215.48 1664.48 214 1666.31 214C1668.13 214 1669.61 215.48 1669.61 217.306Z" fill="white"/>
<path fill-rule="evenodd" clip-rule="evenodd" d="M1702.67 217.306C1702.67 219.131 1701.19 220.611 1699.36 220.611C1697.54 220.611 1696.06 219.131 1696.06 217.306C1696.06 215.48 1697.54 214 1699.36 214C1701.19 214 1702.67 215.48 1702.67 217.306Z" fill="white"/>
<path fill-rule="evenodd" clip-rule="evenodd" d="M1735.72 217.306C1735.72 219.131 1734.24 220.611 1732.42 220.611C1730.59 220.611 1729.11 219.131 1729.11 217.306C1729.11 215.48 1730.59 214 1732.42 214C1734.24 214 1735.72 215.48 1735.72 217.306Z" fill="white"/>
<path fill-rule="evenodd" clip-rule="evenodd" d="M1768.78 217.306C1768.78 219.131 1767.3 220.611 1765.47 220.611C1763.65 220.611 1762.17 219.131 1762.17 217.306C1762.17 215.48 1763.65 214 1765.47 214C1767.3 214 1768.78 215.48 1768.78 217.306Z" fill="white"/>
<path fill-rule="evenodd" clip-rule="evenodd" d="M1801.83 217.306C1801.83 219.131 1800.35 220.611 1798.53 220.611C1796.7 220.611 1795.22 219.131 1795.22 217.306C1795.22 215.48 1796.7 214 1798.53 214C1800.35 214 1801.83 215.48 1801.83 217.306Z" fill="white"/>
<path fill-rule="evenodd" clip-rule="evenodd" d="M1834.89 217.306C1834.89 219.131 1833.41 220.611 1831.58 220.611C1829.76 220.611 1828.28 219.131 1828.28 217.306C1828.28 215.48 1829.76 214 1831.58 214C1833.41 214 1834.89 215.48 1834.89 217.306Z" fill="white"/>
<path fill-rule="evenodd" clip-rule="evenodd" d="M1867.94 217.306C1867.94 219.131 1866.46 220.611 1864.64 220.611C1862.81 220.611 1861.33 219.131 1861.33 217.306C1861.33 215.48 1862.81 214 1864.64 214C1866.46 214 1867.94 215.48 1867.94 217.306Z" fill="white"/>
<path fill-rule="evenodd" clip-rule="evenodd" d="M1901 217.306C1901 219.131 1899.52 220.611 1897.69 220.611C1895.87 220.611 1894.39 219.131 1894.39 217.306C1894.39 215.48 1895.87 214 1897.69 214C1899.52 214 1901 215.48 1901 217.306Z" fill="white"/>
<path fill-rule="evenodd" clip-rule="evenodd" d="M1669.61 250.361C1669.61 252.187 1668.13 253.667 1666.31 253.667C1664.48 253.667 1663 252.187 1663 250.361C1663 248.536 1664.48 247.056 1666.31 247.056C1668.13 247.056 1669.61 248.536 1669.61 250.361Z" fill="white"/>
<path fill-rule="evenodd" clip-rule="evenodd" d="M1702.67 250.361C1702.67 252.187 1701.19 253.667 1699.36 253.667C1697.54 253.667 1696.06 252.187 1696.06 250.361C1696.06 248.536 1697.54 247.056 1699.36 247.056C1701.19 247.056 1702.67 248.536 1702.67 250.361Z" fill="white"/>
<path fill-rule="evenodd" clip-rule="evenodd" d="M1735.72 250.361C1735.72 252.187 1734.24 253.667 1732.42 253.667C1730.59 253.667 1729.11 252.187 1729.11 250.361C1729.11 248.536 1730.59 247.056 1732.42 247.056C1734.24 247.056 1735.72 248.536 1735.72 250.361Z" fill="white"/>
<path fill-rule="evenodd" clip-rule="evenodd" d="M1768.78 250.361C1768.78 252.187 1767.3 253.667 1765.47 253.667C1763.65 253.667 1762.17 252.187 1762.17 250.361C1762.17 248.536 1763.65 247.056 1765.47 247.056C1767.3 247.056 1768.78 248.536 1768.78 250.361Z" fill="white"/>
<path fill-rule="evenodd" clip-rule="evenodd" d="M1801.83 250.361C1801.83 252.187 1800.35 253.667 1798.53 253.667C1796.7 253.667 1795.22 252.187 1795.22 250.361C1795.22 248.536 1796.7 247.056 1798.53 247.056C1800.35 247.056 1801.83 248.536 1801.83 250.361Z" fill="white"/>
<path fill-rule="evenodd" clip-rule="evenodd" d="M1834.89 250.361C1834.89 252.187 1833.41 253.667 1831.58 253.667C1829.76 253.667 1828.28 252.187 1828.28 250.361C1828.28 248.536 1829.76 247.056 1831.58 247.056C1833.41 247.056 1834.89 248.536 1834.89 250.361Z" fill="white"/>
<path fill-rule="evenodd" clip-rule="evenodd" d="M1867.94 250.361C1867.94 252.187 1866.46 253.667 1864.64 253.667C1862.81 253.667 1861.33 252.187 1861.33 250.361C1861.33 248.536 1862.81 247.056 1864.64 247.056C1866.46 247.056 1867.94 248.536 1867.94 250.361Z" fill="white"/>
<path fill-rule="evenodd" clip-rule="evenodd" d="M1901 250.361C1901 252.187 1899.52 253.667 1897.69 253.667C1895.87 253.667 1894.39 252.187 1894.39 250.361C1894.39 248.536 1895.87 247.056 1897.69 247.056C1899.52 247.056 1901 248.536 1901 250.361Z" fill="white"/>
<path fill-rule="evenodd" clip-rule="evenodd" d="M1669.61 283.417C1669.61 285.242 1668.13 286.722 1666.31 286.722C1664.48 286.722 1663 285.242 1663 283.417C1663 281.591 1664.48 280.111 1666.31 280.111C1668.13 280.111 1669.61 281.591 1669.61 283.417Z" fill="white"/>
<path fill-rule="evenodd" clip-rule="evenodd" d="M1702.67 283.417C1702.67 285.242 1701.19 286.722 1699.36 286.722C1697.54 286.722 1696.06 285.242 1696.06 283.417C1696.06 281.591 1697.54 280.111 1699.36 280.111C1701.19 280.111 1702.67 281.591 1702.67 283.417Z" fill="white"/>
<path fill-rule="evenodd" clip-rule="evenodd" d="M1735.72 283.417C1735.72 285.242 1734.24 286.722 1732.42 286.722C1730.59 286.722 1729.11 285.242 1729.11 283.417C1729.11 281.591 1730.59 280.111 1732.42 280.111C1734.24 280.111 1735.72 281.591 1735.72 283.417Z" fill="white"/>
<path fill-rule="evenodd" clip-rule="evenodd" d="M1768.78 283.417C1768.78 285.242 1767.3 286.722 1765.47 286.722C1763.65 286.722 1762.17 285.242 1762.17 283.417C1762.17 281.591 1763.65 280.111 1765.47 280.111C1767.3 280.111 1768.78 281.591 1768.78 283.417Z" fill="white"/>
<path fill-rule="evenodd" clip-rule="evenodd" d="M1801.83 283.417C1801.83 285.242 1800.35 286.722 1798.53 286.722C1796.7 286.722 1795.22 285.242 1795.22 283.417C1795.22 281.591 1796.7 280.111 1798.53 280.111C1800.35 280.111 1801.83 281.591 1801.83 283.417Z" fill="white"/>
<path fill-rule="evenodd" clip-rule="evenodd" d="M1834.89 283.417C1834.89 285.242 1833.41 286.722 1831.58 286.722C1829.76 286.722 1828.28 285.242 1828.28 283.417C1828.28 281.591 1829.76 280.111 1831.58 280.111C1833.41 280.111 1834.89 281.591 1834.89 283.417Z" fill="white"/>
<path fill-rule="evenodd" clip-rule="evenodd" d="M1867.94 283.417C1867.94 285.242 1866.46 286.722 1864.64 286.722C1862.81 286.722 1861.33 285.242 1861.33 283.417C1861.33 281.591 1862.81 280.111 1864.64 280.111C1866.46 280.111 1867.94 281.591 1867.94 283.417Z" fill="white"/>
<path fill-rule="evenodd" clip-rule="evenodd" d="M1901 283.417C1901 285.242 1899.52 286.722 1897.69 286.722C1895.87 286.722 1894.39 285.242 1894.39 283.417C1894.39 281.591 1895.87 280.111 1897.69 280.111C1899.52 280.111 1901 281.591 1901 283.417Z" fill="white"/>
<path fill-rule="evenodd" clip-rule="evenodd" d="M1669.61 316.472C1669.61 318.298 1668.13 319.778 1666.31 319.778C1664.48 319.778 1663 318.298 1663 316.472C1663 314.647 1664.48 313.167 1666.31 313.167C1668.13 313.167 1669.61 314.647 1669.61 316.472Z" fill="white"/>
<path fill-rule="evenodd" clip-rule="evenodd" d="M1702.67 316.472C1702.67 318.298 1701.19 319.778 1699.36 319.778C1697.54 319.778 1696.06 318.298 1696.06 316.472C1696.06 314.647 1697.54 313.167 1699.36 313.167C1701.19 313.167 1702.67 314.647 1702.67 316.472Z" fill="white"/>
<path fill-rule="evenodd" clip-rule="evenodd" d="M1735.72 316.472C1735.72 318.298 1734.24 319.778 1732.42 319.778C1730.59 319.778 1729.11 318.298 1729.11 316.472C1729.11 314.647 1730.59 313.167 1732.42 313.167C1734.24 313.167 1735.72 314.647 1735.72 316.472Z" fill="white"/>
<path fill-rule="evenodd" clip-rule="evenodd" d="M1768.78 316.472C1768.78 318.298 1767.3 319.778 1765.47 319.778C1763.65 319.778 1762.17 318.298 1762.17 316.472C1762.17 314.647 1763.65 313.167 1765.47 313.167C1767.3 313.167 1768.78 314.647 1768.78 316.472Z" fill="white"/>
<path fill-rule="evenodd" clip-rule="evenodd" d="M1801.83 316.472C1801.83 318.298 1800.35 319.778 1798.53 319.778C1796.7 319.778 1795.22 318.298 1795.22 316.472C1795.22 314.647 1796.7 313.167 1798.53 313.167C1800.35 313.167 1801.83 314.647 1801.83 316.472Z" fill="white"/>
<path fill-rule="evenodd" clip-rule="evenodd" d="M1834.89 316.472C1834.89 318.298 1833.41 319.778 1831.58 319.778C1829.76 319.778 1828.28 318.298 1828.28 316.472C1828.28 314.647 1829.76 313.167 1831.58 313.167C1833.41 313.167 1834.89 314.647 1834.89 316.472Z" fill="white"/>
<path fill-rule="evenodd" clip-rule="evenodd" d="M1867.94 316.472C1867.94 318.298 1866.46 319.778 1864.64 319.778C1862.81 319.778 1861.33 318.298 1861.33 316.472C1861.33 314.647 1862.81 313.167 1864.64 313.167C1866.46 313.167 1867.94 314.647 1867.94 316.472Z" fill="white"/>
<path fill-rule="evenodd" clip-rule="evenodd" d="M1901 316.472C1901 318.298 1899.52 319.778 1897.69 319.778C1895.87 319.778 1894.39 318.298 1894.39 316.472C1894.39 314.647 1895.87 313.167 1897.69 313.167C1899.52 313.167 1901 314.647 1901 316.472Z" fill="white"/>
<path fill-rule="evenodd" clip-rule="evenodd" d="M1669.61 349.528C1669.61 351.353 1668.13 352.833 1666.31 352.833C1664.48 352.833 1663 351.353 1663 349.528C1663 347.702 1664.48 346.222 1666.31 346.222C1668.13 346.222 1669.61 347.702 1669.61 349.528Z" fill="white"/>
<path fill-rule="evenodd" clip-rule="evenodd" d="M1702.67 349.528C1702.67 351.353 1701.19 352.833 1699.36 352.833C1697.54 352.833 1696.06 351.353 1696.06 349.528C1696.06 347.702 1697.54 346.222 1699.36 346.222C1701.19 346.222 1702.67 347.702 1702.67 349.528Z" fill="white"/>
<path fill-rule="evenodd" clip-rule="evenodd" d="M1735.72 349.528C1735.72 351.353 1734.24 352.833 1732.42 352.833C1730.59 352.833 1729.11 351.353 1729.11 349.528C1729.11 347.702 1730.59 346.222 1732.42 346.222C1734.24 346.222 1735.72 347.702 1735.72 349.528Z" fill="white"/>
<path fill-rule="evenodd" clip-rule="evenodd" d="M1768.78 349.528C1768.78 351.353 1767.3 352.833 1765.47 352.833C1763.65 352.833 1762.17 351.353 1762.17 349.528C1762.17 347.702 1763.65 346.222 1765.47 346.222C1767.3 346.222 1768.78 347.702 1768.78 349.528Z" fill="white"/>
<path fill-rule="evenodd" clip-rule="evenodd" d="M1801.83 349.528C1801.83 351.353 1800.35 352.833 1798.53 352.833C1796.7 352.833 1795.22 351.353 1795.22 349.528C1795.22 347.702 1796.7 346.222 1798.53 346.222C1800.35 346.222 1801.83 347.702 1801.83 349.528Z" fill="white"/>
<path fill-rule="evenodd" clip-rule="evenodd" d="M1834.89 349.528C1834.89 351.353 1833.41 352.833 1831.58 352.833C1829.76 352.833 1828.28 351.353 1828.28 349.528C1828.28 347.702 1829.76 346.222 1831.58 346.222C1833.41 346.222 1834.89 347.702 1834.89 349.528Z" fill="white"/>
<path fill-rule="evenodd" clip-rule="evenodd" d="M1867.94 349.528C1867.94 351.353 1866.46 352.833 1864.64 352.833C1862.81 352.833 1861.33 351.353 1861.33 349.528C1861.33 347.702 1862.81 346.222 1864.64 346.222C1866.46 346.222 1867.94 347.702 1867.94 349.528Z" fill="white"/>
<path fill-rule="evenodd" clip-rule="evenodd" d="M1901 349.528C1901 351.353 1899.52 352.833 1897.69 352.833C1895.87 352.833 1894.39 351.353 1894.39 349.528C1894.39 347.702 1895.87 346.222 1897.69 346.222C1899.52 346.222 1901 347.702 1901 349.528Z" fill="white"/>
<path fill-rule="evenodd" clip-rule="evenodd" d="M1669.61 382.583C1669.61 384.409 1668.13 385.889 1666.31 385.889C1664.48 385.889 1663 384.409 1663 382.583C1663 380.758 1664.48 379.278 1666.31 379.278C1668.13 379.278 1669.61 380.758 1669.61 382.583Z" fill="white"/>
<path fill-rule="evenodd" clip-rule="evenodd" d="M1702.67 382.583C1702.67 384.409 1701.19 385.889 1699.36 385.889C1697.54 385.889 1696.06 384.409 1696.06 382.583C1696.06 380.758 1697.54 379.278 1699.36 379.278C1701.19 379.278 1702.67 380.758 1702.67 382.583Z" fill="white"/>
<path fill-rule="evenodd" clip-rule="evenodd" d="M1735.72 382.583C1735.72 384.409 1734.24 385.889 1732.42 385.889C1730.59 385.889 1729.11 384.409 1729.11 382.583C1729.11 380.758 1730.59 379.278 1732.42 379.278C1734.24 379.278 1735.72 380.758 1735.72 382.583Z" fill="white"/>
<path fill-rule="evenodd" clip-rule="evenodd" d="M1768.78 382.583C1768.78 384.409 1767.3 385.889 1765.47 385.889C1763.65 385.889 1762.17 384.409 1762.17 382.583C1762.17 380.758 1763.65 379.278 1765.47 379.278C1767.3 379.278 1768.78 380.758 1768.78 382.583Z" fill="white"/>
<path fill-rule="evenodd" clip-rule="evenodd" d="M1801.83 382.583C1801.83 384.409 1800.35 385.889 1798.53 385.889C1796.7 385.889 1795.22 384.409 1795.22 382.583C1795.22 380.758 1796.7 379.278 1798.53 379.278C1800.35 379.278 1801.83 380.758 1801.83 382.583Z" fill="white"/>
<path fill-rule="evenodd" clip-rule="evenodd" d="M1834.89 382.583C1834.89 384.409 1833.41 385.889 1831.58 385.889C1829.76 385.889 1828.28 384.409 1828.28 382.583C1828.28 380.758 1829.76 379.278 1831.58 379.278C1833.41 379.278 1834.89 380.758 1834.89 382.583Z" fill="white"/>
<path fill-rule="evenodd" clip-rule="evenodd" d="M1867.94 382.583C1867.94 384.409 1866.46 385.889 1864.64 385.889C1862.81 385.889 1861.33 384.409 1861.33 382.583C1861.33 380.758 1862.81 379.278 1864.64 379.278C1866.46 379.278 1867.94 380.758 1867.94 382.583Z" fill="white"/>
<path fill-rule="evenodd" clip-rule="evenodd" d="M1901 382.583C1901 384.409 1899.52 385.889 1897.69 385.889C1895.87 385.889 1894.39 384.409 1894.39 382.583C1894.39 380.758 1895.87 379.278 1897.69 379.278C1899.52 379.278 1901 380.758 1901 382.583Z" fill="white"/>
<path fill-rule="evenodd" clip-rule="evenodd" d="M1669.61 415.639C1669.61 417.464 1668.13 418.944 1666.31 418.944C1664.48 418.944 1663 417.464 1663 415.639C1663 413.813 1664.48 412.333 1666.31 412.333C1668.13 412.333 1669.61 413.813 1669.61 415.639Z" fill="white"/>
<path fill-rule="evenodd" clip-rule="evenodd" d="M1702.67 415.639C1702.67 417.464 1701.19 418.944 1699.36 418.944C1697.54 418.944 1696.06 417.464 1696.06 415.639C1696.06 413.813 1697.54 412.333 1699.36 412.333C1701.19 412.333 1702.67 413.813 1702.67 415.639Z" fill="white"/>
<path fill-rule="evenodd" clip-rule="evenodd" d="M1735.72 415.639C1735.72 417.464 1734.24 418.944 1732.42 418.944C1730.59 418.944 1729.11 417.464 1729.11 415.639C1729.11 413.813 1730.59 412.333 1732.42 412.333C1734.24 412.333 1735.72 413.813 1735.72 415.639Z" fill="white"/>
<path fill-rule="evenodd" clip-rule="evenodd" d="M1768.78 415.639C1768.78 417.464 1767.3 418.944 1765.47 418.944C1763.65 418.944 1762.17 417.464 1762.17 415.639C1762.17 413.813 1763.65 412.333 1765.47 412.333C1767.3 412.333 1768.78 413.813 1768.78 415.639Z" fill="white"/>
<path fill-rule="evenodd" clip-rule="evenodd" d="M1801.83 415.639C1801.83 417.464 1800.35 418.944 1798.53 418.944C1796.7 418.944 1795.22 417.464 1795.22 415.639C1795.22 413.813 1796.7 412.333 1798.53 412.333C1800.35 412.333 1801.83 413.813 1801.83 415.639Z" fill="white"/>
<path fill-rule="evenodd" clip-rule="evenodd" d="M1834.89 415.639C1834.89 417.464 1833.41 418.944 1831.58 418.944C1829.76 418.944 1828.28 417.464 1828.28 415.639C1828.28 413.813 1829.76 412.333 1831.58 412.333C1833.41 412.333 1834.89 413.813 1834.89 415.639Z" fill="white"/>
<path fill-rule="evenodd" clip-rule="evenodd" d="M1867.94 415.639C1867.94 417.464 1866.46 418.944 1864.64 418.944C1862.81 418.944 1861.33 417.464 1861.33 415.639C1861.33 413.813 1862.81 412.333 1864.64 412.333C1866.46 412.333 1867.94 413.813 1867.94 415.639Z" fill="white"/>
<path fill-rule="evenodd" clip-rule="evenodd" d="M1901 415.639C1901 417.464 1899.52 418.944 1897.69 418.944C1895.87 418.944 1894.39 417.464 1894.39 415.639C1894.39 413.813 1895.87 412.333 1897.69 412.333C1899.52 412.333 1901 413.813 1901 415.639Z" fill="white"/>
<path fill-rule="evenodd" clip-rule="evenodd" d="M1669.61 448.694C1669.61 450.52 1668.13 452 1666.31 452C1664.48 452 1663 450.52 1663 448.694C1663 446.869 1664.48 445.389 1666.31 445.389C1668.13 445.389 1669.61 446.869 1669.61 448.694Z" fill="white"/>
<path fill-rule="evenodd" clip-rule="evenodd" d="M1702.67 448.694C1702.67 450.52 1701.19 452 1699.36 452C1697.54 452 1696.06 450.52 1696.06 448.694C1696.06 446.869 1697.54 445.389 1699.36 445.389C1701.19 445.389 1702.67 446.869 1702.67 448.694Z" fill="white"/>
<path fill-rule="evenodd" clip-rule="evenodd" d="M1735.72 448.694C1735.72 450.52 1734.24 452 1732.42 452C1730.59 452 1729.11 450.52 1729.11 448.694C1729.11 446.869 1730.59 445.389 1732.42 445.389C1734.24 445.389 1735.72 446.869 1735.72 448.694Z" fill="white"/>
<path fill-rule="evenodd" clip-rule="evenodd" d="M1768.78 448.694C1768.78 450.52 1767.3 452 1765.47 452C1763.65 452 1762.17 450.52 1762.17 448.694C1762.17 446.869 1763.65 445.389 1765.47 445.389C1767.3 445.389 1768.78 446.869 1768.78 448.694Z" fill="white"/>
<path fill-rule="evenodd" clip-rule="evenodd" d="M1801.83 448.694C1801.83 450.52 1800.35 452 1798.53 452C1796.7 452 1795.22 450.52 1795.22 448.694C1795.22 446.869 1796.7 445.389 1798.53 445.389C1800.35 445.389 1801.83 446.869 1801.83 448.694Z" fill="white"/>
<path fill-rule="evenodd" clip-rule="evenodd" d="M1834.89 448.694C1834.89 450.52 1833.41 452 1831.58 452C1829.76 452 1828.28 450.52 1828.28 448.694C1828.28 446.869 1829.76 445.389 1831.58 445.389C1833.41 445.389 1834.89 446.869 1834.89 448.694Z" fill="white"/>
<path fill-rule="evenodd" clip-rule="evenodd" d="M1867.94 448.694C1867.94 450.52 1866.46 452 1864.64 452C1862.81 452 1861.33 450.52 1861.33 448.694C1861.33 446.869 1862.81 445.389 1864.64 445.389C1866.46 445.389 1867.94 446.869 1867.94 448.694Z" fill="white"/>
<path fill-rule="evenodd" clip-rule="evenodd" d="M1901 448.694C1901 450.52 1899.52 452 1897.69 452C1895.87 452 1894.39 450.52 1894.39 448.694C1894.39 446.869 1895.87 445.389 1897.69 445.389C1899.52 445.389 1901 446.869 1901 448.694Z" fill="white"/>
<path fill-rule="evenodd" clip-rule="evenodd" d="M9.72244 570.306C9.72244 572.131 8.24238 573.611 6.41688 573.611C4.59139 573.611 3.11133 572.131 3.11133 570.306C3.11133 568.48 4.59139 567 6.41688 567C8.24238 567 9.72244 568.48 9.72244 570.306Z" fill="white"/>
<path fill-rule="evenodd" clip-rule="evenodd" d="M42.7776 570.306C42.7776 572.131 41.2976 573.611 39.4721 573.611C37.6466 573.611 36.1665 572.131 36.1665 570.306C36.1665 568.48 37.6466 567 39.4721 567C41.2976 567 42.7776 568.48 42.7776 570.306Z" fill="white"/>
<path fill-rule="evenodd" clip-rule="evenodd" d="M75.8333 570.306C75.8333 572.131 74.3532 573.611 72.5277 573.611C70.7022 573.611 69.2222 572.131 69.2222 570.306C69.2222 568.48 70.7022 567 72.5277 567C74.3532 567 75.8333 568.48 75.8333 570.306Z" fill="white"/>
<path fill-rule="evenodd" clip-rule="evenodd" d="M108.889 570.306C108.889 572.131 107.409 573.611 105.583 573.611C103.758 573.611 102.278 572.131 102.278 570.306C102.278 568.48 103.758 567 105.583 567C107.409 567 108.889 568.48 108.889 570.306Z" fill="white"/>
<path fill-rule="evenodd" clip-rule="evenodd" d="M141.945 570.306C141.945 572.131 140.465 573.611 138.639 573.611C136.814 573.611 135.333 572.131 135.333 570.306C135.333 568.48 136.814 567 138.639 567C140.465 567 141.945 568.48 141.945 570.306Z" fill="white"/>
<path fill-rule="evenodd" clip-rule="evenodd" d="M175 570.306C175 572.131 173.52 573.611 171.694 573.611C169.869 573.611 168.389 572.131 168.389 570.306C168.389 568.48 169.869 567 171.694 567C173.52 567 175 568.48 175 570.306Z" fill="white"/>
<path fill-rule="evenodd" clip-rule="evenodd" d="M9.72244 603.361C9.72244 605.187 8.24238 606.667 6.41688 606.667C4.59139 606.667 3.11133 605.187 3.11133 603.361C3.11133 601.536 4.59139 600.056 6.41688 600.056C8.24238 600.056 9.72244 601.536 9.72244 603.361Z" fill="white"/>
<path fill-rule="evenodd" clip-rule="evenodd" d="M42.7776 603.361C42.7776 605.187 41.2976 606.667 39.4721 606.667C37.6466 606.667 36.1665 605.187 36.1665 603.361C36.1665 601.536 37.6466 600.056 39.4721 600.056C41.2976 600.056 42.7776 601.536 42.7776 603.361Z" fill="white"/>
<path fill-rule="evenodd" clip-rule="evenodd" d="M75.8333 603.361C75.8333 605.187 74.3532 606.667 72.5277 606.667C70.7022 606.667 69.2222 605.187 69.2222 603.361C69.2222 601.536 70.7022 600.056 72.5277 600.056C74.3532 600.056 75.8333 601.536 75.8333 603.361Z" fill="white"/>
<path fill-rule="evenodd" clip-rule="evenodd" d="M108.889 603.361C108.889 605.187 107.409 606.667 105.583 606.667C103.758 606.667 102.278 605.187 102.278 603.361C102.278 601.536 103.758 600.056 105.583 600.056C107.409 600.056 108.889 601.536 108.889 603.361Z" fill="white"/>
<path fill-rule="evenodd" clip-rule="evenodd" d="M141.945 603.361C141.945 605.187 140.465 606.667 138.639 606.667C136.814 606.667 135.333 605.187 135.333 603.361C135.333 601.536 136.814 600.056 138.639 600.056C140.465 600.056 141.945 601.536 141.945 603.361Z" fill="white"/>
<path fill-rule="evenodd" clip-rule="evenodd" d="M175 603.361C175 605.187 173.52 606.667 171.694 606.667C169.869 606.667 168.389 605.187 168.389 603.361C168.389 601.536 169.869 600.056 171.694 600.056C173.52 600.056 175 601.536 175 603.361Z" fill="white"/>
<path fill-rule="evenodd" clip-rule="evenodd" d="M9.72244 636.417C9.72244 638.242 8.24238 639.722 6.41688 639.722C4.59139 639.722 3.11133 638.242 3.11133 636.417C3.11133 634.591 4.59139 633.111 6.41688 633.111C8.24238 633.111 9.72244 634.591 9.72244 636.417Z" fill="white"/>
<path fill-rule="evenodd" clip-rule="evenodd" d="M42.7776 636.417C42.7776 638.242 41.2976 639.722 39.4721 639.722C37.6466 639.722 36.1665 638.242 36.1665 636.417C36.1665 634.591 37.6466 633.111 39.4721 633.111C41.2976 633.111 42.7776 634.591 42.7776 636.417Z" fill="white"/>
<path fill-rule="evenodd" clip-rule="evenodd" d="M75.8333 636.417C75.8333 638.242 74.3532 639.722 72.5277 639.722C70.7022 639.722 69.2222 638.242 69.2222 636.417C69.2222 634.591 70.7022 633.111 72.5277 633.111C74.3532 633.111 75.8333 634.591 75.8333 636.417Z" fill="white"/>
<path fill-rule="evenodd" clip-rule="evenodd" d="M108.889 636.417C108.889 638.242 107.409 639.722 105.583 639.722C103.758 639.722 102.278 638.242 102.278 636.417C102.278 634.591 103.758 633.111 105.583 633.111C107.409 633.111 108.889 634.591 108.889 636.417Z" fill="white"/>
<path fill-rule="evenodd" clip-rule="evenodd" d="M141.945 636.417C141.945 638.242 140.465 639.722 138.639 639.722C136.814 639.722 135.333 638.242 135.333 636.417C135.333 634.591 136.814 633.111 138.639 633.111C140.465 633.111 141.945 634.591 141.945 636.417Z" fill="white"/>
<path fill-rule="evenodd" clip-rule="evenodd" d="M175 636.417C175 638.242 173.52 639.722 171.694 639.722C169.869 639.722 168.389 638.242 168.389 636.417C168.389 634.591 169.869 633.111 171.694 633.111C173.52 633.111 175 634.591 175 636.417Z" fill="white"/>
<path fill-rule="evenodd" clip-rule="evenodd" d="M9.72244 669.472C9.72244 671.298 8.24238 672.778 6.41688 672.778C4.59139 672.778 3.11133 671.298 3.11133 669.472C3.11133 667.647 4.59139 666.167 6.41688 666.167C8.24238 666.167 9.72244 667.647 9.72244 669.472Z" fill="white"/>
<path fill-rule="evenodd" clip-rule="evenodd" d="M42.7776 669.472C42.7776 671.298 41.2976 672.778 39.4721 672.778C37.6466 672.778 36.1665 671.298 36.1665 669.472C36.1665 667.647 37.6466 666.167 39.4721 666.167C41.2976 666.167 42.7776 667.647 42.7776 669.472Z" fill="white"/>
<path fill-rule="evenodd" clip-rule="evenodd" d="M75.8333 669.472C75.8333 671.298 74.3532 672.778 72.5277 672.778C70.7022 672.778 69.2222 671.298 69.2222 669.472C69.2222 667.647 70.7022 666.167 72.5277 666.167C74.3532 666.167 75.8333 667.647 75.8333 669.472Z" fill="white"/>
<path fill-rule="evenodd" clip-rule="evenodd" d="M108.889 669.472C108.889 671.298 107.409 672.778 105.583 672.778C103.758 672.778 102.278 671.298 102.278 669.472C102.278 667.647 103.758 666.167 105.583 666.167C107.409 666.167 108.889 667.647 108.889 669.472Z" fill="white"/>
<path fill-rule="evenodd" clip-rule="evenodd" d="M141.945 669.472C141.945 671.298 140.465 672.778 138.639 672.778C136.814 672.778 135.333 671.298 135.333 669.472C135.333 667.647 136.814 666.167 138.639 666.167C140.465 666.167 141.945 667.647 141.945 669.472Z" fill="white"/>
<path fill-rule="evenodd" clip-rule="evenodd" d="M175 669.472C175 671.298 173.52 672.778 171.694 672.778C169.869 672.778 168.389 671.298 168.389 669.472C168.389 667.647 169.869 666.167 171.694 666.167C173.52 666.167 175 667.647 175 669.472Z" fill="white"/>
<path fill-rule="evenodd" clip-rule="evenodd" d="M9.72244 702.528C9.72244 704.353 8.24238 705.833 6.41688 705.833C4.59139 705.833 3.11133 704.353 3.11133 702.528C3.11133 700.702 4.59139 699.222 6.41688 699.222C8.24238 699.222 9.72244 700.702 9.72244 702.528Z" fill="white"/>
<path fill-rule="evenodd" clip-rule="evenodd" d="M42.7776 702.528C42.7776 704.353 41.2976 705.833 39.4721 705.833C37.6466 705.833 36.1665 704.353 36.1665 702.528C36.1665 700.702 37.6466 699.222 39.4721 699.222C41.2976 699.222 42.7776 700.702 42.7776 702.528Z" fill="white"/>
<path fill-rule="evenodd" clip-rule="evenodd" d="M75.8333 702.528C75.8333 704.353 74.3532 705.833 72.5277 705.833C70.7022 705.833 69.2222 704.353 69.2222 702.528C69.2222 700.702 70.7022 699.222 72.5277 699.222C74.3532 699.222 75.8333 700.702 75.8333 702.528Z" fill="white"/>
<path fill-rule="evenodd" clip-rule="evenodd" d="M108.889 702.528C108.889 704.353 107.409 705.833 105.583 705.833C103.758 705.833 102.278 704.353 102.278 702.528C102.278 700.702 103.758 699.222 105.583 699.222C107.409 699.222 108.889 700.702 108.889 702.528Z" fill="white"/>
<path fill-rule="evenodd" clip-rule="evenodd" d="M141.945 702.528C141.945 704.353 140.465 705.833 138.639 705.833C136.814 705.833 135.333 704.353 135.333 702.528C135.333 700.702 136.814 699.222 138.639 699.222C140.465 699.222 141.945 700.702 141.945 702.528Z" fill="white"/>
<path fill-rule="evenodd" clip-rule="evenodd" d="M175 702.528C175 704.353 173.52 705.833 171.694 705.833C169.869 705.833 168.389 704.353 168.389 702.528C168.389 700.702 169.869 699.222 171.694 699.222C173.52 699.222 175 700.702 175 702.528Z" fill="white"/>
<path fill-rule="evenodd" clip-rule="evenodd" d="M9.72244 735.583C9.72244 737.409 8.24238 738.889 6.41688 738.889C4.59139 738.889 3.11133 737.409 3.11133 735.583C3.11133 733.758 4.59139 732.278 6.41688 732.278C8.24238 732.278 9.72244 733.758 9.72244 735.583Z" fill="white"/>
<path fill-rule="evenodd" clip-rule="evenodd" d="M42.7776 735.583C42.7776 737.409 41.2976 738.889 39.4721 738.889C37.6466 738.889 36.1665 737.409 36.1665 735.583C36.1665 733.758 37.6466 732.278 39.4721 732.278C41.2976 732.278 42.7776 733.758 42.7776 735.583Z" fill="white"/>
<path fill-rule="evenodd" clip-rule="evenodd" d="M75.8333 735.583C75.8333 737.409 74.3532 738.889 72.5277 738.889C70.7022 738.889 69.2222 737.409 69.2222 735.583C69.2222 733.758 70.7022 732.278 72.5277 732.278C74.3532 732.278 75.8333 733.758 75.8333 735.583Z" fill="white"/>
<path fill-rule="evenodd" clip-rule="evenodd" d="M108.889 735.583C108.889 737.409 107.409 738.889 105.583 738.889C103.758 738.889 102.278 737.409 102.278 735.583C102.278 733.758 103.758 732.278 105.583 732.278C107.409 732.278 108.889 733.758 108.889 735.583Z" fill="white"/>
<path fill-rule="evenodd" clip-rule="evenodd" d="M141.945 735.583C141.945 737.409 140.465 738.889 138.639 738.889C136.814 738.889 135.333 737.409 135.333 735.583C135.333 733.758 136.814 732.278 138.639 732.278C140.465 732.278 141.945 733.758 141.945 735.583Z" fill="white"/>
<path fill-rule="evenodd" clip-rule="evenodd" d="M175 735.583C175 737.409 173.52 738.889 171.694 738.889C169.869 738.889 168.389 737.409 168.389 735.583C168.389 733.758 169.869 732.278 171.694 732.278C173.52 732.278 175 733.758 175 735.583Z" fill="white"/>
<path fill-rule="evenodd" clip-rule="evenodd" d="M9.72244 768.639C9.72244 770.464 8.24238 771.944 6.41688 771.944C4.59139 771.944 3.11133 770.464 3.11133 768.639C3.11133 766.813 4.59139 765.333 6.41688 765.333C8.24238 765.333 9.72244 766.813 9.72244 768.639Z" fill="white"/>
<path fill-rule="evenodd" clip-rule="evenodd" d="M42.7776 768.639C42.7776 770.464 41.2976 771.944 39.4721 771.944C37.6466 771.944 36.1665 770.464 36.1665 768.639C36.1665 766.813 37.6466 765.333 39.4721 765.333C41.2976 765.333 42.7776 766.813 42.7776 768.639Z" fill="white"/>
<path fill-rule="evenodd" clip-rule="evenodd" d="M75.8333 768.639C75.8333 770.464 74.3532 771.944 72.5277 771.944C70.7022 771.944 69.2222 770.464 69.2222 768.639C69.2222 766.813 70.7022 765.333 72.5277 765.333C74.3532 765.333 75.8333 766.813 75.8333 768.639Z" fill="white"/>
<path fill-rule="evenodd" clip-rule="evenodd" d="M108.889 768.639C108.889 770.464 107.409 771.944 105.583 771.944C103.758 771.944 102.278 770.464 102.278 768.639C102.278 766.813 103.758 765.333 105.583 765.333C107.409 765.333 108.889 766.813 108.889 768.639Z" fill="white"/>
<path fill-rule="evenodd" clip-rule="evenodd" d="M141.945 768.639C141.945 770.464 140.465 771.944 138.639 771.944C136.814 771.944 135.333 770.464 135.333 768.639C135.333 766.813 136.814 765.333 138.639 765.333C140.465 765.333 141.945 766.813 141.945 768.639Z" fill="white"/>
<path fill-rule="evenodd" clip-rule="evenodd" d="M175 768.639C175 770.464 173.52 771.944 171.694 771.944C169.869 771.944 168.389 770.464 168.389 768.639C168.389 766.813 169.869 765.333 171.694 765.333C173.52 765.333 175 766.813 175 768.639Z" fill="white"/>
<path fill-rule="evenodd" clip-rule="evenodd" d="M9.72244 801.694C9.72244 803.52 8.24238 805 6.41688 805C4.59139 805 3.11133 803.52 3.11133 801.694C3.11133 799.869 4.59139 798.389 6.41688 798.389C8.24238 798.389 9.72244 799.869 9.72244 801.694Z" fill="white"/>
<path fill-rule="evenodd" clip-rule="evenodd" d="M42.7776 801.694C42.7776 803.52 41.2976 805 39.4721 805C37.6466 805 36.1665 803.52 36.1665 801.694C36.1665 799.869 37.6466 798.389 39.4721 798.389C41.2976 798.389 42.7776 799.869 42.7776 801.694Z" fill="white"/>
<path fill-rule="evenodd" clip-rule="evenodd" d="M75.8333 801.694C75.8333 803.52 74.3532 805 72.5277 805C70.7022 805 69.2222 803.52 69.2222 801.694C69.2222 799.869 70.7022 798.389 72.5277 798.389C74.3532 798.389 75.8333 799.869 75.8333 801.694Z" fill="white"/>
<path fill-rule="evenodd" clip-rule="evenodd" d="M108.889 801.694C108.889 803.52 107.409 805 105.583 805C103.758 805 102.278 803.52 102.278 801.694C102.278 799.869 103.758 798.389 105.583 798.389C107.409 798.389 108.889 799.869 108.889 801.694Z" fill="white"/>
<path fill-rule="evenodd" clip-rule="evenodd" d="M141.945 801.694C141.945 803.52 140.465 805 138.639 805C136.814 805 135.333 803.52 135.333 801.694C135.333 799.869 136.814 798.389 138.639 798.389C140.465 798.389 141.945 799.869 141.945 801.694Z" fill="white"/>
<path fill-rule="evenodd" clip-rule="evenodd" d="M175 801.694C175 803.52 173.52 805 171.694 805C169.869 805 168.389 803.52 168.389 801.694C168.389 799.869 169.869 798.389 171.694 798.389C173.52 798.389 175 799.869 175 801.694Z" fill="white"/>
<path fill-rule="evenodd" clip-rule="evenodd" d="M9.72244 834.306C9.72244 836.131 8.24238 837.611 6.41688 837.611C4.59139 837.611 3.11133 836.131 3.11133 834.306C3.11133 832.48 4.59139 831 6.41688 831C8.24238 831 9.72244 832.48 9.72244 834.306Z" fill="white"/>
<path fill-rule="evenodd" clip-rule="evenodd" d="M42.7776 834.306C42.7776 836.131 41.2976 837.611 39.4721 837.611C37.6466 837.611 36.1665 836.131 36.1665 834.306C36.1665 832.48 37.6466 831 39.4721 831C41.2976 831 42.7776 832.48 42.7776 834.306Z" fill="white"/>
<path fill-rule="evenodd" clip-rule="evenodd" d="M75.8333 834.306C75.8333 836.131 74.3532 837.611 72.5277 837.611C70.7022 837.611 69.2222 836.131 69.2222 834.306C69.2222 832.48 70.7022 831 72.5277 831C74.3532 831 75.8333 832.48 75.8333 834.306Z" fill="white"/>
<path fill-rule="evenodd" clip-rule="evenodd" d="M108.889 834.306C108.889 836.131 107.409 837.611 105.583 837.611C103.758 837.611 102.278 836.131 102.278 834.306C102.278 832.48 103.758 831 105.583 831C107.409 831 108.889 832.48 108.889 834.306Z" fill="white"/>
<path fill-rule="evenodd" clip-rule="evenodd" d="M141.945 834.306C141.945 836.131 140.465 837.611 138.639 837.611C136.814 837.611 135.333 836.131 135.333 834.306C135.333 832.48 136.814 831 138.639 831C140.465 831 141.945 832.48 141.945 834.306Z" fill="white"/>
<path fill-rule="evenodd" clip-rule="evenodd" d="M175 834.306C175 836.131 173.52 837.611 171.694 837.611C169.869 837.611 168.389 836.131 168.389 834.306C168.389 832.48 169.869 831 171.694 831C173.52 831 175 832.48 175 834.306Z" fill="white"/>
<path fill-rule="evenodd" clip-rule="evenodd" d="M9.72244 867.361C9.72244 869.187 8.24238 870.667 6.41688 870.667C4.59139 870.667 3.11133 869.187 3.11133 867.361C3.11133 865.536 4.59139 864.056 6.41688 864.056C8.24238 864.056 9.72244 865.536 9.72244 867.361Z" fill="white"/>
<path fill-rule="evenodd" clip-rule="evenodd" d="M42.7776 867.361C42.7776 869.187 41.2976 870.667 39.4721 870.667C37.6466 870.667 36.1665 869.187 36.1665 867.361C36.1665 865.536 37.6466 864.056 39.4721 864.056C41.2976 864.056 42.7776 865.536 42.7776 867.361Z" fill="white"/>
<path fill-rule="evenodd" clip-rule="evenodd" d="M75.8333 867.361C75.8333 869.187 74.3532 870.667 72.5277 870.667C70.7022 870.667 69.2222 869.187 69.2222 867.361C69.2222 865.536 70.7022 864.056 72.5277 864.056C74.3532 864.056 75.8333 865.536 75.8333 867.361Z" fill="white"/>
<path fill-rule="evenodd" clip-rule="evenodd" d="M108.889 867.361C108.889 869.187 107.409 870.667 105.583 870.667C103.758 870.667 102.278 869.187 102.278 867.361C102.278 865.536 103.758 864.056 105.583 864.056C107.409 864.056 108.889 865.536 108.889 867.361Z" fill="white"/>
<path fill-rule="evenodd" clip-rule="evenodd" d="M141.945 867.361C141.945 869.187 140.465 870.667 138.639 870.667C136.814 870.667 135.333 869.187 135.333 867.361C135.333 865.536 136.814 864.056 138.639 864.056C140.465 864.056 141.945 865.536 141.945 867.361Z" fill="white"/>
<path fill-rule="evenodd" clip-rule="evenodd" d="M175 867.361C175 869.187 173.52 870.667 171.694 870.667C169.869 870.667 168.389 869.187 168.389 867.361C168.389 865.536 169.869 864.056 171.694 864.056C173.52 864.056 175 865.536 175 867.361Z" fill="white"/>
<path fill-rule="evenodd" clip-rule="evenodd" d="M9.72244 900.417C9.72244 902.242 8.24238 903.722 6.41688 903.722C4.59139 903.722 3.11133 902.242 3.11133 900.417C3.11133 898.591 4.59139 897.111 6.41688 897.111C8.24238 897.111 9.72244 898.591 9.72244 900.417Z" fill="white"/>
<path fill-rule="evenodd" clip-rule="evenodd" d="M42.7776 900.417C42.7776 902.242 41.2976 903.722 39.4721 903.722C37.6466 903.722 36.1665 902.242 36.1665 900.417C36.1665 898.591 37.6466 897.111 39.4721 897.111C41.2976 897.111 42.7776 898.591 42.7776 900.417Z" fill="white"/>
<path fill-rule="evenodd" clip-rule="evenodd" d="M75.8333 900.417C75.8333 902.242 74.3532 903.722 72.5277 903.722C70.7022 903.722 69.2222 902.242 69.2222 900.417C69.2222 898.591 70.7022 897.111 72.5277 897.111C74.3532 897.111 75.8333 898.591 75.8333 900.417Z" fill="white"/>
<path fill-rule="evenodd" clip-rule="evenodd" d="M108.889 900.417C108.889 902.242 107.409 903.722 105.583 903.722C103.758 903.722 102.278 902.242 102.278 900.417C102.278 898.591 103.758 897.111 105.583 897.111C107.409 897.111 108.889 898.591 108.889 900.417Z" fill="white"/>
<path fill-rule="evenodd" clip-rule="evenodd" d="M141.945 900.417C141.945 902.242 140.465 903.722 138.639 903.722C136.814 903.722 135.333 902.242 135.333 900.417C135.333 898.591 136.814 897.111 138.639 897.111C140.465 897.111 141.945 898.591 141.945 900.417Z" fill="white"/>
<path fill-rule="evenodd" clip-rule="evenodd" d="M175 900.417C175 902.242 173.52 903.722 171.694 903.722C169.869 903.722 168.389 902.242 168.389 900.417C168.389 898.591 169.869 897.111 171.694 897.111C173.52 897.111 175 898.591 175 900.417Z" fill="white"/>
<path fill-rule="evenodd" clip-rule="evenodd" d="M9.72244 933.472C9.72244 935.298 8.24238 936.778 6.41688 936.778C4.59139 936.778 3.11133 935.298 3.11133 933.472C3.11133 931.647 4.59139 930.167 6.41688 930.167C8.24238 930.167 9.72244 931.647 9.72244 933.472Z" fill="white"/>
<path fill-rule="evenodd" clip-rule="evenodd" d="M42.7776 933.472C42.7776 935.298 41.2976 936.778 39.4721 936.778C37.6466 936.778 36.1665 935.298 36.1665 933.472C36.1665 931.647 37.6466 930.167 39.4721 930.167C41.2976 930.167 42.7776 931.647 42.7776 933.472Z" fill="white"/>
<path fill-rule="evenodd" clip-rule="evenodd" d="M75.8333 933.472C75.8333 935.298 74.3532 936.778 72.5277 936.778C70.7022 936.778 69.2222 935.298 69.2222 933.472C69.2222 931.647 70.7022 930.167 72.5277 930.167C74.3532 930.167 75.8333 931.647 75.8333 933.472Z" fill="white"/>
<path fill-rule="evenodd" clip-rule="evenodd" d="M108.889 933.472C108.889 935.298 107.409 936.778 105.583 936.778C103.758 936.778 102.278 935.298 102.278 933.472C102.278 931.647 103.758 930.167 105.583 930.167C107.409 930.167 108.889 931.647 108.889 933.472Z" fill="white"/>
<path fill-rule="evenodd" clip-rule="evenodd" d="M141.945 933.472C141.945 935.298 140.465 936.778 138.639 936.778C136.814 936.778 135.333 935.298 135.333 933.472C135.333 931.647 136.814 930.167 138.639 930.167C140.465 930.167 141.945 931.647 141.945 933.472Z" fill="white"/>
<path fill-rule="evenodd" clip-rule="evenodd" d="M175 933.472C175 935.298 173.52 936.778 171.694 936.778C169.869 936.778 168.389 935.298 168.389 933.472C168.389 931.647 169.869 930.167 171.694 930.167C173.52 930.167 175 931.647 175 933.472Z" fill="white"/>
<path fill-rule="evenodd" clip-rule="evenodd" d="M9.72244 966.528C9.72244 968.353 8.24238 969.833 6.41688 969.833C4.59139 969.833 3.11133 968.353 3.11133 966.528C3.11133 964.702 4.59139 963.222 6.41688 963.222C8.24238 963.222 9.72244 964.702 9.72244 966.528Z" fill="white"/>
<path fill-rule="evenodd" clip-rule="evenodd" d="M42.7776 966.528C42.7776 968.353 41.2976 969.833 39.4721 969.833C37.6466 969.833 36.1665 968.353 36.1665 966.528C36.1665 964.702 37.6466 963.222 39.4721 963.222C41.2976 963.222 42.7776 964.702 42.7776 966.528Z" fill="white"/>
<path fill-rule="evenodd" clip-rule="evenodd" d="M75.8333 966.528C75.8333 968.353 74.3532 969.833 72.5277 969.833C70.7022 969.833 69.2222 968.353 69.2222 966.528C69.2222 964.702 70.7022 963.222 72.5277 963.222C74.3532 963.222 75.8333 964.702 75.8333 966.528Z" fill="white"/>
<path fill-rule="evenodd" clip-rule="evenodd" d="M108.889 966.528C108.889 968.353 107.409 969.833 105.583 969.833C103.758 969.833 102.278 968.353 102.278 966.528C102.278 964.702 103.758 963.222 105.583 963.222C107.409 963.222 108.889 964.702 108.889 966.528Z" fill="white"/>
<path fill-rule="evenodd" clip-rule="evenodd" d="M141.945 966.528C141.945 968.353 140.465 969.833 138.639 969.833C136.814 969.833 135.333 968.353 135.333 966.528C135.333 964.702 136.814 963.222 138.639 963.222C140.465 963.222 141.945 964.702 141.945 966.528Z" fill="white"/>
<path fill-rule="evenodd" clip-rule="evenodd" d="M175 966.528C175 968.353 173.52 969.833 171.694 969.833C169.869 969.833 168.389 968.353 168.389 966.528C168.389 964.702 169.869 963.222 171.694 963.222C173.52 963.222 175 964.702 175 966.528Z" fill="white"/>
<path fill-rule="evenodd" clip-rule="evenodd" d="M9.72244 999.583C9.72244 1001.41 8.24238 1002.89 6.41688 1002.89C4.59139 1002.89 3.11133 1001.41 3.11133 999.583C3.11133 997.758 4.59139 996.278 6.41688 996.278C8.24238 996.278 9.72244 997.758 9.72244 999.583Z" fill="white"/>
<path fill-rule="evenodd" clip-rule="evenodd" d="M42.7776 999.583C42.7776 1001.41 41.2976 1002.89 39.4721 1002.89C37.6466 1002.89 36.1665 1001.41 36.1665 999.583C36.1665 997.758 37.6466 996.278 39.4721 996.278C41.2976 996.278 42.7776 997.758 42.7776 999.583Z" fill="white"/>
<path fill-rule="evenodd" clip-rule="evenodd" d="M75.8333 999.583C75.8333 1001.41 74.3532 1002.89 72.5277 1002.89C70.7022 1002.89 69.2222 1001.41 69.2222 999.583C69.2222 997.758 70.7022 996.278 72.5277 996.278C74.3532 996.278 75.8333 997.758 75.8333 999.583Z" fill="white"/>
<path fill-rule="evenodd" clip-rule="evenodd" d="M108.889 999.583C108.889 1001.41 107.409 1002.89 105.583 1002.89C103.758 1002.89 102.278 1001.41 102.278 999.583C102.278 997.758 103.758 996.278 105.583 996.278C107.409 996.278 108.889 997.758 108.889 999.583Z" fill="white"/>
<path fill-rule="evenodd" clip-rule="evenodd" d="M141.945 999.583C141.945 1001.41 140.465 1002.89 138.639 1002.89C136.814 1002.89 135.333 1001.41 135.333 999.583C135.333 997.758 136.814 996.278 138.639 996.278C140.465 996.278 141.945 997.758 141.945 999.583Z" fill="white"/>
<path fill-rule="evenodd" clip-rule="evenodd" d="M175 999.583C175 1001.41 173.52 1002.89 171.694 1002.89C169.869 1002.89 168.389 1001.41 168.389 999.583C168.389 997.758 169.869 996.278 171.694 996.278C173.52 996.278 175 997.758 175 999.583Z" fill="white"/>
<path fill-rule="evenodd" clip-rule="evenodd" d="M9.72244 1032.64C9.72244 1034.46 8.24238 1035.94 6.41688 1035.94C4.59139 1035.94 3.11133 1034.46 3.11133 1032.64C3.11133 1030.81 4.59139 1029.33 6.41688 1029.33C8.24238 1029.33 9.72244 1030.81 9.72244 1032.64Z" fill="white"/>
<path fill-rule="evenodd" clip-rule="evenodd" d="M42.7776 1032.64C42.7776 1034.46 41.2976 1035.94 39.4721 1035.94C37.6466 1035.94 36.1665 1034.46 36.1665 1032.64C36.1665 1030.81 37.6466 1029.33 39.4721 1029.33C41.2976 1029.33 42.7776 1030.81 42.7776 1032.64Z" fill="white"/>
<path fill-rule="evenodd" clip-rule="evenodd" d="M75.8333 1032.64C75.8333 1034.46 74.3532 1035.94 72.5277 1035.94C70.7022 1035.94 69.2222 1034.46 69.2222 1032.64C69.2222 1030.81 70.7022 1029.33 72.5277 1029.33C74.3532 1029.33 75.8333 1030.81 75.8333 1032.64Z" fill="white"/>
<path fill-rule="evenodd" clip-rule="evenodd" d="M108.889 1032.64C108.889 1034.46 107.409 1035.94 105.583 1035.94C103.758 1035.94 102.278 1034.46 102.278 1032.64C102.278 1030.81 103.758 1029.33 105.583 1029.33C107.409 1029.33 108.889 1030.81 108.889 1032.64Z" fill="white"/>
<path fill-rule="evenodd" clip-rule="evenodd" d="M141.945 1032.64C141.945 1034.46 140.465 1035.94 138.639 1035.94C136.814 1035.94 135.333 1034.46 135.333 1032.64C135.333 1030.81 136.814 1029.33 138.639 1029.33C140.465 1029.33 141.945 1030.81 141.945 1032.64Z" fill="white"/>
<path fill-rule="evenodd" clip-rule="evenodd" d="M175 1032.64C175 1034.46 173.52 1035.94 171.694 1035.94C169.869 1035.94 168.389 1034.46 168.389 1032.64C168.389 1030.81 169.869 1029.33 171.694 1029.33C173.52 1029.33 175 1030.81 175 1032.64Z" fill="white"/>
<path fill-rule="evenodd" clip-rule="evenodd" d="M9.72244 1065.69C9.72244 1067.52 8.24238 1069 6.41688 1069C4.59139 1069 3.11133 1067.52 3.11133 1065.69C3.11133 1063.87 4.59139 1062.39 6.41688 1062.39C8.24238 1062.39 9.72244 1063.87 9.72244 1065.69Z" fill="white"/>
<path fill-rule="evenodd" clip-rule="evenodd" d="M42.7776 1065.69C42.7776 1067.52 41.2976 1069 39.4721 1069C37.6466 1069 36.1665 1067.52 36.1665 1065.69C36.1665 1063.87 37.6466 1062.39 39.4721 1062.39C41.2976 1062.39 42.7776 1063.87 42.7776 1065.69Z" fill="white"/>
<path fill-rule="evenodd" clip-rule="evenodd" d="M75.8333 1065.69C75.8333 1067.52 74.3532 1069 72.5277 1069C70.7022 1069 69.2222 1067.52 69.2222 1065.69C69.2222 1063.87 70.7022 1062.39 72.5277 1062.39C74.3532 1062.39 75.8333 1063.87 75.8333 1065.69Z" fill="white"/>
<path fill-rule="evenodd" clip-rule="evenodd" d="M108.889 1065.69C108.889 1067.52 107.409 1069 105.583 1069C103.758 1069 102.278 1067.52 102.278 1065.69C102.278 1063.87 103.758 1062.39 105.583 1062.39C107.409 1062.39 108.889 1063.87 108.889 1065.69Z" fill="white"/>
<path fill-rule="evenodd" clip-rule="evenodd" d="M141.945 1065.69C141.945 1067.52 140.465 1069 138.639 1069C136.814 1069 135.333 1067.52 135.333 1065.69C135.333 1063.87 136.814 1062.39 138.639 1062.39C140.465 1062.39 141.945 1063.87 141.945 1065.69Z" fill="white"/>
<path fill-rule="evenodd" clip-rule="evenodd" d="M175 1065.69C175 1067.52 173.52 1069 171.694 1069C169.869 1069 168.389 1067.52 168.389 1065.69C168.389 1063.87 169.869 1062.39 171.694 1062.39C173.52 1062.39 175 1063.87 175 1065.69Z" fill="white"/>
</svg>
