<svg width="1916" height="1030" viewBox="0 0 1916 1030" fill="none" xmlns="http://www.w3.org/2000/svg">
<path d="M3 1028C3 1029.1 3.89543 1030 5 1030H1914C1915.1 1030 1916 1029.1 1916 1028V27C1916 25.8955 1915.1 25 1914 25H133C61.203 25 3 83.203 3 155V1028Z" fill="#0094FF"/>
<path fill-rule="evenodd" clip-rule="evenodd" d="M1669.61 3.30556C1669.61 5.13105 1668.13 6.61111 1666.31 6.61111C1664.48 6.61111 1663 5.13105 1663 3.30556C1663 1.48006 1664.48 0 1666.31 0C1668.13 0 1669.61 1.48006 1669.61 3.30556" fill="white"/>
<path fill-rule="evenodd" clip-rule="evenodd" d="M1702.67 3.30556C1702.67 5.13105 1701.19 6.61111 1699.36 6.61111C1697.54 6.61111 1696.06 5.13105 1696.06 3.30556C1696.06 1.48006 1697.54 0 1699.36 0C1701.19 0 1702.67 1.48006 1702.67 3.30556" fill="white"/>
<path fill-rule="evenodd" clip-rule="evenodd" d="M1735.72 3.30556C1735.72 5.13105 1734.24 6.61111 1732.42 6.61111C1730.59 6.61111 1729.11 5.13105 1729.11 3.30556C1729.11 1.48006 1730.59 0 1732.42 0C1734.24 0 1735.72 1.48006 1735.72 3.30556" fill="white"/>
<path fill-rule="evenodd" clip-rule="evenodd" d="M1768.78 3.30556C1768.78 5.13105 1767.3 6.61111 1765.47 6.61111C1763.65 6.61111 1762.17 5.13105 1762.17 3.30556C1762.17 1.48006 1763.65 0 1765.47 0C1767.3 0 1768.78 1.48006 1768.78 3.30556" fill="white"/>
<path fill-rule="evenodd" clip-rule="evenodd" d="M1801.83 3.30556C1801.83 5.13105 1800.35 6.61111 1798.53 6.61111C1796.7 6.61111 1795.22 5.13105 1795.22 3.30556C1795.22 1.48006 1796.7 0 1798.53 0C1800.35 0 1801.83 1.48006 1801.83 3.30556" fill="white"/>
<path fill-rule="evenodd" clip-rule="evenodd" d="M1834.89 3.30556C1834.89 5.13105 1833.41 6.61111 1831.58 6.61111C1829.76 6.61111 1828.28 5.13105 1828.28 3.30556C1828.28 1.48006 1829.76 0 1831.58 0C1833.41 0 1834.89 1.48006 1834.89 3.30556" fill="white"/>
<path fill-rule="evenodd" clip-rule="evenodd" d="M1867.94 3.30556C1867.94 5.13105 1866.46 6.61111 1864.64 6.61111C1862.81 6.61111 1861.33 5.13105 1861.33 3.30556C1861.33 1.48006 1862.81 0 1864.64 0C1866.46 0 1867.94 1.48006 1867.94 3.30556" fill="white"/>
<path fill-rule="evenodd" clip-rule="evenodd" d="M1901 3.30556C1901 5.13105 1899.52 6.61111 1897.69 6.61111C1895.87 6.61111 1894.39 5.13105 1894.39 3.30556C1894.39 1.48006 1895.87 0 1897.69 0C1899.52 0 1901 1.48006 1901 3.30556" fill="white"/>
<path fill-rule="evenodd" clip-rule="evenodd" d="M1669.61 36.3611C1669.61 38.1866 1668.13 39.6667 1666.31 39.6667C1664.48 39.6667 1663 38.1866 1663 36.3611C1663 34.5356 1664.48 33.0555 1666.31 33.0555C1668.13 33.0555 1669.61 34.5356 1669.61 36.3611" fill="white"/>
<path fill-rule="evenodd" clip-rule="evenodd" d="M1702.67 36.3611C1702.67 38.1866 1701.19 39.6667 1699.36 39.6667C1697.54 39.6667 1696.06 38.1866 1696.06 36.3611C1696.06 34.5356 1697.54 33.0555 1699.36 33.0555C1701.19 33.0555 1702.67 34.5356 1702.67 36.3611" fill="white"/>
<path fill-rule="evenodd" clip-rule="evenodd" d="M1735.72 36.3611C1735.72 38.1866 1734.24 39.6667 1732.42 39.6667C1730.59 39.6667 1729.11 38.1866 1729.11 36.3611C1729.11 34.5356 1730.59 33.0555 1732.42 33.0555C1734.24 33.0555 1735.72 34.5356 1735.72 36.3611" fill="white"/>
<path fill-rule="evenodd" clip-rule="evenodd" d="M1768.78 36.3611C1768.78 38.1866 1767.3 39.6667 1765.47 39.6667C1763.65 39.6667 1762.17 38.1866 1762.17 36.3611C1762.17 34.5356 1763.65 33.0555 1765.47 33.0555C1767.3 33.0555 1768.78 34.5356 1768.78 36.3611" fill="white"/>
<path fill-rule="evenodd" clip-rule="evenodd" d="M1801.83 36.3611C1801.83 38.1866 1800.35 39.6667 1798.53 39.6667C1796.7 39.6667 1795.22 38.1866 1795.22 36.3611C1795.22 34.5356 1796.7 33.0555 1798.53 33.0555C1800.35 33.0555 1801.83 34.5356 1801.83 36.3611" fill="white"/>
<path fill-rule="evenodd" clip-rule="evenodd" d="M1834.89 36.3611C1834.89 38.1866 1833.41 39.6667 1831.58 39.6667C1829.76 39.6667 1828.28 38.1866 1828.28 36.3611C1828.28 34.5356 1829.76 33.0555 1831.58 33.0555C1833.41 33.0555 1834.89 34.5356 1834.89 36.3611" fill="white"/>
<path fill-rule="evenodd" clip-rule="evenodd" d="M1867.94 36.3611C1867.94 38.1866 1866.46 39.6667 1864.64 39.6667C1862.81 39.6667 1861.33 38.1866 1861.33 36.3611C1861.33 34.5356 1862.81 33.0555 1864.64 33.0555C1866.46 33.0555 1867.94 34.5356 1867.94 36.3611" fill="white"/>
<path fill-rule="evenodd" clip-rule="evenodd" d="M1901 36.3611C1901 38.1866 1899.52 39.6667 1897.69 39.6667C1895.87 39.6667 1894.39 38.1866 1894.39 36.3611C1894.39 34.5356 1895.87 33.0555 1897.69 33.0555C1899.52 33.0555 1901 34.5356 1901 36.3611" fill="white"/>
<path fill-rule="evenodd" clip-rule="evenodd" d="M1669.61 69.4166C1669.61 71.2421 1668.13 72.7222 1666.31 72.7222C1664.48 72.7222 1663 71.2421 1663 69.4166C1663 67.5911 1664.48 66.1111 1666.31 66.1111C1668.13 66.1111 1669.61 67.5911 1669.61 69.4166" fill="white"/>
<path fill-rule="evenodd" clip-rule="evenodd" d="M1702.67 69.4166C1702.67 71.2421 1701.19 72.7222 1699.36 72.7222C1697.54 72.7222 1696.06 71.2421 1696.06 69.4166C1696.06 67.5911 1697.54 66.1111 1699.36 66.1111C1701.19 66.1111 1702.67 67.5911 1702.67 69.4166" fill="white"/>
<path fill-rule="evenodd" clip-rule="evenodd" d="M1735.72 69.4166C1735.72 71.2421 1734.24 72.7222 1732.42 72.7222C1730.59 72.7222 1729.11 71.2421 1729.11 69.4166C1729.11 67.5911 1730.59 66.1111 1732.42 66.1111C1734.24 66.1111 1735.72 67.5911 1735.72 69.4166" fill="white"/>
<path fill-rule="evenodd" clip-rule="evenodd" d="M1768.78 69.4166C1768.78 71.2421 1767.3 72.7222 1765.47 72.7222C1763.65 72.7222 1762.17 71.2421 1762.17 69.4166C1762.17 67.5911 1763.65 66.1111 1765.47 66.1111C1767.3 66.1111 1768.78 67.5911 1768.78 69.4166" fill="white"/>
<path fill-rule="evenodd" clip-rule="evenodd" d="M1801.83 69.4166C1801.83 71.2421 1800.35 72.7222 1798.53 72.7222C1796.7 72.7222 1795.22 71.2421 1795.22 69.4166C1795.22 67.5911 1796.7 66.1111 1798.53 66.1111C1800.35 66.1111 1801.83 67.5911 1801.83 69.4166" fill="white"/>
<path fill-rule="evenodd" clip-rule="evenodd" d="M1834.89 69.4166C1834.89 71.2421 1833.41 72.7222 1831.58 72.7222C1829.76 72.7222 1828.28 71.2421 1828.28 69.4166C1828.28 67.5911 1829.76 66.1111 1831.58 66.1111C1833.41 66.1111 1834.89 67.5911 1834.89 69.4166" fill="white"/>
<path fill-rule="evenodd" clip-rule="evenodd" d="M1867.94 69.4166C1867.94 71.2421 1866.46 72.7222 1864.64 72.7222C1862.81 72.7222 1861.33 71.2421 1861.33 69.4166C1861.33 67.5911 1862.81 66.1111 1864.64 66.1111C1866.46 66.1111 1867.94 67.5911 1867.94 69.4166" fill="white"/>
<path fill-rule="evenodd" clip-rule="evenodd" d="M1901 69.4166C1901 71.2421 1899.52 72.7222 1897.69 72.7222C1895.87 72.7222 1894.39 71.2421 1894.39 69.4166C1894.39 67.5911 1895.87 66.1111 1897.69 66.1111C1899.52 66.1111 1901 67.5911 1901 69.4166" fill="white"/>
<path fill-rule="evenodd" clip-rule="evenodd" d="M1669.61 102.472C1669.61 104.298 1668.13 105.778 1666.31 105.778C1664.48 105.778 1663 104.298 1663 102.472C1663 100.647 1664.48 99.1666 1666.31 99.1666C1668.13 99.1666 1669.61 100.647 1669.61 102.472" fill="white"/>
<path fill-rule="evenodd" clip-rule="evenodd" d="M1702.67 102.472C1702.67 104.298 1701.19 105.778 1699.36 105.778C1697.54 105.778 1696.06 104.298 1696.06 102.472C1696.06 100.647 1697.54 99.1666 1699.36 99.1666C1701.19 99.1666 1702.67 100.647 1702.67 102.472" fill="white"/>
<path fill-rule="evenodd" clip-rule="evenodd" d="M1735.72 102.472C1735.72 104.298 1734.24 105.778 1732.42 105.778C1730.59 105.778 1729.11 104.298 1729.11 102.472C1729.11 100.647 1730.59 99.1666 1732.42 99.1666C1734.24 99.1666 1735.72 100.647 1735.72 102.472" fill="white"/>
<path fill-rule="evenodd" clip-rule="evenodd" d="M1768.78 102.472C1768.78 104.298 1767.3 105.778 1765.47 105.778C1763.65 105.778 1762.17 104.298 1762.17 102.472C1762.17 100.647 1763.65 99.1666 1765.47 99.1666C1767.3 99.1666 1768.78 100.647 1768.78 102.472" fill="white"/>
<path fill-rule="evenodd" clip-rule="evenodd" d="M1801.83 102.472C1801.83 104.298 1800.35 105.778 1798.53 105.778C1796.7 105.778 1795.22 104.298 1795.22 102.472C1795.22 100.647 1796.7 99.1666 1798.53 99.1666C1800.35 99.1666 1801.83 100.647 1801.83 102.472" fill="white"/>
<path fill-rule="evenodd" clip-rule="evenodd" d="M1834.89 102.472C1834.89 104.298 1833.41 105.778 1831.58 105.778C1829.76 105.778 1828.28 104.298 1828.28 102.472C1828.28 100.647 1829.76 99.1666 1831.58 99.1666C1833.41 99.1666 1834.89 100.647 1834.89 102.472" fill="white"/>
<path fill-rule="evenodd" clip-rule="evenodd" d="M1867.94 102.472C1867.94 104.298 1866.46 105.778 1864.64 105.778C1862.81 105.778 1861.33 104.298 1861.33 102.472C1861.33 100.647 1862.81 99.1666 1864.64 99.1666C1866.46 99.1666 1867.94 100.647 1867.94 102.472" fill="white"/>
<path fill-rule="evenodd" clip-rule="evenodd" d="M1901 102.472C1901 104.298 1899.52 105.778 1897.69 105.778C1895.87 105.778 1894.39 104.298 1894.39 102.472C1894.39 100.647 1895.87 99.1666 1897.69 99.1666C1899.52 99.1666 1901 100.647 1901 102.472" fill="white"/>
<path fill-rule="evenodd" clip-rule="evenodd" d="M1669.61 135.528C1669.61 137.353 1668.13 138.833 1666.31 138.833C1664.48 138.833 1663 137.353 1663 135.528C1663 133.702 1664.48 132.222 1666.31 132.222C1668.13 132.222 1669.61 133.702 1669.61 135.528" fill="white"/>
<path fill-rule="evenodd" clip-rule="evenodd" d="M1702.67 135.528C1702.67 137.353 1701.19 138.833 1699.36 138.833C1697.54 138.833 1696.06 137.353 1696.06 135.528C1696.06 133.702 1697.54 132.222 1699.36 132.222C1701.19 132.222 1702.67 133.702 1702.67 135.528" fill="white"/>
<path fill-rule="evenodd" clip-rule="evenodd" d="M1735.72 135.528C1735.72 137.353 1734.24 138.833 1732.42 138.833C1730.59 138.833 1729.11 137.353 1729.11 135.528C1729.11 133.702 1730.59 132.222 1732.42 132.222C1734.24 132.222 1735.72 133.702 1735.72 135.528" fill="white"/>
<path fill-rule="evenodd" clip-rule="evenodd" d="M1768.78 135.528C1768.78 137.353 1767.3 138.833 1765.47 138.833C1763.65 138.833 1762.17 137.353 1762.17 135.528C1762.17 133.702 1763.65 132.222 1765.47 132.222C1767.3 132.222 1768.78 133.702 1768.78 135.528" fill="white"/>
<path fill-rule="evenodd" clip-rule="evenodd" d="M1801.83 135.528C1801.83 137.353 1800.35 138.833 1798.53 138.833C1796.7 138.833 1795.22 137.353 1795.22 135.528C1795.22 133.702 1796.7 132.222 1798.53 132.222C1800.35 132.222 1801.83 133.702 1801.83 135.528" fill="white"/>
<path fill-rule="evenodd" clip-rule="evenodd" d="M1834.89 135.528C1834.89 137.353 1833.41 138.833 1831.58 138.833C1829.76 138.833 1828.28 137.353 1828.28 135.528C1828.28 133.702 1829.76 132.222 1831.58 132.222C1833.41 132.222 1834.89 133.702 1834.89 135.528" fill="white"/>
<path fill-rule="evenodd" clip-rule="evenodd" d="M1867.94 135.528C1867.94 137.353 1866.46 138.833 1864.64 138.833C1862.81 138.833 1861.33 137.353 1861.33 135.528C1861.33 133.702 1862.81 132.222 1864.64 132.222C1866.46 132.222 1867.94 133.702 1867.94 135.528" fill="white"/>
<path fill-rule="evenodd" clip-rule="evenodd" d="M1901 135.528C1901 137.353 1899.52 138.833 1897.69 138.833C1895.87 138.833 1894.39 137.353 1894.39 135.528C1894.39 133.702 1895.87 132.222 1897.69 132.222C1899.52 132.222 1901 133.702 1901 135.528" fill="white"/>
<path fill-rule="evenodd" clip-rule="evenodd" d="M1669.61 168.583C1669.61 170.409 1668.13 171.889 1666.31 171.889C1664.48 171.889 1663 170.409 1663 168.583C1663 166.758 1664.48 165.278 1666.31 165.278C1668.13 165.278 1669.61 166.758 1669.61 168.583" fill="white"/>
<path fill-rule="evenodd" clip-rule="evenodd" d="M1702.67 168.583C1702.67 170.409 1701.19 171.889 1699.36 171.889C1697.54 171.889 1696.06 170.409 1696.06 168.583C1696.06 166.758 1697.54 165.278 1699.36 165.278C1701.19 165.278 1702.67 166.758 1702.67 168.583" fill="white"/>
<path fill-rule="evenodd" clip-rule="evenodd" d="M1735.72 168.583C1735.72 170.409 1734.24 171.889 1732.42 171.889C1730.59 171.889 1729.11 170.409 1729.11 168.583C1729.11 166.758 1730.59 165.278 1732.42 165.278C1734.24 165.278 1735.72 166.758 1735.72 168.583" fill="white"/>
<path fill-rule="evenodd" clip-rule="evenodd" d="M1768.78 168.583C1768.78 170.409 1767.3 171.889 1765.47 171.889C1763.65 171.889 1762.17 170.409 1762.17 168.583C1762.17 166.758 1763.65 165.278 1765.47 165.278C1767.3 165.278 1768.78 166.758 1768.78 168.583" fill="white"/>
<path fill-rule="evenodd" clip-rule="evenodd" d="M1801.83 168.583C1801.83 170.409 1800.35 171.889 1798.53 171.889C1796.7 171.889 1795.22 170.409 1795.22 168.583C1795.22 166.758 1796.7 165.278 1798.53 165.278C1800.35 165.278 1801.83 166.758 1801.83 168.583" fill="white"/>
<path fill-rule="evenodd" clip-rule="evenodd" d="M1834.89 168.583C1834.89 170.409 1833.41 171.889 1831.58 171.889C1829.76 171.889 1828.28 170.409 1828.28 168.583C1828.28 166.758 1829.76 165.278 1831.58 165.278C1833.41 165.278 1834.89 166.758 1834.89 168.583" fill="white"/>
<path fill-rule="evenodd" clip-rule="evenodd" d="M1867.94 168.583C1867.94 170.409 1866.46 171.889 1864.64 171.889C1862.81 171.889 1861.33 170.409 1861.33 168.583C1861.33 166.758 1862.81 165.278 1864.64 165.278C1866.46 165.278 1867.94 166.758 1867.94 168.583" fill="white"/>
<path fill-rule="evenodd" clip-rule="evenodd" d="M1901 168.583C1901 170.409 1899.52 171.889 1897.69 171.889C1895.87 171.889 1894.39 170.409 1894.39 168.583C1894.39 166.758 1895.87 165.278 1897.69 165.278C1899.52 165.278 1901 166.758 1901 168.583" fill="white"/>
<path fill-rule="evenodd" clip-rule="evenodd" d="M1669.61 201.639C1669.61 203.464 1668.13 204.944 1666.31 204.944C1664.48 204.944 1663 203.464 1663 201.639C1663 199.813 1664.48 198.333 1666.31 198.333C1668.13 198.333 1669.61 199.813 1669.61 201.639" fill="white"/>
<path fill-rule="evenodd" clip-rule="evenodd" d="M1702.67 201.639C1702.67 203.464 1701.19 204.944 1699.36 204.944C1697.54 204.944 1696.06 203.464 1696.06 201.639C1696.06 199.813 1697.54 198.333 1699.36 198.333C1701.19 198.333 1702.67 199.813 1702.67 201.639" fill="white"/>
<path fill-rule="evenodd" clip-rule="evenodd" d="M1735.72 201.639C1735.72 203.464 1734.24 204.944 1732.42 204.944C1730.59 204.944 1729.11 203.464 1729.11 201.639C1729.11 199.813 1730.59 198.333 1732.42 198.333C1734.24 198.333 1735.72 199.813 1735.72 201.639" fill="white"/>
<path fill-rule="evenodd" clip-rule="evenodd" d="M1768.78 201.639C1768.78 203.464 1767.3 204.944 1765.47 204.944C1763.65 204.944 1762.17 203.464 1762.17 201.639C1762.17 199.813 1763.65 198.333 1765.47 198.333C1767.3 198.333 1768.78 199.813 1768.78 201.639" fill="white"/>
<path fill-rule="evenodd" clip-rule="evenodd" d="M1801.83 201.639C1801.83 203.464 1800.35 204.944 1798.53 204.944C1796.7 204.944 1795.22 203.464 1795.22 201.639C1795.22 199.813 1796.7 198.333 1798.53 198.333C1800.35 198.333 1801.83 199.813 1801.83 201.639" fill="white"/>
<path fill-rule="evenodd" clip-rule="evenodd" d="M1834.89 201.639C1834.89 203.464 1833.41 204.944 1831.58 204.944C1829.76 204.944 1828.28 203.464 1828.28 201.639C1828.28 199.813 1829.76 198.333 1831.58 198.333C1833.41 198.333 1834.89 199.813 1834.89 201.639" fill="white"/>
<path fill-rule="evenodd" clip-rule="evenodd" d="M1867.94 201.639C1867.94 203.464 1866.46 204.944 1864.64 204.944C1862.81 204.944 1861.33 203.464 1861.33 201.639C1861.33 199.813 1862.81 198.333 1864.64 198.333C1866.46 198.333 1867.94 199.813 1867.94 201.639" fill="white"/>
<path fill-rule="evenodd" clip-rule="evenodd" d="M1901 201.639C1901 203.464 1899.52 204.944 1897.69 204.944C1895.87 204.944 1894.39 203.464 1894.39 201.639C1894.39 199.813 1895.87 198.333 1897.69 198.333C1899.52 198.333 1901 199.813 1901 201.639" fill="white"/>
<path fill-rule="evenodd" clip-rule="evenodd" d="M1669.61 234.694C1669.61 236.52 1668.13 238 1666.31 238C1664.48 238 1663 236.52 1663 234.694C1663 232.869 1664.48 231.389 1666.31 231.389C1668.13 231.389 1669.61 232.869 1669.61 234.694" fill="white"/>
<path fill-rule="evenodd" clip-rule="evenodd" d="M1702.67 234.694C1702.67 236.52 1701.19 238 1699.36 238C1697.54 238 1696.06 236.52 1696.06 234.694C1696.06 232.869 1697.54 231.389 1699.36 231.389C1701.19 231.389 1702.67 232.869 1702.67 234.694" fill="white"/>
<path fill-rule="evenodd" clip-rule="evenodd" d="M1735.72 234.694C1735.72 236.52 1734.24 238 1732.42 238C1730.59 238 1729.11 236.52 1729.11 234.694C1729.11 232.869 1730.59 231.389 1732.42 231.389C1734.24 231.389 1735.72 232.869 1735.72 234.694" fill="white"/>
<path fill-rule="evenodd" clip-rule="evenodd" d="M1768.78 234.694C1768.78 236.52 1767.3 238 1765.47 238C1763.65 238 1762.17 236.52 1762.17 234.694C1762.17 232.869 1763.65 231.389 1765.47 231.389C1767.3 231.389 1768.78 232.869 1768.78 234.694" fill="white"/>
<path fill-rule="evenodd" clip-rule="evenodd" d="M1801.83 234.694C1801.83 236.52 1800.35 238 1798.53 238C1796.7 238 1795.22 236.52 1795.22 234.694C1795.22 232.869 1796.7 231.389 1798.53 231.389C1800.35 231.389 1801.83 232.869 1801.83 234.694" fill="white"/>
<path fill-rule="evenodd" clip-rule="evenodd" d="M1834.89 234.694C1834.89 236.52 1833.41 238 1831.58 238C1829.76 238 1828.28 236.52 1828.28 234.694C1828.28 232.869 1829.76 231.389 1831.58 231.389C1833.41 231.389 1834.89 232.869 1834.89 234.694" fill="white"/>
<path fill-rule="evenodd" clip-rule="evenodd" d="M1867.94 234.694C1867.94 236.52 1866.46 238 1864.64 238C1862.81 238 1861.33 236.52 1861.33 234.694C1861.33 232.869 1862.81 231.389 1864.64 231.389C1866.46 231.389 1867.94 232.869 1867.94 234.694" fill="white"/>
<path fill-rule="evenodd" clip-rule="evenodd" d="M1901 234.694C1901 236.52 1899.52 238 1897.69 238C1895.87 238 1894.39 236.52 1894.39 234.694C1894.39 232.869 1895.87 231.389 1897.69 231.389C1899.52 231.389 1901 232.869 1901 234.694" fill="white"/>
<path fill-rule="evenodd" clip-rule="evenodd" d="M9.72244 356.306C9.72244 358.131 8.24238 359.611 6.41688 359.611C4.59139 359.611 3.11133 358.131 3.11133 356.306C3.11133 354.48 4.59139 353 6.41688 353C8.24238 353 9.72244 354.48 9.72244 356.306" fill="white"/>
<path fill-rule="evenodd" clip-rule="evenodd" d="M42.7776 356.306C42.7776 358.131 41.2976 359.611 39.4721 359.611C37.6466 359.611 36.1665 358.131 36.1665 356.306C36.1665 354.48 37.6466 353 39.4721 353C41.2976 353 42.7776 354.48 42.7776 356.306" fill="white"/>
<path fill-rule="evenodd" clip-rule="evenodd" d="M75.8333 356.306C75.8333 358.131 74.3532 359.611 72.5277 359.611C70.7022 359.611 69.2222 358.131 69.2222 356.306C69.2222 354.48 70.7022 353 72.5277 353C74.3532 353 75.8333 354.48 75.8333 356.306" fill="white"/>
<path fill-rule="evenodd" clip-rule="evenodd" d="M108.889 356.306C108.889 358.131 107.409 359.611 105.583 359.611C103.758 359.611 102.278 358.131 102.278 356.306C102.278 354.48 103.758 353 105.583 353C107.409 353 108.889 354.48 108.889 356.306" fill="white"/>
<path fill-rule="evenodd" clip-rule="evenodd" d="M141.945 356.306C141.945 358.131 140.465 359.611 138.639 359.611C136.814 359.611 135.333 358.131 135.333 356.306C135.333 354.48 136.814 353 138.639 353C140.465 353 141.945 354.48 141.945 356.306" fill="white"/>
<path fill-rule="evenodd" clip-rule="evenodd" d="M175 356.306C175 358.131 173.52 359.611 171.694 359.611C169.869 359.611 168.389 358.131 168.389 356.306C168.389 354.48 169.869 353 171.694 353C173.52 353 175 354.48 175 356.306" fill="white"/>
<path fill-rule="evenodd" clip-rule="evenodd" d="M9.72244 389.361C9.72244 391.187 8.24238 392.667 6.41688 392.667C4.59139 392.667 3.11133 391.187 3.11133 389.361C3.11133 387.536 4.59139 386.056 6.41688 386.056C8.24238 386.056 9.72244 387.536 9.72244 389.361" fill="white"/>
<path fill-rule="evenodd" clip-rule="evenodd" d="M42.7776 389.361C42.7776 391.187 41.2976 392.667 39.4721 392.667C37.6466 392.667 36.1665 391.187 36.1665 389.361C36.1665 387.536 37.6466 386.056 39.4721 386.056C41.2976 386.056 42.7776 387.536 42.7776 389.361" fill="white"/>
<path fill-rule="evenodd" clip-rule="evenodd" d="M75.8333 389.361C75.8333 391.187 74.3532 392.667 72.5277 392.667C70.7022 392.667 69.2222 391.187 69.2222 389.361C69.2222 387.536 70.7022 386.056 72.5277 386.056C74.3532 386.056 75.8333 387.536 75.8333 389.361" fill="white"/>
<path fill-rule="evenodd" clip-rule="evenodd" d="M108.889 389.361C108.889 391.187 107.409 392.667 105.583 392.667C103.758 392.667 102.278 391.187 102.278 389.361C102.278 387.536 103.758 386.056 105.583 386.056C107.409 386.056 108.889 387.536 108.889 389.361" fill="white"/>
<path fill-rule="evenodd" clip-rule="evenodd" d="M141.945 389.361C141.945 391.187 140.465 392.667 138.639 392.667C136.814 392.667 135.333 391.187 135.333 389.361C135.333 387.536 136.814 386.056 138.639 386.056C140.465 386.056 141.945 387.536 141.945 389.361" fill="white"/>
<path fill-rule="evenodd" clip-rule="evenodd" d="M175 389.361C175 391.187 173.52 392.667 171.694 392.667C169.869 392.667 168.389 391.187 168.389 389.361C168.389 387.536 169.869 386.056 171.694 386.056C173.52 386.056 175 387.536 175 389.361" fill="white"/>
<path fill-rule="evenodd" clip-rule="evenodd" d="M9.72244 422.417C9.72244 424.242 8.24238 425.722 6.41688 425.722C4.59139 425.722 3.11133 424.242 3.11133 422.417C3.11133 420.591 4.59139 419.111 6.41688 419.111C8.24238 419.111 9.72244 420.591 9.72244 422.417" fill="white"/>
<path fill-rule="evenodd" clip-rule="evenodd" d="M42.7776 422.417C42.7776 424.242 41.2976 425.722 39.4721 425.722C37.6466 425.722 36.1665 424.242 36.1665 422.417C36.1665 420.591 37.6466 419.111 39.4721 419.111C41.2976 419.111 42.7776 420.591 42.7776 422.417" fill="white"/>
<path fill-rule="evenodd" clip-rule="evenodd" d="M75.8333 422.417C75.8333 424.242 74.3532 425.722 72.5277 425.722C70.7022 425.722 69.2222 424.242 69.2222 422.417C69.2222 420.591 70.7022 419.111 72.5277 419.111C74.3532 419.111 75.8333 420.591 75.8333 422.417" fill="white"/>
<path fill-rule="evenodd" clip-rule="evenodd" d="M108.889 422.417C108.889 424.242 107.409 425.722 105.583 425.722C103.758 425.722 102.278 424.242 102.278 422.417C102.278 420.591 103.758 419.111 105.583 419.111C107.409 419.111 108.889 420.591 108.889 422.417" fill="white"/>
<path fill-rule="evenodd" clip-rule="evenodd" d="M141.945 422.417C141.945 424.242 140.465 425.722 138.639 425.722C136.814 425.722 135.333 424.242 135.333 422.417C135.333 420.591 136.814 419.111 138.639 419.111C140.465 419.111 141.945 420.591 141.945 422.417" fill="white"/>
<path fill-rule="evenodd" clip-rule="evenodd" d="M175 422.417C175 424.242 173.52 425.722 171.694 425.722C169.869 425.722 168.389 424.242 168.389 422.417C168.389 420.591 169.869 419.111 171.694 419.111C173.52 419.111 175 420.591 175 422.417" fill="white"/>
<path fill-rule="evenodd" clip-rule="evenodd" d="M9.72244 455.472C9.72244 457.298 8.24238 458.778 6.41688 458.778C4.59139 458.778 3.11133 457.298 3.11133 455.472C3.11133 453.647 4.59139 452.167 6.41688 452.167C8.24238 452.167 9.72244 453.647 9.72244 455.472" fill="white"/>
<path fill-rule="evenodd" clip-rule="evenodd" d="M42.7776 455.472C42.7776 457.298 41.2976 458.778 39.4721 458.778C37.6466 458.778 36.1665 457.298 36.1665 455.472C36.1665 453.647 37.6466 452.167 39.4721 452.167C41.2976 452.167 42.7776 453.647 42.7776 455.472" fill="white"/>
<path fill-rule="evenodd" clip-rule="evenodd" d="M75.8333 455.472C75.8333 457.298 74.3532 458.778 72.5277 458.778C70.7022 458.778 69.2222 457.298 69.2222 455.472C69.2222 453.647 70.7022 452.167 72.5277 452.167C74.3532 452.167 75.8333 453.647 75.8333 455.472" fill="white"/>
<path fill-rule="evenodd" clip-rule="evenodd" d="M108.889 455.472C108.889 457.298 107.409 458.778 105.583 458.778C103.758 458.778 102.278 457.298 102.278 455.472C102.278 453.647 103.758 452.167 105.583 452.167C107.409 452.167 108.889 453.647 108.889 455.472" fill="white"/>
<path fill-rule="evenodd" clip-rule="evenodd" d="M141.945 455.472C141.945 457.298 140.465 458.778 138.639 458.778C136.814 458.778 135.333 457.298 135.333 455.472C135.333 453.647 136.814 452.167 138.639 452.167C140.465 452.167 141.945 453.647 141.945 455.472" fill="white"/>
<path fill-rule="evenodd" clip-rule="evenodd" d="M175 455.472C175 457.298 173.52 458.778 171.694 458.778C169.869 458.778 168.389 457.298 168.389 455.472C168.389 453.647 169.869 452.167 171.694 452.167C173.52 452.167 175 453.647 175 455.472" fill="white"/>
<path fill-rule="evenodd" clip-rule="evenodd" d="M9.72244 488.528C9.72244 490.353 8.24238 491.833 6.41688 491.833C4.59139 491.833 3.11133 490.353 3.11133 488.528C3.11133 486.702 4.59139 485.222 6.41688 485.222C8.24238 485.222 9.72244 486.702 9.72244 488.528" fill="white"/>
<path fill-rule="evenodd" clip-rule="evenodd" d="M42.7776 488.528C42.7776 490.353 41.2976 491.833 39.4721 491.833C37.6466 491.833 36.1665 490.353 36.1665 488.528C36.1665 486.702 37.6466 485.222 39.4721 485.222C41.2976 485.222 42.7776 486.702 42.7776 488.528" fill="white"/>
<path fill-rule="evenodd" clip-rule="evenodd" d="M75.8333 488.528C75.8333 490.353 74.3532 491.833 72.5277 491.833C70.7022 491.833 69.2222 490.353 69.2222 488.528C69.2222 486.702 70.7022 485.222 72.5277 485.222C74.3532 485.222 75.8333 486.702 75.8333 488.528" fill="white"/>
<path fill-rule="evenodd" clip-rule="evenodd" d="M108.889 488.528C108.889 490.353 107.409 491.833 105.583 491.833C103.758 491.833 102.278 490.353 102.278 488.528C102.278 486.702 103.758 485.222 105.583 485.222C107.409 485.222 108.889 486.702 108.889 488.528" fill="white"/>
<path fill-rule="evenodd" clip-rule="evenodd" d="M141.945 488.528C141.945 490.353 140.465 491.833 138.639 491.833C136.814 491.833 135.333 490.353 135.333 488.528C135.333 486.702 136.814 485.222 138.639 485.222C140.465 485.222 141.945 486.702 141.945 488.528" fill="white"/>
<path fill-rule="evenodd" clip-rule="evenodd" d="M175 488.528C175 490.353 173.52 491.833 171.694 491.833C169.869 491.833 168.389 490.353 168.389 488.528C168.389 486.702 169.869 485.222 171.694 485.222C173.52 485.222 175 486.702 175 488.528" fill="white"/>
<path fill-rule="evenodd" clip-rule="evenodd" d="M9.72244 521.583C9.72244 523.409 8.24238 524.889 6.41688 524.889C4.59139 524.889 3.11133 523.409 3.11133 521.583C3.11133 519.758 4.59139 518.278 6.41688 518.278C8.24238 518.278 9.72244 519.758 9.72244 521.583" fill="white"/>
<path fill-rule="evenodd" clip-rule="evenodd" d="M42.7776 521.583C42.7776 523.409 41.2976 524.889 39.4721 524.889C37.6466 524.889 36.1665 523.409 36.1665 521.583C36.1665 519.758 37.6466 518.278 39.4721 518.278C41.2976 518.278 42.7776 519.758 42.7776 521.583" fill="white"/>
<path fill-rule="evenodd" clip-rule="evenodd" d="M75.8333 521.583C75.8333 523.409 74.3532 524.889 72.5277 524.889C70.7022 524.889 69.2222 523.409 69.2222 521.583C69.2222 519.758 70.7022 518.278 72.5277 518.278C74.3532 518.278 75.8333 519.758 75.8333 521.583" fill="white"/>
<path fill-rule="evenodd" clip-rule="evenodd" d="M108.889 521.583C108.889 523.409 107.409 524.889 105.583 524.889C103.758 524.889 102.278 523.409 102.278 521.583C102.278 519.758 103.758 518.278 105.583 518.278C107.409 518.278 108.889 519.758 108.889 521.583" fill="white"/>
<path fill-rule="evenodd" clip-rule="evenodd" d="M141.945 521.583C141.945 523.409 140.465 524.889 138.639 524.889C136.814 524.889 135.333 523.409 135.333 521.583C135.333 519.758 136.814 518.278 138.639 518.278C140.465 518.278 141.945 519.758 141.945 521.583" fill="white"/>
<path fill-rule="evenodd" clip-rule="evenodd" d="M175 521.583C175 523.409 173.52 524.889 171.694 524.889C169.869 524.889 168.389 523.409 168.389 521.583C168.389 519.758 169.869 518.278 171.694 518.278C173.52 518.278 175 519.758 175 521.583" fill="white"/>
<path fill-rule="evenodd" clip-rule="evenodd" d="M9.72244 554.639C9.72244 556.464 8.24238 557.944 6.41688 557.944C4.59139 557.944 3.11133 556.464 3.11133 554.639C3.11133 552.813 4.59139 551.333 6.41688 551.333C8.24238 551.333 9.72244 552.813 9.72244 554.639" fill="white"/>
<path fill-rule="evenodd" clip-rule="evenodd" d="M42.7776 554.639C42.7776 556.464 41.2976 557.944 39.4721 557.944C37.6466 557.944 36.1665 556.464 36.1665 554.639C36.1665 552.813 37.6466 551.333 39.4721 551.333C41.2976 551.333 42.7776 552.813 42.7776 554.639" fill="white"/>
<path fill-rule="evenodd" clip-rule="evenodd" d="M75.8333 554.639C75.8333 556.464 74.3532 557.944 72.5277 557.944C70.7022 557.944 69.2222 556.464 69.2222 554.639C69.2222 552.813 70.7022 551.333 72.5277 551.333C74.3532 551.333 75.8333 552.813 75.8333 554.639" fill="white"/>
<path fill-rule="evenodd" clip-rule="evenodd" d="M108.889 554.639C108.889 556.464 107.409 557.944 105.583 557.944C103.758 557.944 102.278 556.464 102.278 554.639C102.278 552.813 103.758 551.333 105.583 551.333C107.409 551.333 108.889 552.813 108.889 554.639" fill="white"/>
<path fill-rule="evenodd" clip-rule="evenodd" d="M141.945 554.639C141.945 556.464 140.465 557.944 138.639 557.944C136.814 557.944 135.333 556.464 135.333 554.639C135.333 552.813 136.814 551.333 138.639 551.333C140.465 551.333 141.945 552.813 141.945 554.639" fill="white"/>
<path fill-rule="evenodd" clip-rule="evenodd" d="M175 554.639C175 556.464 173.52 557.944 171.694 557.944C169.869 557.944 168.389 556.464 168.389 554.639C168.389 552.813 169.869 551.333 171.694 551.333C173.52 551.333 175 552.813 175 554.639" fill="white"/>
<path fill-rule="evenodd" clip-rule="evenodd" d="M9.72244 587.694C9.72244 589.52 8.24238 591 6.41688 591C4.59139 591 3.11133 589.52 3.11133 587.694C3.11133 585.869 4.59139 584.389 6.41688 584.389C8.24238 584.389 9.72244 585.869 9.72244 587.694" fill="white"/>
<path fill-rule="evenodd" clip-rule="evenodd" d="M42.7776 587.694C42.7776 589.52 41.2976 591 39.4721 591C37.6466 591 36.1665 589.52 36.1665 587.694C36.1665 585.869 37.6466 584.389 39.4721 584.389C41.2976 584.389 42.7776 585.869 42.7776 587.694" fill="white"/>
<path fill-rule="evenodd" clip-rule="evenodd" d="M75.8333 587.694C75.8333 589.52 74.3532 591 72.5277 591C70.7022 591 69.2222 589.52 69.2222 587.694C69.2222 585.869 70.7022 584.389 72.5277 584.389C74.3532 584.389 75.8333 585.869 75.8333 587.694" fill="white"/>
<path fill-rule="evenodd" clip-rule="evenodd" d="M108.889 587.694C108.889 589.52 107.409 591 105.583 591C103.758 591 102.278 589.52 102.278 587.694C102.278 585.869 103.758 584.389 105.583 584.389C107.409 584.389 108.889 585.869 108.889 587.694" fill="white"/>
<path fill-rule="evenodd" clip-rule="evenodd" d="M141.945 587.694C141.945 589.52 140.465 591 138.639 591C136.814 591 135.333 589.52 135.333 587.694C135.333 585.869 136.814 584.389 138.639 584.389C140.465 584.389 141.945 585.869 141.945 587.694" fill="white"/>
<path fill-rule="evenodd" clip-rule="evenodd" d="M175 587.694C175 589.52 173.52 591 171.694 591C169.869 591 168.389 589.52 168.389 587.694C168.389 585.869 169.869 584.389 171.694 584.389C173.52 584.389 175 585.869 175 587.694" fill="white"/>
<path fill-rule="evenodd" clip-rule="evenodd" d="M9.72244 620.306C9.72244 622.131 8.24238 623.611 6.41688 623.611C4.59139 623.611 3.11133 622.131 3.11133 620.306C3.11133 618.48 4.59139 617 6.41688 617C8.24238 617 9.72244 618.48 9.72244 620.306" fill="white"/>
<path fill-rule="evenodd" clip-rule="evenodd" d="M42.7776 620.306C42.7776 622.131 41.2976 623.611 39.4721 623.611C37.6466 623.611 36.1665 622.131 36.1665 620.306C36.1665 618.48 37.6466 617 39.4721 617C41.2976 617 42.7776 618.48 42.7776 620.306" fill="white"/>
<path fill-rule="evenodd" clip-rule="evenodd" d="M75.8333 620.306C75.8333 622.131 74.3532 623.611 72.5277 623.611C70.7022 623.611 69.2222 622.131 69.2222 620.306C69.2222 618.48 70.7022 617 72.5277 617C74.3532 617 75.8333 618.48 75.8333 620.306" fill="white"/>
<path fill-rule="evenodd" clip-rule="evenodd" d="M108.889 620.306C108.889 622.131 107.409 623.611 105.583 623.611C103.758 623.611 102.278 622.131 102.278 620.306C102.278 618.48 103.758 617 105.583 617C107.409 617 108.889 618.48 108.889 620.306" fill="white"/>
<path fill-rule="evenodd" clip-rule="evenodd" d="M141.945 620.306C141.945 622.131 140.465 623.611 138.639 623.611C136.814 623.611 135.333 622.131 135.333 620.306C135.333 618.48 136.814 617 138.639 617C140.465 617 141.945 618.48 141.945 620.306" fill="white"/>
<path fill-rule="evenodd" clip-rule="evenodd" d="M175 620.306C175 622.131 173.52 623.611 171.694 623.611C169.869 623.611 168.389 622.131 168.389 620.306C168.389 618.48 169.869 617 171.694 617C173.52 617 175 618.48 175 620.306" fill="white"/>
<path fill-rule="evenodd" clip-rule="evenodd" d="M9.72244 653.361C9.72244 655.187 8.24238 656.667 6.41688 656.667C4.59139 656.667 3.11133 655.187 3.11133 653.361C3.11133 651.536 4.59139 650.056 6.41688 650.056C8.24238 650.056 9.72244 651.536 9.72244 653.361" fill="white"/>
<path fill-rule="evenodd" clip-rule="evenodd" d="M42.7776 653.361C42.7776 655.187 41.2976 656.667 39.4721 656.667C37.6466 656.667 36.1665 655.187 36.1665 653.361C36.1665 651.536 37.6466 650.056 39.4721 650.056C41.2976 650.056 42.7776 651.536 42.7776 653.361" fill="white"/>
<path fill-rule="evenodd" clip-rule="evenodd" d="M75.8333 653.361C75.8333 655.187 74.3532 656.667 72.5277 656.667C70.7022 656.667 69.2222 655.187 69.2222 653.361C69.2222 651.536 70.7022 650.056 72.5277 650.056C74.3532 650.056 75.8333 651.536 75.8333 653.361" fill="white"/>
<path fill-rule="evenodd" clip-rule="evenodd" d="M108.889 653.361C108.889 655.187 107.409 656.667 105.583 656.667C103.758 656.667 102.278 655.187 102.278 653.361C102.278 651.536 103.758 650.056 105.583 650.056C107.409 650.056 108.889 651.536 108.889 653.361" fill="white"/>
<path fill-rule="evenodd" clip-rule="evenodd" d="M141.945 653.361C141.945 655.187 140.465 656.667 138.639 656.667C136.814 656.667 135.333 655.187 135.333 653.361C135.333 651.536 136.814 650.056 138.639 650.056C140.465 650.056 141.945 651.536 141.945 653.361" fill="white"/>
<path fill-rule="evenodd" clip-rule="evenodd" d="M175 653.361C175 655.187 173.52 656.667 171.694 656.667C169.869 656.667 168.389 655.187 168.389 653.361C168.389 651.536 169.869 650.056 171.694 650.056C173.52 650.056 175 651.536 175 653.361" fill="white"/>
<path fill-rule="evenodd" clip-rule="evenodd" d="M9.72244 686.417C9.72244 688.242 8.24238 689.722 6.41688 689.722C4.59139 689.722 3.11133 688.242 3.11133 686.417C3.11133 684.591 4.59139 683.111 6.41688 683.111C8.24238 683.111 9.72244 684.591 9.72244 686.417" fill="white"/>
<path fill-rule="evenodd" clip-rule="evenodd" d="M42.7776 686.417C42.7776 688.242 41.2976 689.722 39.4721 689.722C37.6466 689.722 36.1665 688.242 36.1665 686.417C36.1665 684.591 37.6466 683.111 39.4721 683.111C41.2976 683.111 42.7776 684.591 42.7776 686.417" fill="white"/>
<path fill-rule="evenodd" clip-rule="evenodd" d="M75.8333 686.417C75.8333 688.242 74.3532 689.722 72.5277 689.722C70.7022 689.722 69.2222 688.242 69.2222 686.417C69.2222 684.591 70.7022 683.111 72.5277 683.111C74.3532 683.111 75.8333 684.591 75.8333 686.417" fill="white"/>
<path fill-rule="evenodd" clip-rule="evenodd" d="M108.889 686.417C108.889 688.242 107.409 689.722 105.583 689.722C103.758 689.722 102.278 688.242 102.278 686.417C102.278 684.591 103.758 683.111 105.583 683.111C107.409 683.111 108.889 684.591 108.889 686.417" fill="white"/>
<path fill-rule="evenodd" clip-rule="evenodd" d="M141.945 686.417C141.945 688.242 140.465 689.722 138.639 689.722C136.814 689.722 135.333 688.242 135.333 686.417C135.333 684.591 136.814 683.111 138.639 683.111C140.465 683.111 141.945 684.591 141.945 686.417" fill="white"/>
<path fill-rule="evenodd" clip-rule="evenodd" d="M175 686.417C175 688.242 173.52 689.722 171.694 689.722C169.869 689.722 168.389 688.242 168.389 686.417C168.389 684.591 169.869 683.111 171.694 683.111C173.52 683.111 175 684.591 175 686.417" fill="white"/>
<path fill-rule="evenodd" clip-rule="evenodd" d="M9.72244 719.472C9.72244 721.298 8.24238 722.778 6.41688 722.778C4.59139 722.778 3.11133 721.298 3.11133 719.472C3.11133 717.647 4.59139 716.167 6.41688 716.167C8.24238 716.167 9.72244 717.647 9.72244 719.472" fill="white"/>
<path fill-rule="evenodd" clip-rule="evenodd" d="M42.7776 719.472C42.7776 721.298 41.2976 722.778 39.4721 722.778C37.6466 722.778 36.1665 721.298 36.1665 719.472C36.1665 717.647 37.6466 716.167 39.4721 716.167C41.2976 716.167 42.7776 717.647 42.7776 719.472" fill="white"/>
<path fill-rule="evenodd" clip-rule="evenodd" d="M75.8333 719.472C75.8333 721.298 74.3532 722.778 72.5277 722.778C70.7022 722.778 69.2222 721.298 69.2222 719.472C69.2222 717.647 70.7022 716.167 72.5277 716.167C74.3532 716.167 75.8333 717.647 75.8333 719.472" fill="white"/>
<path fill-rule="evenodd" clip-rule="evenodd" d="M108.889 719.472C108.889 721.298 107.409 722.778 105.583 722.778C103.758 722.778 102.278 721.298 102.278 719.472C102.278 717.647 103.758 716.167 105.583 716.167C107.409 716.167 108.889 717.647 108.889 719.472" fill="white"/>
<path fill-rule="evenodd" clip-rule="evenodd" d="M141.945 719.472C141.945 721.298 140.465 722.778 138.639 722.778C136.814 722.778 135.333 721.298 135.333 719.472C135.333 717.647 136.814 716.167 138.639 716.167C140.465 716.167 141.945 717.647 141.945 719.472" fill="white"/>
<path fill-rule="evenodd" clip-rule="evenodd" d="M175 719.472C175 721.298 173.52 722.778 171.694 722.778C169.869 722.778 168.389 721.298 168.389 719.472C168.389 717.647 169.869 716.167 171.694 716.167C173.52 716.167 175 717.647 175 719.472" fill="white"/>
<path fill-rule="evenodd" clip-rule="evenodd" d="M9.72244 752.528C9.72244 754.353 8.24238 755.833 6.41688 755.833C4.59139 755.833 3.11133 754.353 3.11133 752.528C3.11133 750.702 4.59139 749.222 6.41688 749.222C8.24238 749.222 9.72244 750.702 9.72244 752.528" fill="white"/>
<path fill-rule="evenodd" clip-rule="evenodd" d="M42.7776 752.528C42.7776 754.353 41.2976 755.833 39.4721 755.833C37.6466 755.833 36.1665 754.353 36.1665 752.528C36.1665 750.702 37.6466 749.222 39.4721 749.222C41.2976 749.222 42.7776 750.702 42.7776 752.528" fill="white"/>
<path fill-rule="evenodd" clip-rule="evenodd" d="M75.8333 752.528C75.8333 754.353 74.3532 755.833 72.5277 755.833C70.7022 755.833 69.2222 754.353 69.2222 752.528C69.2222 750.702 70.7022 749.222 72.5277 749.222C74.3532 749.222 75.8333 750.702 75.8333 752.528" fill="white"/>
<path fill-rule="evenodd" clip-rule="evenodd" d="M108.889 752.528C108.889 754.353 107.409 755.833 105.583 755.833C103.758 755.833 102.278 754.353 102.278 752.528C102.278 750.702 103.758 749.222 105.583 749.222C107.409 749.222 108.889 750.702 108.889 752.528" fill="white"/>
<path fill-rule="evenodd" clip-rule="evenodd" d="M141.945 752.528C141.945 754.353 140.465 755.833 138.639 755.833C136.814 755.833 135.333 754.353 135.333 752.528C135.333 750.702 136.814 749.222 138.639 749.222C140.465 749.222 141.945 750.702 141.945 752.528" fill="white"/>
<path fill-rule="evenodd" clip-rule="evenodd" d="M175 752.528C175 754.353 173.52 755.833 171.694 755.833C169.869 755.833 168.389 754.353 168.389 752.528C168.389 750.702 169.869 749.222 171.694 749.222C173.52 749.222 175 750.702 175 752.528" fill="white"/>
<path fill-rule="evenodd" clip-rule="evenodd" d="M9.72244 785.583C9.72244 787.409 8.24238 788.889 6.41688 788.889C4.59139 788.889 3.11133 787.409 3.11133 785.583C3.11133 783.758 4.59139 782.278 6.41688 782.278C8.24238 782.278 9.72244 783.758 9.72244 785.583" fill="white"/>
<path fill-rule="evenodd" clip-rule="evenodd" d="M42.7776 785.583C42.7776 787.409 41.2976 788.889 39.4721 788.889C37.6466 788.889 36.1665 787.409 36.1665 785.583C36.1665 783.758 37.6466 782.278 39.4721 782.278C41.2976 782.278 42.7776 783.758 42.7776 785.583" fill="white"/>
<path fill-rule="evenodd" clip-rule="evenodd" d="M75.8333 785.583C75.8333 787.409 74.3532 788.889 72.5277 788.889C70.7022 788.889 69.2222 787.409 69.2222 785.583C69.2222 783.758 70.7022 782.278 72.5277 782.278C74.3532 782.278 75.8333 783.758 75.8333 785.583" fill="white"/>
<path fill-rule="evenodd" clip-rule="evenodd" d="M108.889 785.583C108.889 787.409 107.409 788.889 105.583 788.889C103.758 788.889 102.278 787.409 102.278 785.583C102.278 783.758 103.758 782.278 105.583 782.278C107.409 782.278 108.889 783.758 108.889 785.583" fill="white"/>
<path fill-rule="evenodd" clip-rule="evenodd" d="M141.945 785.583C141.945 787.409 140.465 788.889 138.639 788.889C136.814 788.889 135.333 787.409 135.333 785.583C135.333 783.758 136.814 782.278 138.639 782.278C140.465 782.278 141.945 783.758 141.945 785.583" fill="white"/>
<path fill-rule="evenodd" clip-rule="evenodd" d="M175 785.583C175 787.409 173.52 788.889 171.694 788.889C169.869 788.889 168.389 787.409 168.389 785.583C168.389 783.758 169.869 782.278 171.694 782.278C173.52 782.278 175 783.758 175 785.583" fill="white"/>
<path fill-rule="evenodd" clip-rule="evenodd" d="M9.72244 818.639C9.72244 820.464 8.24238 821.944 6.41688 821.944C4.59139 821.944 3.11133 820.464 3.11133 818.639C3.11133 816.813 4.59139 815.333 6.41688 815.333C8.24238 815.333 9.72244 816.813 9.72244 818.639" fill="white"/>
<path fill-rule="evenodd" clip-rule="evenodd" d="M42.7776 818.639C42.7776 820.464 41.2976 821.944 39.4721 821.944C37.6466 821.944 36.1665 820.464 36.1665 818.639C36.1665 816.813 37.6466 815.333 39.4721 815.333C41.2976 815.333 42.7776 816.813 42.7776 818.639" fill="white"/>
<path fill-rule="evenodd" clip-rule="evenodd" d="M75.8333 818.639C75.8333 820.464 74.3532 821.944 72.5277 821.944C70.7022 821.944 69.2222 820.464 69.2222 818.639C69.2222 816.813 70.7022 815.333 72.5277 815.333C74.3532 815.333 75.8333 816.813 75.8333 818.639" fill="white"/>
<path fill-rule="evenodd" clip-rule="evenodd" d="M108.889 818.639C108.889 820.464 107.409 821.944 105.583 821.944C103.758 821.944 102.278 820.464 102.278 818.639C102.278 816.813 103.758 815.333 105.583 815.333C107.409 815.333 108.889 816.813 108.889 818.639" fill="white"/>
<path fill-rule="evenodd" clip-rule="evenodd" d="M141.945 818.639C141.945 820.464 140.465 821.944 138.639 821.944C136.814 821.944 135.333 820.464 135.333 818.639C135.333 816.813 136.814 815.333 138.639 815.333C140.465 815.333 141.945 816.813 141.945 818.639" fill="white"/>
<path fill-rule="evenodd" clip-rule="evenodd" d="M175 818.639C175 820.464 173.52 821.944 171.694 821.944C169.869 821.944 168.389 820.464 168.389 818.639C168.389 816.813 169.869 815.333 171.694 815.333C173.52 815.333 175 816.813 175 818.639" fill="white"/>
<path fill-rule="evenodd" clip-rule="evenodd" d="M9.72244 851.694C9.72244 853.52 8.24238 855 6.41688 855C4.59139 855 3.11133 853.52 3.11133 851.694C3.11133 849.869 4.59139 848.389 6.41688 848.389C8.24238 848.389 9.72244 849.869 9.72244 851.694" fill="white"/>
<path fill-rule="evenodd" clip-rule="evenodd" d="M42.7776 851.694C42.7776 853.52 41.2976 855 39.4721 855C37.6466 855 36.1665 853.52 36.1665 851.694C36.1665 849.869 37.6466 848.389 39.4721 848.389C41.2976 848.389 42.7776 849.869 42.7776 851.694" fill="white"/>
<path fill-rule="evenodd" clip-rule="evenodd" d="M75.8333 851.694C75.8333 853.52 74.3532 855 72.5277 855C70.7022 855 69.2222 853.52 69.2222 851.694C69.2222 849.869 70.7022 848.389 72.5277 848.389C74.3532 848.389 75.8333 849.869 75.8333 851.694" fill="white"/>
<path fill-rule="evenodd" clip-rule="evenodd" d="M108.889 851.694C108.889 853.52 107.409 855 105.583 855C103.758 855 102.278 853.52 102.278 851.694C102.278 849.869 103.758 848.389 105.583 848.389C107.409 848.389 108.889 849.869 108.889 851.694" fill="white"/>
<path fill-rule="evenodd" clip-rule="evenodd" d="M141.945 851.694C141.945 853.52 140.465 855 138.639 855C136.814 855 135.333 853.52 135.333 851.694C135.333 849.869 136.814 848.389 138.639 848.389C140.465 848.389 141.945 849.869 141.945 851.694" fill="white"/>
<path fill-rule="evenodd" clip-rule="evenodd" d="M175 851.694C175 853.52 173.52 855 171.694 855C169.869 855 168.389 853.52 168.389 851.694C168.389 849.869 169.869 848.389 171.694 848.389C173.52 848.389 175 849.869 175 851.694" fill="white"/>
</svg>
