<svg width="1920" height="976" viewBox="0 0 1920 976" fill="none" xmlns="http://www.w3.org/2000/svg">
<g>
<path d="M1920 0H0V1080H1920V0Z" fill="white"/>
<path d="M2123.99 -898.427L1163.97 60.7C1124.9 99.7344 1124.9 163.022 1163.97 202.056L2123.99 1161.18C2163.06 1200.22 2226.41 1200.22 2265.48 1161.18L3225.49 202.056C3264.56 163.021 3264.56 99.7344 3225.49 60.7L2265.48 -898.427C2226.41 -937.462 2163.06 -937.462 2123.99 -898.427Z" fill="#0094FF"/>
<path fill-rule="evenodd" clip-rule="evenodd" d="M1581.61 644.709C1581.61 646.533 1580.13 648.011 1578.31 648.011C1576.48 648.011 1575 646.533 1575 644.709C1575 642.885 1576.48 641.406 1578.31 641.406C1580.13 641.406 1581.61 642.885 1581.61 644.709Z" fill="white"/>
<path fill-rule="evenodd" clip-rule="evenodd" d="M1614.67 644.709C1614.67 646.533 1613.19 648.011 1611.36 648.011C1609.54 648.011 1608.06 646.533 1608.06 644.709C1608.06 642.885 1609.54 641.406 1611.36 641.406C1613.19 641.406 1614.67 642.885 1614.67 644.709Z" fill="white"/>
<path fill-rule="evenodd" clip-rule="evenodd" d="M1647.72 644.709C1647.72 646.533 1646.24 648.011 1644.42 648.011C1642.59 648.011 1641.11 646.533 1641.11 644.709C1641.11 642.885 1642.59 641.406 1644.42 641.406C1646.24 641.406 1647.72 642.885 1647.72 644.709Z" fill="white"/>
<path fill-rule="evenodd" clip-rule="evenodd" d="M1680.78 644.709C1680.78 646.533 1679.3 648.011 1677.47 648.011C1675.65 648.011 1674.17 646.533 1674.17 644.709C1674.17 642.885 1675.65 641.406 1677.47 641.406C1679.3 641.406 1680.78 642.885 1680.78 644.709Z" fill="white"/>
<path fill-rule="evenodd" clip-rule="evenodd" d="M1713.83 644.709C1713.83 646.533 1712.35 648.011 1710.53 648.011C1708.7 648.011 1707.22 646.533 1707.22 644.709C1707.22 642.885 1708.7 641.406 1710.53 641.406C1712.35 641.406 1713.83 642.885 1713.83 644.709Z" fill="white"/>
<path fill-rule="evenodd" clip-rule="evenodd" d="M1746.89 644.709C1746.89 646.533 1745.41 648.011 1743.58 648.011C1741.76 648.011 1740.28 646.533 1740.28 644.709C1740.28 642.885 1741.76 641.406 1743.58 641.406C1745.41 641.406 1746.89 642.885 1746.89 644.709Z" fill="white"/>
<path fill-rule="evenodd" clip-rule="evenodd" d="M1779.94 644.709C1779.94 646.533 1778.46 648.011 1776.64 648.011C1774.81 648.011 1773.33 646.533 1773.33 644.709C1773.33 642.885 1774.81 641.406 1776.64 641.406C1778.46 641.406 1779.94 642.885 1779.94 644.709Z" fill="white"/>
<path fill-rule="evenodd" clip-rule="evenodd" d="M1813 644.709C1813 646.533 1811.52 648.011 1809.69 648.011C1807.87 648.011 1806.39 646.533 1806.39 644.709C1806.39 642.885 1807.87 641.406 1809.69 641.406C1811.52 641.406 1813 642.885 1813 644.709Z" fill="white"/>
<path fill-rule="evenodd" clip-rule="evenodd" d="M1581.61 677.734C1581.61 679.557 1580.13 681.036 1578.31 681.036C1576.48 681.036 1575 679.557 1575 677.734C1575 675.91 1576.48 674.431 1578.31 674.431C1580.13 674.431 1581.61 675.91 1581.61 677.734Z" fill="white"/>
<path fill-rule="evenodd" clip-rule="evenodd" d="M1614.67 677.734C1614.67 679.557 1613.19 681.036 1611.36 681.036C1609.54 681.036 1608.06 679.557 1608.06 677.734C1608.06 675.91 1609.54 674.431 1611.36 674.431C1613.19 674.431 1614.67 675.91 1614.67 677.734Z" fill="white"/>
<path fill-rule="evenodd" clip-rule="evenodd" d="M1647.72 677.734C1647.72 679.557 1646.24 681.036 1644.42 681.036C1642.59 681.036 1641.11 679.557 1641.11 677.734C1641.11 675.91 1642.59 674.431 1644.42 674.431C1646.24 674.431 1647.72 675.91 1647.72 677.734Z" fill="white"/>
<path fill-rule="evenodd" clip-rule="evenodd" d="M1680.78 677.734C1680.78 679.557 1679.3 681.036 1677.47 681.036C1675.65 681.036 1674.17 679.557 1674.17 677.734C1674.17 675.91 1675.65 674.431 1677.47 674.431C1679.3 674.431 1680.78 675.91 1680.78 677.734Z" fill="white"/>
<path fill-rule="evenodd" clip-rule="evenodd" d="M1713.83 677.734C1713.83 679.557 1712.35 681.036 1710.53 681.036C1708.7 681.036 1707.22 679.557 1707.22 677.734C1707.22 675.91 1708.7 674.431 1710.53 674.431C1712.35 674.431 1713.83 675.91 1713.83 677.734Z" fill="white"/>
<path fill-rule="evenodd" clip-rule="evenodd" d="M1746.89 677.734C1746.89 679.557 1745.41 681.036 1743.58 681.036C1741.76 681.036 1740.28 679.557 1740.28 677.734C1740.28 675.91 1741.76 674.431 1743.58 674.431C1745.41 674.431 1746.89 675.91 1746.89 677.734Z" fill="white"/>
<path fill-rule="evenodd" clip-rule="evenodd" d="M1779.94 677.734C1779.94 679.557 1778.46 681.036 1776.64 681.036C1774.81 681.036 1773.33 679.557 1773.33 677.734C1773.33 675.91 1774.81 674.431 1776.64 674.431C1778.46 674.431 1779.94 675.91 1779.94 677.734Z" fill="white"/>
<path fill-rule="evenodd" clip-rule="evenodd" d="M1813 677.734C1813 679.557 1811.52 681.036 1809.69 681.036C1807.87 681.036 1806.39 679.557 1806.39 677.734C1806.39 675.91 1807.87 674.431 1809.69 674.431C1811.52 674.431 1813 675.91 1813 677.734Z" fill="white"/>
<path fill-rule="evenodd" clip-rule="evenodd" d="M1581.61 710.759C1581.61 712.583 1580.13 714.061 1578.31 714.061C1576.48 714.061 1575 712.583 1575 710.759C1575 708.935 1576.48 707.456 1578.31 707.456C1580.13 707.456 1581.61 708.935 1581.61 710.759Z" fill="white"/>
<path fill-rule="evenodd" clip-rule="evenodd" d="M1614.67 710.759C1614.67 712.583 1613.19 714.061 1611.36 714.061C1609.54 714.061 1608.06 712.583 1608.06 710.759C1608.06 708.935 1609.54 707.456 1611.36 707.456C1613.19 707.456 1614.67 708.935 1614.67 710.759Z" fill="white"/>
<path fill-rule="evenodd" clip-rule="evenodd" d="M1647.72 710.759C1647.72 712.583 1646.24 714.061 1644.42 714.061C1642.59 714.061 1641.11 712.583 1641.11 710.759C1641.11 708.935 1642.59 707.456 1644.42 707.456C1646.24 707.456 1647.72 708.935 1647.72 710.759Z" fill="white"/>
<path fill-rule="evenodd" clip-rule="evenodd" d="M1680.78 710.759C1680.78 712.583 1679.3 714.061 1677.47 714.061C1675.65 714.061 1674.17 712.583 1674.17 710.759C1674.17 708.935 1675.65 707.456 1677.47 707.456C1679.3 707.456 1680.78 708.935 1680.78 710.759Z" fill="white"/>
<path fill-rule="evenodd" clip-rule="evenodd" d="M1713.83 710.759C1713.83 712.583 1712.35 714.061 1710.53 714.061C1708.7 714.061 1707.22 712.583 1707.22 710.759C1707.22 708.935 1708.7 707.456 1710.53 707.456C1712.35 707.456 1713.83 708.935 1713.83 710.759Z" fill="white"/>
<path fill-rule="evenodd" clip-rule="evenodd" d="M1746.89 710.759C1746.89 712.583 1745.41 714.061 1743.58 714.061C1741.76 714.061 1740.28 712.583 1740.28 710.759C1740.28 708.935 1741.76 707.456 1743.58 707.456C1745.41 707.456 1746.89 708.935 1746.89 710.759Z" fill="white"/>
<path fill-rule="evenodd" clip-rule="evenodd" d="M1779.94 710.759C1779.94 712.583 1778.46 714.061 1776.64 714.061C1774.81 714.061 1773.33 712.583 1773.33 710.759C1773.33 708.935 1774.81 707.456 1776.64 707.456C1778.46 707.456 1779.94 708.935 1779.94 710.759Z" fill="white"/>
<path fill-rule="evenodd" clip-rule="evenodd" d="M1813 710.759C1813 712.583 1811.52 714.061 1809.69 714.061C1807.87 714.061 1806.39 712.583 1806.39 710.759C1806.39 708.935 1807.87 707.456 1809.69 707.456C1811.52 707.456 1813 708.935 1813 710.759Z" fill="white"/>
<path fill-rule="evenodd" clip-rule="evenodd" d="M1581.61 743.783C1581.61 745.607 1580.13 747.085 1578.31 747.085C1576.48 747.085 1575 745.607 1575 743.783C1575 741.959 1576.48 740.48 1578.31 740.48C1580.13 740.48 1581.61 741.959 1581.61 743.783Z" fill="white"/>
<path fill-rule="evenodd" clip-rule="evenodd" d="M1614.67 743.783C1614.67 745.607 1613.19 747.085 1611.36 747.085C1609.54 747.085 1608.06 745.607 1608.06 743.783C1608.06 741.959 1609.54 740.48 1611.36 740.48C1613.19 740.48 1614.67 741.959 1614.67 743.783Z" fill="white"/>
<path fill-rule="evenodd" clip-rule="evenodd" d="M1647.72 743.783C1647.72 745.607 1646.24 747.085 1644.42 747.085C1642.59 747.085 1641.11 745.607 1641.11 743.783C1641.11 741.959 1642.59 740.48 1644.42 740.48C1646.24 740.48 1647.72 741.959 1647.72 743.783Z" fill="white"/>
<path fill-rule="evenodd" clip-rule="evenodd" d="M1680.78 743.783C1680.78 745.607 1679.3 747.085 1677.47 747.085C1675.65 747.085 1674.17 745.607 1674.17 743.783C1674.17 741.959 1675.65 740.48 1677.47 740.48C1679.3 740.48 1680.78 741.959 1680.78 743.783Z" fill="white"/>
<path fill-rule="evenodd" clip-rule="evenodd" d="M1713.83 743.783C1713.83 745.607 1712.35 747.085 1710.53 747.085C1708.7 747.085 1707.22 745.607 1707.22 743.783C1707.22 741.959 1708.7 740.48 1710.53 740.48C1712.35 740.48 1713.83 741.959 1713.83 743.783Z" fill="white"/>
<path fill-rule="evenodd" clip-rule="evenodd" d="M1746.89 743.783C1746.89 745.607 1745.41 747.085 1743.58 747.085C1741.76 747.085 1740.28 745.607 1740.28 743.783C1740.28 741.959 1741.76 740.48 1743.58 740.48C1745.41 740.48 1746.89 741.959 1746.89 743.783Z" fill="white"/>
<path fill-rule="evenodd" clip-rule="evenodd" d="M1779.94 743.783C1779.94 745.607 1778.46 747.085 1776.64 747.085C1774.81 747.085 1773.33 745.607 1773.33 743.783C1773.33 741.959 1774.81 740.48 1776.64 740.48C1778.46 740.48 1779.94 741.959 1779.94 743.783Z" fill="white"/>
<path fill-rule="evenodd" clip-rule="evenodd" d="M1813 743.783C1813 745.607 1811.52 747.085 1809.69 747.085C1807.87 747.085 1806.39 745.607 1806.39 743.783C1806.39 741.959 1807.87 740.48 1809.69 740.48C1811.52 740.48 1813 741.959 1813 743.783Z" fill="white"/>
<path fill-rule="evenodd" clip-rule="evenodd" d="M1581.61 776.809C1581.61 778.632 1580.13 780.111 1578.31 780.111C1576.48 780.111 1575 778.632 1575 776.809C1575 774.985 1576.48 773.506 1578.31 773.506C1580.13 773.506 1581.61 774.985 1581.61 776.809Z" fill="white"/>
<path fill-rule="evenodd" clip-rule="evenodd" d="M1614.67 776.809C1614.67 778.632 1613.19 780.111 1611.36 780.111C1609.54 780.111 1608.06 778.632 1608.06 776.809C1608.06 774.985 1609.54 773.506 1611.36 773.506C1613.19 773.506 1614.67 774.985 1614.67 776.809Z" fill="white"/>
<path fill-rule="evenodd" clip-rule="evenodd" d="M1647.72 776.809C1647.72 778.632 1646.24 780.111 1644.42 780.111C1642.59 780.111 1641.11 778.632 1641.11 776.809C1641.11 774.985 1642.59 773.506 1644.42 773.506C1646.24 773.506 1647.72 774.985 1647.72 776.809Z" fill="white"/>
<path fill-rule="evenodd" clip-rule="evenodd" d="M1680.78 776.809C1680.78 778.632 1679.3 780.111 1677.47 780.111C1675.65 780.111 1674.17 778.632 1674.17 776.809C1674.17 774.985 1675.65 773.506 1677.47 773.506C1679.3 773.506 1680.78 774.985 1680.78 776.809Z" fill="white"/>
<path fill-rule="evenodd" clip-rule="evenodd" d="M1713.83 776.809C1713.83 778.632 1712.35 780.111 1710.53 780.111C1708.7 780.111 1707.22 778.632 1707.22 776.809C1707.22 774.985 1708.7 773.506 1710.53 773.506C1712.35 773.506 1713.83 774.985 1713.83 776.809Z" fill="white"/>
<path fill-rule="evenodd" clip-rule="evenodd" d="M1746.89 776.809C1746.89 778.632 1745.41 780.111 1743.58 780.111C1741.76 780.111 1740.28 778.632 1740.28 776.809C1740.28 774.985 1741.76 773.506 1743.58 773.506C1745.41 773.506 1746.89 774.985 1746.89 776.809Z" fill="white"/>
<path fill-rule="evenodd" clip-rule="evenodd" d="M1779.94 776.809C1779.94 778.632 1778.46 780.111 1776.64 780.111C1774.81 780.111 1773.33 778.632 1773.33 776.809C1773.33 774.985 1774.81 773.506 1776.64 773.506C1778.46 773.506 1779.94 774.985 1779.94 776.809Z" fill="white"/>
<path fill-rule="evenodd" clip-rule="evenodd" d="M1813 776.809C1813 778.632 1811.52 780.111 1809.69 780.111C1807.87 780.111 1806.39 778.632 1806.39 776.809C1806.39 774.985 1807.87 773.506 1809.69 773.506C1811.52 773.506 1813 774.985 1813 776.809Z" fill="white"/>
<path fill-rule="evenodd" clip-rule="evenodd" d="M1581.61 809.834C1581.61 811.658 1580.13 813.136 1578.31 813.136C1576.48 813.136 1575 811.658 1575 809.834C1575 808.01 1576.48 806.531 1578.31 806.531C1580.13 806.531 1581.61 808.01 1581.61 809.834Z" fill="white"/>
<path fill-rule="evenodd" clip-rule="evenodd" d="M1614.67 809.834C1614.67 811.658 1613.19 813.136 1611.36 813.136C1609.54 813.136 1608.06 811.658 1608.06 809.834C1608.06 808.01 1609.54 806.531 1611.36 806.531C1613.19 806.531 1614.67 808.01 1614.67 809.834Z" fill="white"/>
<path fill-rule="evenodd" clip-rule="evenodd" d="M1647.72 809.834C1647.72 811.658 1646.24 813.136 1644.42 813.136C1642.59 813.136 1641.11 811.658 1641.11 809.834C1641.11 808.01 1642.59 806.531 1644.42 806.531C1646.24 806.531 1647.72 808.01 1647.72 809.834Z" fill="white"/>
<path fill-rule="evenodd" clip-rule="evenodd" d="M1680.78 809.834C1680.78 811.658 1679.3 813.136 1677.47 813.136C1675.65 813.136 1674.17 811.658 1674.17 809.834C1674.17 808.01 1675.65 806.531 1677.47 806.531C1679.3 806.531 1680.78 808.01 1680.78 809.834Z" fill="white"/>
<path fill-rule="evenodd" clip-rule="evenodd" d="M1713.83 809.834C1713.83 811.658 1712.35 813.136 1710.53 813.136C1708.7 813.136 1707.22 811.658 1707.22 809.834C1707.22 808.01 1708.7 806.531 1710.53 806.531C1712.35 806.531 1713.83 808.01 1713.83 809.834Z" fill="white"/>
<path fill-rule="evenodd" clip-rule="evenodd" d="M1746.89 809.834C1746.89 811.658 1745.41 813.136 1743.58 813.136C1741.76 813.136 1740.28 811.658 1740.28 809.834C1740.28 808.01 1741.76 806.531 1743.58 806.531C1745.41 806.531 1746.89 808.01 1746.89 809.834Z" fill="white"/>
<path fill-rule="evenodd" clip-rule="evenodd" d="M1779.94 809.834C1779.94 811.658 1778.46 813.136 1776.64 813.136C1774.81 813.136 1773.33 811.658 1773.33 809.834C1773.33 808.01 1774.81 806.531 1776.64 806.531C1778.46 806.531 1779.94 808.01 1779.94 809.834Z" fill="white"/>
<path fill-rule="evenodd" clip-rule="evenodd" d="M1813 809.834C1813 811.658 1811.52 813.136 1809.69 813.136C1807.87 813.136 1806.39 811.658 1806.39 809.834C1806.39 808.01 1807.87 806.531 1809.69 806.531C1811.52 806.531 1813 808.01 1813 809.834Z" fill="white"/>
<path fill-rule="evenodd" clip-rule="evenodd" d="M1581.61 842.859C1581.61 844.682 1580.13 846.161 1578.31 846.161C1576.48 846.161 1575 844.682 1575 842.859C1575 841.035 1576.48 839.556 1578.31 839.556C1580.13 839.556 1581.61 841.035 1581.61 842.859Z" fill="white"/>
<path fill-rule="evenodd" clip-rule="evenodd" d="M1614.67 842.859C1614.67 844.682 1613.19 846.161 1611.36 846.161C1609.54 846.161 1608.06 844.682 1608.06 842.859C1608.06 841.035 1609.54 839.556 1611.36 839.556C1613.19 839.556 1614.67 841.035 1614.67 842.859Z" fill="white"/>
<path fill-rule="evenodd" clip-rule="evenodd" d="M1647.72 842.859C1647.72 844.682 1646.24 846.161 1644.42 846.161C1642.59 846.161 1641.11 844.682 1641.11 842.859C1641.11 841.035 1642.59 839.556 1644.42 839.556C1646.24 839.556 1647.72 841.035 1647.72 842.859Z" fill="white"/>
<path fill-rule="evenodd" clip-rule="evenodd" d="M1680.78 842.859C1680.78 844.682 1679.3 846.161 1677.47 846.161C1675.65 846.161 1674.17 844.682 1674.17 842.859C1674.17 841.035 1675.65 839.556 1677.47 839.556C1679.3 839.556 1680.78 841.035 1680.78 842.859Z" fill="white"/>
<path fill-rule="evenodd" clip-rule="evenodd" d="M1713.83 842.859C1713.83 844.682 1712.35 846.161 1710.53 846.161C1708.7 846.161 1707.22 844.682 1707.22 842.859C1707.22 841.035 1708.7 839.556 1710.53 839.556C1712.35 839.556 1713.83 841.035 1713.83 842.859Z" fill="white"/>
<path fill-rule="evenodd" clip-rule="evenodd" d="M1746.89 842.859C1746.89 844.682 1745.41 846.161 1743.58 846.161C1741.76 846.161 1740.28 844.682 1740.28 842.859C1740.28 841.035 1741.76 839.556 1743.58 839.556C1745.41 839.556 1746.89 841.035 1746.89 842.859Z" fill="white"/>
<path fill-rule="evenodd" clip-rule="evenodd" d="M1779.94 842.859C1779.94 844.682 1778.46 846.161 1776.64 846.161C1774.81 846.161 1773.33 844.682 1773.33 842.859C1773.33 841.035 1774.81 839.556 1776.64 839.556C1778.46 839.556 1779.94 841.035 1779.94 842.859Z" fill="white"/>
<path fill-rule="evenodd" clip-rule="evenodd" d="M1813 842.859C1813 844.682 1811.52 846.161 1809.69 846.161C1807.87 846.161 1806.39 844.682 1806.39 842.859C1806.39 841.035 1807.87 839.556 1809.69 839.556C1811.52 839.556 1813 841.035 1813 842.859Z" fill="white"/>
<path fill-rule="evenodd" clip-rule="evenodd" d="M1581.61 875.884C1581.61 877.707 1580.13 879.186 1578.31 879.186C1576.48 879.186 1575 877.707 1575 875.884C1575 874.06 1576.48 872.581 1578.31 872.581C1580.13 872.581 1581.61 874.06 1581.61 875.884Z" fill="white"/>
<path fill-rule="evenodd" clip-rule="evenodd" d="M1614.67 875.884C1614.67 877.707 1613.19 879.186 1611.36 879.186C1609.54 879.186 1608.06 877.707 1608.06 875.884C1608.06 874.06 1609.54 872.581 1611.36 872.581C1613.19 872.581 1614.67 874.06 1614.67 875.884Z" fill="white"/>
<path fill-rule="evenodd" clip-rule="evenodd" d="M1647.72 875.884C1647.72 877.707 1646.24 879.186 1644.42 879.186C1642.59 879.186 1641.11 877.707 1641.11 875.884C1641.11 874.06 1642.59 872.581 1644.42 872.581C1646.24 872.581 1647.72 874.06 1647.72 875.884Z" fill="white"/>
<path fill-rule="evenodd" clip-rule="evenodd" d="M1680.78 875.884C1680.78 877.707 1679.3 879.186 1677.47 879.186C1675.65 879.186 1674.17 877.707 1674.17 875.884C1674.17 874.06 1675.65 872.581 1677.47 872.581C1679.3 872.581 1680.78 874.06 1680.78 875.884Z" fill="white"/>
<path fill-rule="evenodd" clip-rule="evenodd" d="M1713.83 875.884C1713.83 877.707 1712.35 879.186 1710.53 879.186C1708.7 879.186 1707.22 877.707 1707.22 875.884C1707.22 874.06 1708.7 872.581 1710.53 872.581C1712.35 872.581 1713.83 874.06 1713.83 875.884Z" fill="white"/>
<path fill-rule="evenodd" clip-rule="evenodd" d="M1746.89 875.884C1746.89 877.707 1745.41 879.186 1743.58 879.186C1741.76 879.186 1740.28 877.707 1740.28 875.884C1740.28 874.06 1741.76 872.581 1743.58 872.581C1745.41 872.581 1746.89 874.06 1746.89 875.884Z" fill="white"/>
<path fill-rule="evenodd" clip-rule="evenodd" d="M1779.94 875.884C1779.94 877.707 1778.46 879.186 1776.64 879.186C1774.81 879.186 1773.33 877.707 1773.33 875.884C1773.33 874.06 1774.81 872.581 1776.64 872.581C1778.46 872.581 1779.94 874.06 1779.94 875.884Z" fill="white"/>
<path fill-rule="evenodd" clip-rule="evenodd" d="M1813 875.884C1813 877.707 1811.52 879.186 1809.69 879.186C1807.87 879.186 1806.39 877.707 1806.39 875.884C1806.39 874.06 1807.87 872.581 1809.69 872.581C1811.52 872.581 1813 874.06 1813 875.884Z" fill="white"/>
<path fill-rule="evenodd" clip-rule="evenodd" d="M1173.13 282.587C1173.13 284.411 1171.65 285.89 1169.82 285.89C1168 285.89 1166.52 284.411 1166.52 282.587C1166.52 280.763 1168 279.285 1169.82 279.285C1171.65 279.285 1173.13 280.763 1173.13 282.587Z" fill="white"/>
<path fill-rule="evenodd" clip-rule="evenodd" d="M1206.18 282.587C1206.18 284.411 1204.7 285.89 1202.88 285.89C1201.05 285.89 1199.57 284.411 1199.57 282.587C1199.57 280.763 1201.05 279.285 1202.88 279.285C1204.7 279.285 1206.18 280.763 1206.18 282.587Z" fill="white"/>
<path fill-rule="evenodd" clip-rule="evenodd" d="M1239.24 282.587C1239.24 284.411 1237.76 285.89 1235.93 285.89C1234.11 285.89 1232.63 284.411 1232.63 282.587C1232.63 280.763 1234.11 279.285 1235.93 279.285C1237.76 279.285 1239.24 280.763 1239.24 282.587Z" fill="white"/>
<path fill-rule="evenodd" clip-rule="evenodd" d="M1272.29 282.587C1272.29 284.411 1270.81 285.89 1268.99 285.89C1267.16 285.89 1265.68 284.411 1265.68 282.587C1265.68 280.763 1267.16 279.285 1268.99 279.285C1270.81 279.285 1272.29 280.763 1272.29 282.587Z" fill="white"/>
<path fill-rule="evenodd" clip-rule="evenodd" d="M1305.35 282.587C1305.35 284.411 1303.87 285.89 1302.04 285.89C1300.22 285.89 1298.74 284.411 1298.74 282.587C1298.74 280.763 1300.22 279.285 1302.04 279.285C1303.87 279.285 1305.35 280.763 1305.35 282.587Z" fill="white"/>
<path fill-rule="evenodd" clip-rule="evenodd" d="M1338.4 282.587C1338.4 284.411 1336.92 285.89 1335.1 285.89C1333.27 285.89 1331.79 284.411 1331.79 282.587C1331.79 280.763 1333.27 279.285 1335.1 279.285C1336.92 279.285 1338.4 280.763 1338.4 282.587Z" fill="white"/>
<path fill-rule="evenodd" clip-rule="evenodd" d="M1371.46 282.587C1371.46 284.411 1369.98 285.89 1368.15 285.89C1366.33 285.89 1364.85 284.411 1364.85 282.587C1364.85 280.763 1366.33 279.285 1368.15 279.285C1369.98 279.285 1371.46 280.763 1371.46 282.587Z" fill="white"/>
<path fill-rule="evenodd" clip-rule="evenodd" d="M1404.52 282.587C1404.52 284.411 1403.04 285.89 1401.21 285.89C1399.38 285.89 1397.9 284.411 1397.9 282.587C1397.9 280.763 1399.38 279.285 1401.21 279.285C1403.04 279.285 1404.52 280.763 1404.52 282.587Z" fill="white"/>
<path fill-rule="evenodd" clip-rule="evenodd" d="M1173.13 315.612C1173.13 317.436 1171.65 318.915 1169.82 318.915C1168 318.915 1166.52 317.436 1166.52 315.612C1166.52 313.788 1168 312.31 1169.82 312.31C1171.65 312.31 1173.13 313.788 1173.13 315.612Z" fill="white"/>
<path fill-rule="evenodd" clip-rule="evenodd" d="M1206.18 315.612C1206.18 317.436 1204.7 318.915 1202.88 318.915C1201.05 318.915 1199.57 317.436 1199.57 315.612C1199.57 313.788 1201.05 312.31 1202.88 312.31C1204.7 312.31 1206.18 313.788 1206.18 315.612Z" fill="white"/>
<path fill-rule="evenodd" clip-rule="evenodd" d="M1239.24 315.612C1239.24 317.436 1237.76 318.915 1235.93 318.915C1234.11 318.915 1232.63 317.436 1232.63 315.612C1232.63 313.788 1234.11 312.31 1235.93 312.31C1237.76 312.31 1239.24 313.788 1239.24 315.612Z" fill="white"/>
<path fill-rule="evenodd" clip-rule="evenodd" d="M1272.29 315.612C1272.29 317.436 1270.81 318.915 1268.99 318.915C1267.16 318.915 1265.68 317.436 1265.68 315.612C1265.68 313.788 1267.16 312.31 1268.99 312.31C1270.81 312.31 1272.29 313.788 1272.29 315.612Z" fill="white"/>
<path fill-rule="evenodd" clip-rule="evenodd" d="M1305.35 315.612C1305.35 317.436 1303.87 318.915 1302.04 318.915C1300.22 318.915 1298.74 317.436 1298.74 315.612C1298.74 313.788 1300.22 312.31 1302.04 312.31C1303.87 312.31 1305.35 313.788 1305.35 315.612Z" fill="white"/>
<path fill-rule="evenodd" clip-rule="evenodd" d="M1338.4 315.612C1338.4 317.436 1336.92 318.915 1335.1 318.915C1333.27 318.915 1331.79 317.436 1331.79 315.612C1331.79 313.788 1333.27 312.31 1335.1 312.31C1336.92 312.31 1338.4 313.788 1338.4 315.612Z" fill="white"/>
<path fill-rule="evenodd" clip-rule="evenodd" d="M1371.46 315.612C1371.46 317.436 1369.98 318.915 1368.15 318.915C1366.33 318.915 1364.85 317.436 1364.85 315.612C1364.85 313.788 1366.33 312.31 1368.15 312.31C1369.98 312.31 1371.46 313.788 1371.46 315.612Z" fill="white"/>
<path fill-rule="evenodd" clip-rule="evenodd" d="M1404.52 315.612C1404.52 317.436 1403.04 318.915 1401.21 318.915C1399.38 318.915 1397.9 317.436 1397.9 315.612C1397.9 313.788 1399.38 312.31 1401.21 312.31C1403.04 312.31 1404.52 313.788 1404.52 315.612Z" fill="white"/>
<path fill-rule="evenodd" clip-rule="evenodd" d="M1173.13 348.637C1173.13 350.461 1171.65 351.939 1169.82 351.939C1168 351.939 1166.52 350.461 1166.52 348.637C1166.52 346.813 1168 345.334 1169.82 345.334C1171.65 345.334 1173.13 346.813 1173.13 348.637Z" fill="white"/>
<path fill-rule="evenodd" clip-rule="evenodd" d="M1206.18 348.637C1206.18 350.461 1204.7 351.939 1202.88 351.939C1201.05 351.939 1199.57 350.461 1199.57 348.637C1199.57 346.813 1201.05 345.334 1202.88 345.334C1204.7 345.334 1206.18 346.813 1206.18 348.637Z" fill="white"/>
<path fill-rule="evenodd" clip-rule="evenodd" d="M1239.24 348.637C1239.24 350.461 1237.76 351.939 1235.93 351.939C1234.11 351.939 1232.63 350.461 1232.63 348.637C1232.63 346.813 1234.11 345.334 1235.93 345.334C1237.76 345.334 1239.24 346.813 1239.24 348.637Z" fill="white"/>
<path fill-rule="evenodd" clip-rule="evenodd" d="M1272.29 348.637C1272.29 350.461 1270.81 351.939 1268.99 351.939C1267.16 351.939 1265.68 350.461 1265.68 348.637C1265.68 346.813 1267.16 345.334 1268.99 345.334C1270.81 345.334 1272.29 346.813 1272.29 348.637Z" fill="white"/>
<path fill-rule="evenodd" clip-rule="evenodd" d="M1305.35 348.637C1305.35 350.461 1303.87 351.939 1302.04 351.939C1300.22 351.939 1298.74 350.461 1298.74 348.637C1298.74 346.813 1300.22 345.334 1302.04 345.334C1303.87 345.334 1305.35 346.813 1305.35 348.637Z" fill="white"/>
<path fill-rule="evenodd" clip-rule="evenodd" d="M1338.4 348.637C1338.4 350.461 1336.92 351.939 1335.1 351.939C1333.27 351.939 1331.79 350.461 1331.79 348.637C1331.79 346.813 1333.27 345.334 1335.1 345.334C1336.92 345.334 1338.4 346.813 1338.4 348.637Z" fill="white"/>
<path fill-rule="evenodd" clip-rule="evenodd" d="M1371.46 348.637C1371.46 350.461 1369.98 351.939 1368.15 351.939C1366.33 351.939 1364.85 350.461 1364.85 348.637C1364.85 346.813 1366.33 345.334 1368.15 345.334C1369.98 345.334 1371.46 346.813 1371.46 348.637Z" fill="white"/>
<path fill-rule="evenodd" clip-rule="evenodd" d="M1404.52 348.637C1404.52 350.461 1403.04 351.939 1401.21 351.939C1399.38 351.939 1397.9 350.461 1397.9 348.637C1397.9 346.813 1399.38 345.334 1401.21 345.334C1403.04 345.334 1404.52 346.813 1404.52 348.637Z" fill="white"/>
<path fill-rule="evenodd" clip-rule="evenodd" d="M1173.13 381.662C1173.13 383.486 1171.65 384.964 1169.82 384.964C1168 384.964 1166.52 383.486 1166.52 381.662C1166.52 379.838 1168 378.359 1169.82 378.359C1171.65 378.359 1173.13 379.838 1173.13 381.662Z" fill="white"/>
<path fill-rule="evenodd" clip-rule="evenodd" d="M1206.18 381.662C1206.18 383.486 1204.7 384.964 1202.88 384.964C1201.05 384.964 1199.57 383.486 1199.57 381.662C1199.57 379.838 1201.05 378.359 1202.88 378.359C1204.7 378.359 1206.18 379.838 1206.18 381.662Z" fill="white"/>
<path fill-rule="evenodd" clip-rule="evenodd" d="M1239.24 381.662C1239.24 383.486 1237.76 384.964 1235.93 384.964C1234.11 384.964 1232.63 383.486 1232.63 381.662C1232.63 379.838 1234.11 378.359 1235.93 378.359C1237.76 378.359 1239.24 379.838 1239.24 381.662Z" fill="white"/>
<path fill-rule="evenodd" clip-rule="evenodd" d="M1272.29 381.662C1272.29 383.486 1270.81 384.964 1268.99 384.964C1267.16 384.964 1265.68 383.486 1265.68 381.662C1265.68 379.838 1267.16 378.359 1268.99 378.359C1270.81 378.359 1272.29 379.838 1272.29 381.662Z" fill="white"/>
<path fill-rule="evenodd" clip-rule="evenodd" d="M1305.35 381.662C1305.35 383.486 1303.87 384.964 1302.04 384.964C1300.22 384.964 1298.74 383.486 1298.74 381.662C1298.74 379.838 1300.22 378.359 1302.04 378.359C1303.87 378.359 1305.35 379.838 1305.35 381.662Z" fill="white"/>
<path fill-rule="evenodd" clip-rule="evenodd" d="M1338.4 381.662C1338.4 383.486 1336.92 384.964 1335.1 384.964C1333.27 384.964 1331.79 383.486 1331.79 381.662C1331.79 379.838 1333.27 378.359 1335.1 378.359C1336.92 378.359 1338.4 379.838 1338.4 381.662Z" fill="white"/>
<path fill-rule="evenodd" clip-rule="evenodd" d="M1371.46 381.662C1371.46 383.486 1369.98 384.964 1368.15 384.964C1366.33 384.964 1364.85 383.486 1364.85 381.662C1364.85 379.838 1366.33 378.359 1368.15 378.359C1369.98 378.359 1371.46 379.838 1371.46 381.662Z" fill="white"/>
<path fill-rule="evenodd" clip-rule="evenodd" d="M1404.52 381.662C1404.52 383.486 1403.04 384.964 1401.21 384.964C1399.38 384.964 1397.9 383.486 1397.9 381.662C1397.9 379.838 1399.38 378.359 1401.21 378.359C1403.04 378.359 1404.52 379.838 1404.52 381.662Z" fill="white"/>
<path fill-rule="evenodd" clip-rule="evenodd" d="M1173.13 414.687C1173.13 416.511 1171.65 417.99 1169.82 417.99C1168 417.99 1166.52 416.511 1166.52 414.687C1166.52 412.863 1168 411.385 1169.82 411.385C1171.65 411.385 1173.13 412.863 1173.13 414.687Z" fill="white"/>
<path fill-rule="evenodd" clip-rule="evenodd" d="M1206.18 414.687C1206.18 416.511 1204.7 417.99 1202.88 417.99C1201.05 417.99 1199.57 416.511 1199.57 414.687C1199.57 412.863 1201.05 411.385 1202.88 411.385C1204.7 411.385 1206.18 412.863 1206.18 414.687Z" fill="white"/>
<path fill-rule="evenodd" clip-rule="evenodd" d="M1239.24 414.687C1239.24 416.511 1237.76 417.99 1235.93 417.99C1234.11 417.99 1232.63 416.511 1232.63 414.687C1232.63 412.863 1234.11 411.385 1235.93 411.385C1237.76 411.385 1239.24 412.863 1239.24 414.687Z" fill="white"/>
<path fill-rule="evenodd" clip-rule="evenodd" d="M1272.29 414.687C1272.29 416.511 1270.81 417.99 1268.99 417.99C1267.16 417.99 1265.68 416.511 1265.68 414.687C1265.68 412.863 1267.16 411.385 1268.99 411.385C1270.81 411.385 1272.29 412.863 1272.29 414.687Z" fill="white"/>
<path fill-rule="evenodd" clip-rule="evenodd" d="M1305.35 414.687C1305.35 416.511 1303.87 417.99 1302.04 417.99C1300.22 417.99 1298.74 416.511 1298.74 414.687C1298.74 412.863 1300.22 411.385 1302.04 411.385C1303.87 411.385 1305.35 412.863 1305.35 414.687Z" fill="white"/>
<path fill-rule="evenodd" clip-rule="evenodd" d="M1338.4 414.687C1338.4 416.511 1336.92 417.99 1335.1 417.99C1333.27 417.99 1331.79 416.511 1331.79 414.687C1331.79 412.863 1333.27 411.385 1335.1 411.385C1336.92 411.385 1338.4 412.863 1338.4 414.687Z" fill="white"/>
<path fill-rule="evenodd" clip-rule="evenodd" d="M1371.46 414.687C1371.46 416.511 1369.98 417.99 1368.15 417.99C1366.33 417.99 1364.85 416.511 1364.85 414.687C1364.85 412.863 1366.33 411.385 1368.15 411.385C1369.98 411.385 1371.46 412.863 1371.46 414.687Z" fill="white"/>
<path fill-rule="evenodd" clip-rule="evenodd" d="M1404.52 414.687C1404.52 416.511 1403.04 417.99 1401.21 417.99C1399.38 417.99 1397.9 416.511 1397.9 414.687C1397.9 412.863 1399.38 411.385 1401.21 411.385C1403.04 411.385 1404.52 412.863 1404.52 414.687Z" fill="white"/>
<path fill-rule="evenodd" clip-rule="evenodd" d="M1173.13 447.712C1173.13 449.536 1171.65 451.015 1169.82 451.015C1168 451.015 1166.52 449.536 1166.52 447.712C1166.52 445.888 1168 444.41 1169.82 444.41C1171.65 444.41 1173.13 445.888 1173.13 447.712Z" fill="white"/>
<path fill-rule="evenodd" clip-rule="evenodd" d="M1206.18 447.712C1206.18 449.536 1204.7 451.015 1202.88 451.015C1201.05 451.015 1199.57 449.536 1199.57 447.712C1199.57 445.888 1201.05 444.41 1202.88 444.41C1204.7 444.41 1206.18 445.888 1206.18 447.712Z" fill="white"/>
<path fill-rule="evenodd" clip-rule="evenodd" d="M1239.24 447.712C1239.24 449.536 1237.76 451.015 1235.93 451.015C1234.11 451.015 1232.63 449.536 1232.63 447.712C1232.63 445.888 1234.11 444.41 1235.93 444.41C1237.76 444.41 1239.24 445.888 1239.24 447.712Z" fill="white"/>
<path fill-rule="evenodd" clip-rule="evenodd" d="M1272.29 447.712C1272.29 449.536 1270.81 451.015 1268.99 451.015C1267.16 451.015 1265.68 449.536 1265.68 447.712C1265.68 445.888 1267.16 444.41 1268.99 444.41C1270.81 444.41 1272.29 445.888 1272.29 447.712Z" fill="white"/>
<path fill-rule="evenodd" clip-rule="evenodd" d="M1305.35 447.712C1305.35 449.536 1303.87 451.015 1302.04 451.015C1300.22 451.015 1298.74 449.536 1298.74 447.712C1298.74 445.888 1300.22 444.41 1302.04 444.41C1303.87 444.41 1305.35 445.888 1305.35 447.712Z" fill="white"/>
<path fill-rule="evenodd" clip-rule="evenodd" d="M1338.4 447.712C1338.4 449.536 1336.92 451.015 1335.1 451.015C1333.27 451.015 1331.79 449.536 1331.79 447.712C1331.79 445.888 1333.27 444.41 1335.1 444.41C1336.92 444.41 1338.4 445.888 1338.4 447.712Z" fill="white"/>
<path fill-rule="evenodd" clip-rule="evenodd" d="M1371.46 447.712C1371.46 449.536 1369.98 451.015 1368.15 451.015C1366.33 451.015 1364.85 449.536 1364.85 447.712C1364.85 445.888 1366.33 444.41 1368.15 444.41C1369.98 444.41 1371.46 445.888 1371.46 447.712Z" fill="white"/>
<path fill-rule="evenodd" clip-rule="evenodd" d="M1404.52 447.712C1404.52 449.536 1403.04 451.015 1401.21 451.015C1399.38 451.015 1397.9 449.536 1397.9 447.712C1397.9 445.888 1399.38 444.41 1401.21 444.41C1403.04 444.41 1404.52 445.888 1404.52 447.712Z" fill="white"/>
<path fill-rule="evenodd" clip-rule="evenodd" d="M1173.13 480.737C1173.13 482.561 1171.65 484.04 1169.82 484.04C1168 484.04 1166.52 482.561 1166.52 480.737C1166.52 478.913 1168 477.435 1169.82 477.435C1171.65 477.435 1173.13 478.913 1173.13 480.737Z" fill="white"/>
<path fill-rule="evenodd" clip-rule="evenodd" d="M1206.18 480.737C1206.18 482.561 1204.7 484.04 1202.88 484.04C1201.05 484.04 1199.57 482.561 1199.57 480.737C1199.57 478.913 1201.05 477.435 1202.88 477.435C1204.7 477.435 1206.18 478.913 1206.18 480.737Z" fill="white"/>
<path fill-rule="evenodd" clip-rule="evenodd" d="M1239.24 480.737C1239.24 482.561 1237.76 484.04 1235.93 484.04C1234.11 484.04 1232.63 482.561 1232.63 480.737C1232.63 478.913 1234.11 477.435 1235.93 477.435C1237.76 477.435 1239.24 478.913 1239.24 480.737Z" fill="white"/>
<path fill-rule="evenodd" clip-rule="evenodd" d="M1272.29 480.737C1272.29 482.561 1270.81 484.04 1268.99 484.04C1267.16 484.04 1265.68 482.561 1265.68 480.737C1265.68 478.913 1267.16 477.435 1268.99 477.435C1270.81 477.435 1272.29 478.913 1272.29 480.737Z" fill="white"/>
<path fill-rule="evenodd" clip-rule="evenodd" d="M1305.35 480.737C1305.35 482.561 1303.87 484.04 1302.04 484.04C1300.22 484.04 1298.74 482.561 1298.74 480.737C1298.74 478.913 1300.22 477.435 1302.04 477.435C1303.87 477.435 1305.35 478.913 1305.35 480.737Z" fill="white"/>
<path fill-rule="evenodd" clip-rule="evenodd" d="M1338.4 480.737C1338.4 482.561 1336.92 484.04 1335.1 484.04C1333.27 484.04 1331.79 482.561 1331.79 480.737C1331.79 478.913 1333.27 477.435 1335.1 477.435C1336.92 477.435 1338.4 478.913 1338.4 480.737Z" fill="white"/>
<path fill-rule="evenodd" clip-rule="evenodd" d="M1371.46 480.737C1371.46 482.561 1369.98 484.04 1368.15 484.04C1366.33 484.04 1364.85 482.561 1364.85 480.737C1364.85 478.913 1366.33 477.435 1368.15 477.435C1369.98 477.435 1371.46 478.913 1371.46 480.737Z" fill="white"/>
<path fill-rule="evenodd" clip-rule="evenodd" d="M1404.52 480.737C1404.52 482.561 1403.04 484.04 1401.21 484.04C1399.38 484.04 1397.9 482.561 1397.9 480.737C1397.9 478.913 1399.38 477.435 1401.21 477.435C1403.04 477.435 1404.52 478.913 1404.52 480.737Z" fill="white"/>
<path fill-rule="evenodd" clip-rule="evenodd" d="M1173.13 513.762C1173.13 515.586 1171.65 517.064 1169.82 517.064C1168 517.064 1166.52 515.586 1166.52 513.762C1166.52 511.938 1168 510.459 1169.82 510.459C1171.65 510.459 1173.13 511.938 1173.13 513.762Z" fill="white"/>
<path fill-rule="evenodd" clip-rule="evenodd" d="M1206.18 513.762C1206.18 515.586 1204.7 517.064 1202.88 517.064C1201.05 517.064 1199.57 515.586 1199.57 513.762C1199.57 511.938 1201.05 510.459 1202.88 510.459C1204.7 510.459 1206.18 511.938 1206.18 513.762Z" fill="white"/>
<path fill-rule="evenodd" clip-rule="evenodd" d="M1239.24 513.762C1239.24 515.586 1237.76 517.064 1235.93 517.064C1234.11 517.064 1232.63 515.586 1232.63 513.762C1232.63 511.938 1234.11 510.459 1235.93 510.459C1237.76 510.459 1239.24 511.938 1239.24 513.762Z" fill="white"/>
<path fill-rule="evenodd" clip-rule="evenodd" d="M1272.29 513.762C1272.29 515.586 1270.81 517.064 1268.99 517.064C1267.16 517.064 1265.68 515.586 1265.68 513.762C1265.68 511.938 1267.16 510.459 1268.99 510.459C1270.81 510.459 1272.29 511.938 1272.29 513.762Z" fill="white"/>
<path fill-rule="evenodd" clip-rule="evenodd" d="M1305.35 513.762C1305.35 515.586 1303.87 517.064 1302.04 517.064C1300.22 517.064 1298.74 515.586 1298.74 513.762C1298.74 511.938 1300.22 510.459 1302.04 510.459C1303.87 510.459 1305.35 511.938 1305.35 513.762Z" fill="white"/>
<path fill-rule="evenodd" clip-rule="evenodd" d="M1338.4 513.762C1338.4 515.586 1336.92 517.064 1335.1 517.064C1333.27 517.064 1331.79 515.586 1331.79 513.762C1331.79 511.938 1333.27 510.459 1335.1 510.459C1336.92 510.459 1338.4 511.938 1338.4 513.762Z" fill="white"/>
<path fill-rule="evenodd" clip-rule="evenodd" d="M1371.46 513.762C1371.46 515.586 1369.98 517.064 1368.15 517.064C1366.33 517.064 1364.85 515.586 1364.85 513.762C1364.85 511.938 1366.33 510.459 1368.15 510.459C1369.98 510.459 1371.46 511.938 1371.46 513.762Z" fill="white"/>
<path fill-rule="evenodd" clip-rule="evenodd" d="M1404.52 513.762C1404.52 515.586 1403.04 517.064 1401.21 517.064C1399.38 517.064 1397.9 515.586 1397.9 513.762C1397.9 511.938 1399.38 510.459 1401.21 510.459C1403.04 510.459 1404.52 511.938 1404.52 513.762Z" fill="white"/>
<path fill-rule="evenodd" clip-rule="evenodd" d="M1354.92 454.392C1352.38 454.392 1350.32 456.553 1350.32 459.211H1351.85C1351.85 457.439 1353.23 455.998 1354.92 455.998V454.392Z" fill="white"/>
<path fill-rule="evenodd" clip-rule="evenodd" d="M1420.8 533.232C1423.22 542.203 1417.45 551.563 1407.95 554.096L1410.14 562.231C1424.39 558.431 1433.04 544.392 1429.41 530.935C1425.79 517.478 1411.25 509.622 1397 513.422L1399.19 521.557C1408.69 519.024 1418.39 524.262 1420.8 533.232Z" fill="white"/>
<path fill-rule="evenodd" clip-rule="evenodd" d="M1517.3 416.799C1518.86 422.567 1515.15 428.586 1509.04 430.215L1510.45 435.445C1519.61 433.002 1525.17 423.975 1522.84 415.322C1520.51 406.669 1511.16 401.618 1502 404.061L1503.41 409.292C1509.52 407.663 1515.75 411.031 1517.3 416.799Z" fill="white"/>
</g>
</svg>
