<svg width="94" height="32" viewBox="0 0 94 32" fill="none" xmlns="http://www.w3.org/2000/svg">
<g clip-path="url(#clip0_4634_398279)">
<path d="M8.94123 32.0003H0.844727V14.7286H17.4552C18.0866 14.7429 18.7065 14.5556 19.2276 14.1932C19.7472 13.833 20.1792 13.3574 20.4909 12.8025C20.7947 12.2846 20.955 11.693 20.955 11.0902C20.955 10.4874 20.7947 9.89581 20.4909 9.3779C20.192 8.81263 19.7575 8.33305 19.2276 7.98353C18.704 7.62688 18.0856 7.44135 17.4552 7.45181H0.844727V0.0151367H17.4552C19.9013 0.0151367 22.0106 0.572883 23.7391 1.70697C25.384 2.75788 26.7356 4.22 27.6646 5.95331C28.5248 7.52581 28.989 9.28976 29.0159 11.0883C29.0183 12.5149 28.7381 13.9274 28.1919 15.2417C27.6294 16.6155 26.7812 17.8496 25.7055 18.8597C24.6171 19.9403 23.3276 20.7901 21.9124 21.3596C20.4972 21.929 18.9845 22.2067 17.4625 22.1764H8.94123V32.0003Z" fill="white"/>
<path d="M81.6085 8.22935L77.2216 0.00439453L60.9224 32.0007H69.3741L81.6085 8.22935Z" fill="white"/>
<path d="M84.8437 14.543L78.2778 26.9399H82.8845L85.4662 32.0006H93.9948L84.8437 14.543Z" fill="white"/>
<path d="M60.4302 9.87303C59.5943 8.06599 58.4654 6.41437 57.0906 4.98713C55.592 3.46606 53.8257 2.24391 51.8833 1.38407C49.7687 0.465221 47.4893 0.00182928 45.1893 0.0231656H33.6836V7.45984V14.8147H40.9269V7.44495H45.1893C46.2771 7.42497 47.3574 7.62994 48.3647 8.04736C49.372 8.46479 50.285 9.08594 51.0484 9.87303C51.8813 10.6836 52.545 11.656 53.0002 12.7324C53.444 13.7684 53.6734 14.886 53.674 16.0157C53.6681 17.1449 53.4389 18.2614 53.0002 19.299C52.542 20.3736 51.8871 21.3502 51.0704 22.177C50.3136 22.934 49.4145 23.5283 48.4265 23.9246C47.3968 24.3654 46.2883 24.5844 45.171 24.5679H33.6616V32.0046L45.1893 31.9822C47.4244 31.9751 49.6359 31.5189 51.6966 30.6399C53.6558 29.8254 55.4442 28.6391 56.9661 27.1447C58.4875 25.6601 59.6949 23.8762 60.5145 21.9018C61.3029 20.0214 61.7137 18 61.7229 15.9562C61.7388 13.8565 61.2974 11.7792 60.4302 9.87303Z" fill="white"/>
</g>
<defs>
<clipPath id="clip0_4634_398279">
<rect width="93.1556" height="32" fill="white" transform="translate(0.844727)"/>
</clipPath>
</defs>
</svg>
