<svg width="265" height="539" viewBox="0 0 265 539" fill="none" xmlns="http://www.w3.org/2000/svg">
<rect width="380.424" height="380.424" rx="48" transform="matrix(-0.705791 0.70842 -0.705791 -0.70842 265 269.5)" fill="#0094FF"/>
<path fill-rule="evenodd" clip-rule="evenodd" d="M102.498 399.703C102.498 397.649 104.16 395.983 106.21 395.983C108.26 395.983 109.922 397.649 109.922 399.703C109.922 401.758 108.26 403.423 106.21 403.423C104.16 403.423 102.498 401.758 102.498 399.703Z" fill="white"/>
<path fill-rule="evenodd" clip-rule="evenodd" d="M65.3783 399.703C65.3783 397.649 67.0403 395.983 69.0903 395.983C71.1402 395.983 72.8022 397.649 72.8022 399.703C72.8022 401.758 71.1402 403.423 69.0903 403.423C67.0403 403.423 65.3783 401.758 65.3783 399.703Z" fill="white"/>
<path fill-rule="evenodd" clip-rule="evenodd" d="M28.2582 399.703C28.2582 397.649 29.9202 395.983 31.9701 395.983C34.0201 395.983 35.6821 397.649 35.6821 399.703C35.6821 401.758 34.0201 403.423 31.9701 403.423C29.9202 403.423 28.2582 401.758 28.2582 399.703Z" fill="white"/>
<path fill-rule="evenodd" clip-rule="evenodd" d="M102.498 362.502C102.498 360.448 104.16 358.782 106.21 358.782C108.26 358.782 109.922 360.448 109.922 362.502C109.922 364.557 108.26 366.222 106.21 366.222C104.16 366.222 102.498 364.557 102.498 362.502Z" fill="white"/>
<path fill-rule="evenodd" clip-rule="evenodd" d="M65.3783 362.502C65.3783 360.448 67.0403 358.782 69.0903 358.782C71.1402 358.782 72.8022 360.448 72.8022 362.502C72.8022 364.557 71.1402 366.222 69.0903 366.222C67.0403 366.222 65.3783 364.557 65.3783 362.502Z" fill="white"/>
<path fill-rule="evenodd" clip-rule="evenodd" d="M28.2582 362.502C28.2582 360.448 29.9202 358.782 31.9701 358.782C34.0201 358.782 35.6821 360.448 35.6821 362.502C35.6821 364.557 34.0201 366.222 31.9701 366.222C29.9202 366.222 28.2582 364.557 28.2582 362.502Z" fill="white"/>
<path fill-rule="evenodd" clip-rule="evenodd" d="M102.498 325.301C102.498 323.247 104.16 321.581 106.21 321.581C108.26 321.581 109.922 323.247 109.922 325.301C109.922 327.356 108.26 329.021 106.21 329.021C104.16 329.021 102.498 327.356 102.498 325.301Z" fill="white"/>
<path fill-rule="evenodd" clip-rule="evenodd" d="M65.3783 325.301C65.3783 323.247 67.0403 321.581 69.0903 321.581C71.1402 321.581 72.8022 323.247 72.8022 325.301C72.8022 327.356 71.1402 329.021 69.0903 329.021C67.0403 329.021 65.3783 327.356 65.3783 325.301Z" fill="white"/>
<path fill-rule="evenodd" clip-rule="evenodd" d="M28.2582 325.301C28.2582 323.247 29.9202 321.581 31.9701 321.581C34.0201 321.581 35.6821 323.247 35.6821 325.301C35.6821 327.356 34.0201 329.021 31.9701 329.021C29.9202 329.021 28.2582 327.356 28.2582 325.301Z" fill="white"/>
<path fill-rule="evenodd" clip-rule="evenodd" d="M102.498 288.1C102.498 286.046 104.16 284.38 106.21 284.38C108.26 284.38 109.922 286.046 109.922 288.1C109.922 290.155 108.26 291.82 106.21 291.82C104.16 291.82 102.498 290.155 102.498 288.1Z" fill="white"/>
<path fill-rule="evenodd" clip-rule="evenodd" d="M65.3783 288.1C65.3783 286.046 67.0403 284.38 69.0903 284.38C71.1402 284.38 72.8022 286.046 72.8022 288.1C72.8022 290.155 71.1402 291.82 69.0903 291.82C67.0403 291.82 65.3783 290.155 65.3783 288.1Z" fill="white"/>
<path fill-rule="evenodd" clip-rule="evenodd" d="M28.2582 288.1C28.2582 286.046 29.9202 284.38 31.9701 284.38C34.0201 284.38 35.6821 286.046 35.6821 288.1C35.6821 290.155 34.0201 291.82 31.9701 291.82C29.9202 291.82 28.2582 290.155 28.2582 288.1Z" fill="white"/>
<path fill-rule="evenodd" clip-rule="evenodd" d="M102.498 250.899C102.498 248.845 104.16 247.179 106.21 247.179C108.26 247.179 109.922 248.845 109.922 250.899C109.922 252.954 108.26 254.62 106.21 254.62C104.16 254.62 102.498 252.954 102.498 250.899Z" fill="white"/>
<path fill-rule="evenodd" clip-rule="evenodd" d="M65.3783 250.899C65.3783 248.845 67.0403 247.179 69.0903 247.179C71.1402 247.179 72.8022 248.845 72.8022 250.899C72.8022 252.954 71.1402 254.62 69.0903 254.62C67.0403 254.62 65.3783 252.954 65.3783 250.899Z" fill="white"/>
<path fill-rule="evenodd" clip-rule="evenodd" d="M28.2582 250.899C28.2582 248.845 29.9202 247.179 31.9701 247.179C34.0201 247.179 35.6821 248.845 35.6821 250.899C35.6821 252.954 34.0201 254.62 31.9701 254.62C29.9202 254.62 28.2582 252.954 28.2582 250.899Z" fill="white"/>
<path fill-rule="evenodd" clip-rule="evenodd" d="M102.498 213.698C102.498 211.644 104.16 209.978 106.21 209.978C108.26 209.978 109.922 211.644 109.922 213.698C109.922 215.753 108.26 217.419 106.21 217.419C104.16 217.419 102.498 215.753 102.498 213.698Z" fill="white"/>
<path fill-rule="evenodd" clip-rule="evenodd" d="M65.3783 213.698C65.3783 211.644 67.0403 209.978 69.0903 209.978C71.1402 209.978 72.8022 211.644 72.8022 213.698C72.8022 215.753 71.1402 217.419 69.0903 217.419C67.0403 217.419 65.3783 215.753 65.3783 213.698Z" fill="white"/>
<path fill-rule="evenodd" clip-rule="evenodd" d="M28.2582 213.698C28.2582 211.644 29.9202 209.978 31.9701 209.978C34.0201 209.978 35.6821 211.644 35.6821 213.698C35.6821 215.753 34.0201 217.419 31.9701 217.419C29.9202 217.419 28.2582 215.753 28.2582 213.698Z" fill="white"/>
<path fill-rule="evenodd" clip-rule="evenodd" d="M102.498 176.498C102.498 174.443 104.16 172.777 106.21 172.777C108.26 172.777 109.922 174.443 109.922 176.498C109.922 178.552 108.26 180.218 106.21 180.218C104.16 180.218 102.498 178.552 102.498 176.498Z" fill="white"/>
<path fill-rule="evenodd" clip-rule="evenodd" d="M65.3783 176.498C65.3783 174.443 67.0403 172.777 69.0903 172.777C71.1402 172.777 72.8022 174.443 72.8022 176.498C72.8022 178.552 71.1402 180.218 69.0903 180.218C67.0403 180.218 65.3783 178.552 65.3783 176.498Z" fill="white"/>
<path fill-rule="evenodd" clip-rule="evenodd" d="M28.2582 176.498C28.2582 174.443 29.9202 172.777 31.9701 172.777C34.0201 172.777 35.6821 174.443 35.6821 176.498C35.6821 178.552 34.0201 180.218 31.9701 180.218C29.9202 180.218 28.2582 178.552 28.2582 176.498Z" fill="white"/>
<path fill-rule="evenodd" clip-rule="evenodd" d="M102.498 139.297C102.498 137.242 104.16 135.577 106.21 135.577C108.26 135.577 109.922 137.242 109.922 139.297C109.922 141.351 108.26 143.017 106.21 143.017C104.16 143.017 102.498 141.351 102.498 139.297Z" fill="white"/>
<path fill-rule="evenodd" clip-rule="evenodd" d="M65.3783 139.297C65.3783 137.242 67.0403 135.577 69.0903 135.577C71.1402 135.577 72.8022 137.242 72.8022 139.297C72.8022 141.351 71.1402 143.017 69.0903 143.017C67.0403 143.017 65.3783 141.351 65.3783 139.297Z" fill="white"/>
<path fill-rule="evenodd" clip-rule="evenodd" d="M28.2582 139.297C28.2582 137.242 29.9202 135.577 31.9701 135.577C34.0201 135.577 35.6821 137.242 35.6821 139.297C35.6821 141.351 34.0201 143.017 31.9701 143.017C29.9202 143.017 28.2582 141.351 28.2582 139.297Z" fill="white"/>
</svg>
